<svg viewBox="0 0 201 135" xmlns="http://www.w3.org/2000/svg" fill-rule="evenodd" clip-rule="evenodd" stroke-linejoin="round" stroke-miterlimit="1.4"><g fill-rule="nonzero"><path d="M183.5.5h-166C8 .5.5 8 .5 17.5v27.3h200V17.5c0-9.4-7.6-17-17-17M.5 117.5c0 9.3 7.6 17 17 17h166c9.4 0 17-7.7 17-17V90H.5v27.5z" fill="#54acde"/><path d="M82 67.2l11-.4v-.2c-1.7-.5-2.8 0-5-1-2.4-1.4-3.2-.6-4.4-1-1.2-.2-1.7-1-1.5-1.2.4-.2.6.5 1.6.6 1 0 2.6-.6 4.6.5 1.7 1 3.2.4 5 .8l-10-4.7s-.3-.2-.2-.4c0-.2.4 0 .4 0L93.8 64v-.2c-1.3-1.2-2.5-1-4-3-2-2-2.8-1.6-4-2.4-1-.7-1-1.6-.7-1.7.4 0 .3.7 1.2 1 .8.5 2.6.5 4 2.3 1.3 1.5 3 1.7 4.4 2.7l-7.4-8.2s-.3-.2 0-.4l.3.2 8 7.5h.2c-.7-1.7-2-2-2.6-4.4-.8-2.7-1.8-2.6-2.5-3.7-.7-1-.4-2 0-2 .2 0-.2.7.4 1.5.6.8 2.2 1.5 3 3.7.5 1.8 2 2.6 3 4l-3.8-10.3s-.2-.3 0-.4c.3 0 .4.2.4.2l4.6 10h.2c0-1.7-1-2.6-1-5 .3-2.8-.6-3-.8-4.4-.2-1.3.4-2 .6-1.8.3 0-.3.6 0 1.5.3 1 1.5 2.2 1.3 4.5 0 2 1 3 1.2 5l.5-11s0-.4.3-.4c.2 0 .2.3.2.3l.4 11h.3c.6-1.7 0-2.8 1-5 1.4-2.5.6-3.2 1-4.4.3-1.3 1-1.7 1.3-1.5 0 .3-.6.6-.7 1.5-.2 1 .5 2.6-.6 4.7-.8 1.6-.4 3.2-.8 5h.2l4.6-10s0-.3.3-.2c.2 0 0 .4 0 .4L104 60.7c1.3-1.2 1.2-2.4 3-4 2-1.8 1.7-2.7 2.5-3.8.8-1 1.7-1.2 1.8-1 0 .4-.8.3-1.2 1-.3 1-.3 2.8-2 4.3-1.5 1.2-1.7 2.8-2.8 4.3l8.2-7.4s.3-.3.4 0c.2 0 0 .3 0 .3l-7.6 8s0 .2.2.2c1.5-.7 2-2 4.2-2.7 2.7-.8 2.7-2 3.8-2.5 1-.7 2-.4 2 0 0 .2-.8-.2-1.5.4-.8.5-1.6 2.2-3.8 3-1.7.4-2.6 2-4 3l10.3-4s.3 0 .4.2c0 .2-.3.4-.3.4l-10 4.6c1.8 0 2.6-1 5-.7 2.8.2 3.2-.7 4.4-1 1.4 0 2 .5 2 .7-.2.3-.7-.3-1.6 0-1 .3-2.2 1.5-4.5 1.3-2-.2-3.2.8-5 1.2l11 .5s.4 0 .4.3c0 .2-.4.2-.4.2l-11 .4v.3c1.6.6 2.8 0 5 1 2.4 1.4 3 .6 4.3 1 1.3.2 1.7 1 1.5 1.2-.2.2-.5-.5-1.4-.6-1-.2-2.6.5-4.7-.6-1.6-.8-3.2-.4-5-.8l10 4.7s.3.2.2.4c-.2.2-.5 0-.5 0L107.2 71c1.2 1.3 2.5 1.2 4 3 1.8 2 2.8 1.7 3.8 2.5 1 .7 1 1.6.8 1.7-.2 0-.2-.7-1-1-1-.5-2.7-.5-4-2.3-1.3-1.5-3-1.7-4.5-2.8l7.4 8.2s.3.3 0 .4c0 .2-.3 0-.3 0l-8-7.6h-.2c.8 1.7 2 2 2.7 4.4.7 2.7 1.8 2.7 2.4 3.8.7 1 .4 2 0 2 0 0 .2-.8-.4-1.5-.6-1-2.3-1.6-3-3.8-.5-1.8-2-2.6-3-4l3.8 10.3v.4c-.3 0-.4-.3-.4-.3l-4.6-10h-.2c0 1.8 1 2.6.8 5-.2 2.8.8 3 1 4.4 0 1.4-.4 2-.7 2-.3-.2.4-.7 0-1.6-.2-1-1.5-2.2-1.3-4.5.2-2-.8-3.2-1-5h-.3l-.3 11s0 .3-.2.3c-.3 0-.3-.3-.3-.3l-.4-11c-.7 1.6-.2 2.8-1.3 5-1.2 2.4-.5 3-.8 4.3-.3 1.3-1 1.7-1.3 1.5-.2-.2.6-.5.6-1.4 0-1-.6-2.6.5-4.7 1-1.6.4-3.2.8-5l-4.7 10s0 .3-.4.2c-.2-.2 0-.5 0-.5L97 74.2h-.2c-1 1.2-1 2.4-3 4-2 1.8-1.6 2.8-2.4 3.8-.7 1-1.6 1-1.7.8 0-.2.7-.2 1-1 .5-1 .6-2.7 2.3-4 1.5-1.3 1.7-3 2.7-4.5l-8.2 7.4s-.2.3-.4 0l.2-.3 7.5-8V72c-1.7.7-2 2-4.4 2.7-2.6.7-2.6 1.8-3.7 2.4-1 .7-2 .4-2 0 0-.2.8.2 1.5-.4.8-.6 1.5-2.3 3.7-3 1.8-.5 2.6-2 4-3l-10.3 3.8H83c0-.3.2-.5.2-.5l10-4.6c-1.7 0-2.6 1-5 .7-2.7-.2-3 .8-4.4 1-1.2 0-2-.4-1.8-.7 0-.3.6.3 1.5 0 1-.2 2.2-1.5 4.5-1.3 2 .2 3.2-.8 5-1.2l-11-.5s-.4 0-.4-.2c0-.3.3-.3.3-.3M.4 90.2h200V44.7H.5V90z" fill="#fff"/><path d="M100.5 80.2l-.2-5.2h-.5l.4 11s0 .3.3.3c.2 0 .2-.3.2-.3l.4-11h-.3l-.2 5.2z" fill="#ffbf3d"/><path d="M100.7 75h-.2-.2l.2 5.2.2-5.2z" fill="#983412"/><path d="M98 80c1-2 .4-3.3.8-5.2h-.5c-.4 1.7 0 3.3-.8 5-1 2-.4 3.6-.5 4.6 0 1-.8 1.2-.6 1.4.2.2 1-.2 1.3-1.5.3-1.2-.4-2 .8-4.4 1-2.2.6-3.4 1.2-5h-.5c-.7 2 0 3.6-1.3 5" fill="#ffbf3d"/><path d="M99.2 75l-.4-.2c-.4 2 0 3.3-1 5 1.3-1.2.7-2.8 1.4-5" fill="#983412"/><path d="M100.5 54.7l.2 5.2h.4l-.3-11s0-.4-.2-.4c-.3 0-.3.3-.3.3l-.4 11h.5l.2-5.3z" fill="#ffbf3d"/><path d="M100.3 60h.4l-.2-5.3-.2 5.2z" fill="#983412"/><path d="M103 55c-1 1.8-.4 3.2-.8 5l.4.2c.4-1.8 0-3.4.8-5 1-2 .4-3.7.5-4.7 0-1 .8-1.2.6-1.4-.2 0-1 .3-1.3 1.6-.4 1.2.4 2-1 4.4-1 2.2-.4 3.3-1 5h.4c.7-2 .2-3.7 1.3-5" fill="#ffbf3d"/><path d="M101.7 60h.5c.4-1.8-.2-3.2.8-5-1 1.3-.6 3-1.3 5" fill="#983412"/><path d="M82 67.7l11 .4v-.4h-5.3l5.2-.3v-.5l-11 .4s-.4 0-.4.3c0 .2.3.2.3.2" fill="#ffbf3d"/><path d="M93 67.3l-5.3.2H93v-.2" fill="#983412"/><path d="M88 65c1.8 1 3.2.3 5 .8l.2-.5c-1.8-.4-3.3 0-5-.8-2-1-3.7-.4-4.6-.5-1 0-1.2-.8-1.5-.6 0 .2.4 1 1.6 1.3 1.2.3 2-.5 4.5.8 2.2 1 3.3.6 5 1v-.3c-2-.7-3.7-.2-5-1.3" fill="#ffbf3d"/><path d="M93 66.2v-.4c-1.8-.5-3.2 0-5-1 1.3 1.2 3 .7 5 1.4" fill="#983412"/><path d="M113.2 67.5H108v.6l11-.3s.4 0 .4-.2c0-.3-.4-.3-.4-.3l-11-.4v.5l5.2.2z" fill="#ffbf3d"/><path d="M108 67.3v.2h5.2l-5.2-.2z" fill="#983412"/><path d="M113 70c-1.8-1-3.3-.4-5.2-1v.6c1.7.4 3.3 0 5 .8 2 1 3.7.4 4.6.5 1 0 1.2.7 1.4.5.2-.2-.2-1-1.5-1.3-1.2-.3-2 .5-4.4-.8-2.2-1-3.4-.5-5-1v.3c2 .7 3.6.2 5 1.3" fill="#ffbf3d"/><path d="M108 68.7c0 .2 0 .3-.2.4 2 .6 3.4 0 5 1-1.2-1-2.8-.6-5-1.3" fill="#983412"/><path d="M91.5 76.5l3.5-3.8c0-.2-.2-.3-.3-.4l-7.5 8s-.3.3 0 .5c0 .2.3 0 .3 0l8-7.6s0-.2-.2-.3l-3.8 3.5z" fill="#ffbf3d"/><path d="M95.3 73c0-.2-.2-.3-.3-.3l-3.5 3.8 3.8-3.6z" fill="#983412"/><path d="M90 74.5c1.8-.6 2.4-2 4-3 0-.2 0-.3-.2-.4-1.5 1-2.3 2.5-4 3-2.3.7-3 2.4-3.7 3-.6.6-1.4.2-1.4.5s1 .6 2 0c1-.7 1-1.8 3.7-2.6 2.3-1 2.7-2 4.3-2.8l-.3-.4c-2 1-2.7 2.5-4.4 2.7" fill="#ffbf3d"/><path d="M94.3 71.8s0-.2-.2-.3c-1.6 1-2.2 2.4-4 3 1.6-.2 2.4-1.7 4.3-2.7" fill="#983412"/><path d="M109.5 58.5l-3.6 3.8.2.3 7.5-8s.3-.3 0-.5l-.3.2-8 7.5.3.3 3.8-3.5z" fill="#ffbf3d"/><path d="M105.7 62l.2.3 3.5-3.8-3.8 3.5z" fill="#983412"/><path d="M111 60.5c-2 .5-2.5 2-4 3v.4c1.7-1 2.5-2.6 4.2-3 2.2-.8 3-2.5 3.7-3 .6-.7 1.3-.3 1.3-.6s-.8-.6-2 0c-1 .7-1 1.8-3.7 2.6-2.2.8-2.6 2-4.2 2.7 0 0 0 .3.2.4 2-1 2.7-2.4 4.4-2.5" fill="#ffbf3d"/><path d="M106.6 63c0 .2.2.3.3.4 1.5-1 2-2.4 4-3-1.7.2-2.4 1.7-4.4 2.7" fill="#983412"/><path d="M91.5 58.5l3.8 3.5.3-.3-8-7.5s-.3-.3-.5 0l.2.3 7.5 8s.2 0 .3-.2l-3.5-3.8z" fill="#ffbf3d"/><path d="M95 62.3l.3-.3-3.8-3.5 3.5 3.8z" fill="#983412"/><path d="M93.5 57c.5 1.8 2 2.4 3 4l.4-.2c-1-1.5-2.5-2.3-3-4-.8-2.3-2.4-3-3-3.7-.7-.7-.3-1.4-.6-1.4s-.6 1 0 2c.8 1 1.8 1 2.7 3.7.8 2.3 2 2.7 2.7 4.3.2 0 .3-.2.4-.3-1-2-2.4-2.7-2.5-4.4" fill="#ffbf3d"/><path d="M96 61.3l.5-.2c-1-1.6-2.5-2.2-3-4 0 1.6 1.6 2.3 2.6 4.3" fill="#983412"/><path d="M109.5 76.5l-3.8-3.6-.4.2 8 7.5s.4.3.5 0c.2 0 0-.3 0-.3l-7.6-8s-.2 0-.3.3l3.5 3.8z" fill="#ffbf3d"/><path d="M106 72.7s-.2 0-.3.2l3.8 3.5-3.6-3.8z" fill="#983412"/><path d="M107.5 78c-.6-2-2-2.5-3-4.2l-.4.3c1 1.6 2.5 2.4 3 4.2.7 2.2 2.4 3 3 3.7.6.6.3 1.3.5 1.3.3 0 .6-.8 0-2-.7-1-1.8-1-2.6-3.7-.8-2.3-2-2.7-2.8-4.3l-.4.3c1 2 2.6 2.7 2.7 4.4" fill="#ffbf3d"/><path d="M104.8 73.6l-.3.2c1 1.7 2.4 2.3 3 4.2 0-1.7-1.7-2.4-2.7-4.4" fill="#983412"/><path d="M95.6 79.2l1.8-4.8-.4-.2-3.8 10.3s-.2.3 0 .4c.3 0 .4-.3.4-.3l4.6-10c-.2 0-.3 0-.4-.2l-2.2 4.7z" fill="#ffbf3d"/><path d="M97.8 74.5h-.4L95.6 79l2.2-4.7z" fill="#983412"/><path d="M93.4 78c1.6-1.3 1.6-2.8 2.7-4.4l-.3-.3c-1 1.5-1.2 3.2-2.7 4.4-1.7 1.4-1.8 3.2-2.2 4-.4 1-1.2 1-1 1 0 .4 1 .3 1.6-.7.8-1 .4-2 2.5-3.8 1.7-1.6 1.7-2.8 2.8-4 0-.2-.2-.3-.4-.4-1.4 1.7-1.5 3.4-3 4.2" fill="#ffbf3d"/><path d="M93.4 78c1.5-.8 1.6-2.5 3-4.2 0 0-.2 0-.3-.2-1 1.6-1 3-2.6 4.4" fill="#983412"/><path d="M105.3 55.7l-1.8 5h.4l3.8-10.3V50c-.3 0-.4.2-.4.2l-4.6 10 .4.2 2-4.7z" fill="#ffbf3d"/><path d="M103.2 60.4s.2 0 .3.2l1.8-5-2 4.8z" fill="#983412"/><path d="M107.6 57c-1.6 1.2-1.6 2.7-2.8 4.3.2 0 .3.2.4.3 1-1.5 1.3-3 2.7-4.3 1.7-1.5 1.7-3.3 2-4.2.5-.7 1.4-.6 1.3-1 0-.2-1 0-1.8 1s-.4 2-2.5 3.7c-1.8 1.6-1.7 2.8-3 4l.5.4c1.4-1.6 1.5-3.3 3-4" fill="#ffbf3d"/><path d="M107.6 57c-1.6.7-1.7 2.4-3 4 0 0 0 .2.2.3 1.2-1.6 1.2-3 2.8-4.4" fill="#983412"/><path d="M88.7 62.6l5 1.8V64l-10.3-4s-.3 0-.4.2l.2.4 10 4.6.2-.5-4.7-2z" fill="#ffbf3d"/><path d="M93.4 64.7s0-.2.2-.3l-5-1.8 4.8 2z" fill="#983412"/><path d="M90 60.4c1.2 1.5 2.7 1.6 4.3 2.7l.3-.3c-1.5-1-3-1.2-4.3-2.7-1.5-1.7-3.3-1.8-4-2.2-1-.4-1-1.2-1.2-1-.2 0 0 1 1 1.6 1 .8 2 .4 3.7 2.5 1.6 1.7 2.8 1.6 4 2.8.2 0 .3-.2.4-.4-1.6-1.4-3.3-1.5-4-3" fill="#ffbf3d"/><path d="M90 60.4c.7 1.5 2.4 1.6 4 3 .2 0 .2-.2.3-.3-1.6-1-3-1-4.3-2.6" fill="#983412"/><path d="M112.2 72.3l-4.8-1.8-.2.4 10.3 3.8h.4c0-.3-.3-.5-.3-.5l-10-4.6c0 .2 0 .3-.2.5l4.7 2z" fill="#ffbf3d"/><path d="M107.5 70.2v.3l4.7 1.8-4.7-2z" fill="#983412"/><path d="M111 74.5c-1.3-1.5-2.8-1.6-4.4-2.7 0 .2-.2.3-.3.4 1.5 1 3.2 1.3 4.4 2.7 1.4 1.7 3.2 1.7 4 2 1 .5 1 1.3 1 1.2.4 0 .3-1-.7-1.7-1-.8-2-.4-3.8-2.5-1.5-1.8-2.8-1.7-4-3-.2.2-.3.3-.3.5 1.5 1.4 3.2 1.5 4 3" fill="#ffbf3d"/><path d="M111 74.5c-.8-1.5-2.5-1.6-4-3-.2 0-.3.2-.4.3 1.6 1 3 1.2 4.4 2.7" fill="#983412"/><path d="M88.7 72.3l4.7-2v-.6L83 74.3s-.3.2-.2.4c0 .2.4 0 .4 0L93.8 71l-.2-.5-5 1.8z" fill="#ffbf3d"/><path d="M93.6 70.5s0-.2-.2-.3l-4.7 2 5-1.7z" fill="#983412"/><path d="M88 70c2 0 3-1 5-1.3v-.5c-1.8.4-3 1.4-5 1.2-2.3-.2-3.6 1-4.5 1.3-1 .3-1.4-.3-1.5 0-.2.3.6.8 1.8.6 1.3 0 1.7-1 4.5-1 2.3.3 3.2-.6 5-.7L93 69c-2 .3-3.4 1.4-5 1" fill="#ffbf3d"/><path d="M88 70c1.6.4 3-.7 5-1v-.3c-2 .4-3 1.4-5 1.2" fill="#983412"/><path d="M112.2 62.6l-4.7 2c0 .3 0 .4.2.6l10-4.6s.3-.2.2-.4c-.2-.2-.5 0-.5 0L107.2 64s0 .3.2.4l4.8-1.8z" fill="#ffbf3d"/><path d="M107.4 64.4v.3l4.8-2-4.8 1.7z" fill="#983412"/><path d="M113 65c-2-.2-3.2 1-5 1.2v.5c1.8-.4 3-1.4 5-1.2 2.2.2 3.5-1 4.4-1.3 1-.3 1.4.3 1.6 0 0-.2-.6-.8-2-.6-1 .2-1.5 1-4.3 1-2.4-.3-3.2.6-5 .7v.5c2.3-.2 3.6-1.3 5.2-.8" fill="#ffbf3d"/><path d="M113 65c-1.7-.5-3 .6-5.2.8v.4c2-.3 3-1.4 5-1.2" fill="#983412"/><path d="M95.6 55.7l2.2 4.7h.4L93.6 50s0-.3-.4-.2c-.2 0 0 .4 0 .4L97 60.8l.4-.2-1.8-5z" fill="#ffbf3d"/><path d="M97.4 60.6l.4-.2-2.2-4.7 1.8 5z" fill="#983412"/><path d="M98 55c-.2 2 1 3 1.2 5h.5c-.3-2-1.3-3-1.2-5 .2-2.3-1-3.6-1.3-4.5-.3-1 .3-1.4 0-1.5-.2-.2-.8.5-.6 1.8.2 1.3 1 1.6 1 4.4-.3 2.4.7 3.3.8 5h.4c-.2-2.3-1.3-3.6-.7-5.2" fill="#ffbf3d"/><path d="M98 55c-.5 1.6.6 3 .8 5h.4c-.3-2-1.4-3-1-5" fill="#983412"/><path d="M105.3 79.2l-2-4.7c-.3 0-.4 0-.5.2l4.6 10s0 .3.3.2c.2-.2 0-.5 0-.5L104 74.2c-.2 0-.3 0-.5.2l1.8 4.8z" fill="#ffbf3d"/><path d="M103.5 74.4h-.3l2 4.8-1.7-4.8z" fill="#983412"/><path d="M103 80c0-2-1-3.2-1.3-5h-.4c.3 1.8 1.3 3 1 5 0 2.2 1.2 3.5 1.5 4.4.3 1-.4 1.4 0 1.6.2 0 .7-.6.6-2-.2-1.2-1.2-1.5-1-4.3.2-2.4-.7-3.2-.8-5h-.5c.3 2.3 1.4 3.6 1 5.2" fill="#ffbf3d"/><path d="M103 80c.4-1.7-.7-3-1-5.2h-.3c.4 2 1.4 3 1.2 5" fill="#983412"/><path d="M100 65.2c.4 1 .3 2.2-.3 3.4l-.2-.2c.8-1 .8-2 .2-3-1-1-2.7-.7-4 .4 1.3-1.7 3-1.6 4.3-.6m5.2.6c-1.3-1-3-1.3-4-.4-.6 1-.5 2 .3 3 0 0-.2 0-.3.2-.6-1.2-.7-2.3-.3-3.4 1.2-1 3-1 4.2.6M102 67c-.6-.2-.6-.4-.5-.4l.7.4c.5.2 1.2.2 2.3-.2-1 .7-2 .7-2.5.3m-1.5 4.8c.5 0 1 .4 1 1v-.3h-.2c0-.2 0-.3-.2-.3l-.3-.2h-.2H100v.2c-.2 0-.3 0-.4.2 0 .2 0 .3-.2.4 0-.6.5-1 1-1-1.2 0-.6-.7-1.8-1 .5-.2.7-.7 1.3-.7l.5.2h.6c.6 0 1 .4 1.4.7-1.2 0-.7.8-2 .8m-4-5c1.2.4 2 .4 2.3.2l.7-.4s0 .2-.4.5c-.6.5-1.6.5-2.6-.2m1.5 0c-.6 0-1 0-1.5-.3.7-.8 2-1 2.7 0-.3.3-.8.4-1.3.4m3.7-.5c.6-1 2-.8 2.8 0-.4.3-1 .4-1.5.4s-1-.2-1.3-.5m1.4-1c1.3 0 2 1 2 1-.2 0-.8-.8-2-.8-.2 0-.6 0-1 .2l-.6.4s-.2 0 0-.2l.5-.3c.2-.3.4-.5 1-.5M99 69l.5.2.2-.4c0 .2.3.5.8.5.4 0 .7-.3.7-.4l.3.2s.3 0 .4-.3c0-.2 0-.4-.3-.5 0 0 .2 0 .3.2.2.3 0 .6 0 .7-.3.2-.7.2-.8 0h-.7-.7c-.2.2-.5.2-.8 0-.2 0-.3-.4 0-.7 0 0 0-.2.2-.2l-.2.4m-1.2-3.5c.8 0 1 .2 1.3.4l.7.2s0 .3-.2.2l-.7-.5c-.3-.3-.7-.3-1-.3-1 0-1.6.8-1.7.8 0 0 .6-1 1.8-1m-5 2v.6c.2 0 .2.2.2.2v.9l.2.6.2.6s0 .2.2.3c0 .2 0 .3.2.4 0 .2.2.3.3.5.2 0 .2.2.3.3l.3.4.4.5s.2 0 .3.2c0 0 .2 0 .3.2l.5.4.4.2c.2 0 .3.2.4.3l.2.2s.3 0 .4.2h.4c0 .2.2.2.4.3h.6l.4.2H101.8c.2 0 .3 0 .4-.2h.8c0-.2.2-.2.4-.3h.3l.4-.3.5-.4s.2 0 .3-.2c.2 0 .3-.2.4-.3l.5-.4c0-.2.2-.2.2-.3l.2-.4.4-.5.3-.3V71h.2c0-.2 0-.3.2-.5v-.3l.3-.5V69c.2 0 .2 0 .2-.3v-.4-.2-.4-.3-.5-.6s0-.3-.2-.4v-.5l-.3-.6v-.3c-.2 0-.3-.3-.3-.4l-.3-.6c-.2 0-.3-.2-.4-.3 0 0 0-.2-.2-.3h-.2c0-.2-.2-.3-.3-.4l-.3-.3-.4-.3-.5-.4-.3-.2s-.3 0-.4-.2l-.5-.2s-.2 0-.3-.2h-.4c0-.2 0-.2-.2-.2h-.4l-.5-.2h-.4-.2-.3-.2H99.2h-.4l-.4.2h-.2l-.4.2c-.2 0-.3 0-.4.2 0 0-.3 0-.4.2-.3 0-.4.2-.5.3-.2 0-.3.2-.4.3 0 0 0 .2-.3.3l-.4.4-.3.3-.3.3-.4.5c0 .2 0 .3-.2.4 0 .2 0 .3-.2.4v.2l-.2.4s0 .2-.2.3v.5H93v.6l-.2.4v1.3" fill="#ffbf3d"/><path d="M98.7 71c1.2-.4 1.4-.2 1.8-.2.3 0 .6-.2 1.7 0h.2c-.3 0-.5-.2-1-.4-.3-.3-.7 0-1 0-.2 0-.5-.3-1 0l-.8.5M97.4 66.4c0-.2 0-.3.2-.4-.4 0-.7.2-.7.4 0 .3.4.4.6.5l-.2-.6M98.3 66v.9c0-.2.4-.3.7-.5-.2-.3-.5-.4-.7-.5M103.3 66c.2 0 .3.2.3.4s-.2.4-.3.5c.3-.2.6-.3.8-.6 0-.2-.3-.4-.7-.4M102.5 66.4s0-.3.2-.4c-.3 0-.5.2-.7.5l.8.4-.3-.6" fill="#ffbf3d"/><path d="M100.5 71c-.5 0-.7-.3-1.8 0 1 0 .8.6 1.8.6s.7-.7 1.7-.7c-1-.3-1.3 0-1.7 0" fill="#ffbf3d"/><path d="M101 65.2c-.5 1-.4 2.2.2 3.4l.3-.2c-.8-1-1-2-.2-3 1-1 2.6-.7 4 .4-1.3-1.7-3-1.6-4.4-.6" fill="#983412"/><path d="M102 66l-.7.2v.2c.2 0 .5-.2.8-.5.4-.3.8-.3 1-.3 1.2 0 1.8.8 2 .8 0 0-.7-1-2-1-.6 0-.8.2-1 .4" fill="#983412"/><path d="M102 66.4l.7-.4h.6c.4 0 .7.2.8.4h.5c-.8-.7-2.2-.8-2.7 0h.2z" fill="#983412"/><path d="M103.6 66.4c0-.2 0-.3-.3-.4h-.3-.3l-.2.4c0 .2 0 .4.3.5h.5l.3-.6M103 67" fill="#983412"/><path d="M104.5 66.5h-.4c0 .2-.4.3-.7.4h-.5l-.8-.5h-.3c.3.3.8.4 1.3.4s1-.2 1.5-.5" fill="#983412"/><path d="M102.2 67l-.7-.4s0 .2.5.5c.6.5 1.6.5 2.5-.2-1 .4-1.8.4-2.3.2M100.5 69.5s.4 0 .7-.2c0 .3.5.3.7 0 0 0 .2-.3 0-.6l-.3-.2c.2 0 .3.3.2.4l-.5.2c-.2 0-.3-.2-.3-.4 0 .2-.3.5-.7.5v.2zM100.5 70.4c.2 0 .6-.3 1 0l1 .5c-.6-.4-1-1-1.4-1 0 0-.3 0-.5.2v.2zM100.5 70.8v.3c.4 0 .7-.3 1.7 0-1-.4-1.4-.2-1.7-.2" fill="#983412"/><path d="M102.2 71c-1 0-.7.6-1.7.6v.2c1.3 0 .7-.7 2-1h-.3M99.6 72.5s0 .2-.2.3c0 0 0-.2.2-.3M99.6 72.4l.3-.2c-.2 0-.3 0-.4.2M100 72h.3-.4M100.5 72h0M99.7 65.4c.6 1 .6 2-.2 3 0 0 .2 0 .2.2.6-1.2.7-2.3.3-3.4-1.3-1-3-1-4.3.6 1.3-1 3-1.3 4-.4" fill="#983412"/><path d="M97.8 65.7c.3 0 .7 0 1 .2l.7.4c.2 0 .2 0 .2-.2 0 0-.3 0-.6-.3s-.4-.5-1.2-.5c-1.2 0-2 1-1.7 1 .2 0 .8-.8 1.8-.8" fill="#983412"/><path d="M97.6 66h.6c.2 0 .5.2.7.5h.2c-.6-1-2-.8-2.7 0h.4c0-.3.2-.5.6-.5M98 67" fill="#983412"/><path d="M98.4 66.4V66h-.9l-.2.4c0 .2 0 .4.2.5h.6l.2-.6" fill="#983412"/><path d="M99.2 66.5H99l-.8.4h-.6l-.7-.6h-.5c.4.4 1 .5 1.4.5.4 0 1-.2 1.2-.5" fill="#983412"/><path d="M99 67c.5-.2.5-.4.4-.4l-.7.4c-.4.2-1 .2-2.3-.2 1 .7 2 .7 2.6.3M99 68.7c-.3.3-.2.6 0 .7.3.2.6.2.8 0h.7c-.5 0-.7-.4-.8-.6 0 .2 0 .3-.2.4-.2 0-.4 0-.5-.3 0-.2 0-.4.2-.5 0 0-.2 0-.3.2M99.5 70.4c.4-.3.7 0 1 0v-.2h-.6c-.7 0-1 .4-1.4.7l1-.6M100.5 71V71c-.4 0-.6-.2-1.8 0 1 0 1.3.3 1.8.3" fill="#983412"/><path d="M100.5 71.6c-1 0-.7-.7-1.8-.7 1 0 .5.8 1.8.8v-.2zM99.4 72.8s0-.2.2-.3c0-.2.2-.3.3-.3 0 0 0-.2.2-.2h.8v.2c.2 0 .2 0 .3.2l.2.4c0-.6-.5-1-1-1-.6 0-1 .4-1 1" fill="#983412"/></g></svg>