<svg viewBox="0 0 201 135" xmlns="http://www.w3.org/2000/svg" fill-rule="evenodd" clip-rule="evenodd" stroke-linejoin="round" stroke-miterlimit="1.4"><g fill-rule="nonzero"><path d="M176 43.6l-3-3.3-3.2 3.3.6-4.5-4.5-.3 3.8-2.3-2.5-3.8 4.2 1.6L173 30l1.3 4.2 4.2-1.6-2.5 3.8 4 2.3-4.6.4.6 4.6zm-13 14l-2.4-1.4-2.5 1.5.8-2.8-2.2-2 3-.2 1-2.7 1 2.8 3 .2-2.3 2 .7 2.7zm-9.4 32.5l-3-3.2-3.2 3.3.6-4.4-4.5-.4 4-2.3-2.6-4 4 1.7 1.5-4.3 1.4 4.3 4-1.6-2.4 4 4 2.2-4.6.4.6 4.5zm-25-39.7l-3.2-3.3-3 3.3.5-4.5-4.6-.4 4-2.3-2.6-3.7L124 41l1.4-4.4 1.4 4.3 4.2-1.7-2.5 3.8 4 2.4-4.6.4.5 4.5zM144.8 12l4 1.7 1.5-4.3 1.4 4.3 4-1.6-2.4 4 4 2.2-4.6.4.6 4.5-3-3.2-3.2 3.3.6-4.4-4.5-.4 4-2.3-2.6-4zM56.4 89l-6.5-7-6.5 7 1.3-9.4-9.5-.8 8.2-5-5.3-7.8 9 3.4 2.8-9 3 9 8.8-3.4-5.3 8 8.2 4.8-9.5.8 1.3 9.4zM183.3.5h-83v5L78 16.5h22.3v17H78l22.3 11V50H89L58.4 35V50H41.6V35L11 50H.2v67.5c0 9.3 7.7 17 17 17h166c9.4 0 17-7.7 17-17v-100c0-9.4-7.6-17-17-17M.3 33.4v10.8L22 33.4H.3zM3.6 7.4c-2 2.6-3 5.8-3.3 9.2H22L3.6 7.4zM41.6.5H17.3c-1.4 0-2.8 0-4 .5l28.3 14.2V.5zM87.8.5H58.4v14.7L87.8.5z" fill="#24297f"/><path d="M56.5 73.7l5.3-8-9 3.5-2.8-9-3 9-8.8-3.4 5.3 8-8.2 4.8 9.5.8-1.3 9.4 6.5-7 6.5 7-1.3-9.4 9.5-.8-8.2-5zM153.6 83l2.5-4-4 1.7-1.5-4.3-1.4 4.3-4-1.6 2.4 4-4 2.2 4.6.4-.6 4.5 3-3.2 3.2 3.3-.6-4.4 4.5-.4-4-2.3zM128.5 43l2.5-3.7-4.2 1.6-1.4-4.4L124 41l-4.2-1.7 2.5 3.8-4 2.4 4.6.4-.7 4.5 3-3.3 3.2 3.3-.6-4.5 4.4-.4-4-2.3zM148 18.6l-.6 4.5 3-3.2 3.2 3.3-.6-4.4 4.5-.4-4-2.3 2.6-4-4 1.7-1.5-4.3-1.4 4.3-4-1.6 2.4 4-4 2.2 4.6.4zM176 36.4l2.5-3.8-4.2 1.6L173 30l-1.5 4.2-4.2-1.6 2.5 3.8-4 2.3 4.6.4-.6 4.6 3-3.3 3.2 3.3-.6-4.5 4.5-.3-4-2.3zM161.7 52.8l-1-2.7-1.2 2.8-3 .2 2.3 2-.7 2.7 2.6-1.5 2.4 1.5-.6-2.8 2.2-2-3-.2zM28.7 30H.3v3.4H22l6.7-3.4zM58.4 15.2V.5H55v16.3l3.4-1.6zM100.3 20v-3.4H78L71.3 20h29zM78 33.4h22.3V30h-29l6.7 3.4zM55 50h3.4V35L55 33v17zM45 16.8V.5h-3.4v14.7l3.4 1.6zM22 16.6H.3V20h28.4L22 16.5zM41.6 34.8V50H45V33L41.6 35z" fill="#fff"/><path d="M55 30v3l3.4 1.8L89 50h11.3L66.8 33.5h7.4l26 13v-2L78 33.5 71.3 30H55zM28.7 20H45v-3.2l-3.4-1.6L13.2 1c-2 .5-4 1.4-5.8 2.7l25.8 13h-7.5L4.7 6l-1 1.4L22 16.6l6.7 3.3zM55 16.8v3h16.3l6.7-3.2 22.3-11v-5H99l-32.2 16h-7.5L91.5.6h-3.7L58.4 15 55 16.8zM40.7 33.4L7.2 50H11L41.6 35 45 33v-3H28.7L22 33.4.3 44.2v5.6l33-16.4h7.4z" fill="#fff"/><path d="M45 30v20h10V30h45.3V20H55V.4H45V20H.3v10H45z" fill="#ff2b2d"/><path d="M33.2 16.6L7.4 3.6c-1 .8-2 1.6-2.7 2.5l21 10.6h7.5zM66.8 16.6L99 .6h-7.5l-32.2 16h7.5zM66.8 33.4L100.3 50v-3.6l-26-13h-7.5zM40.7 33.4h-7.5L.2 49.8v.3h7l33.5-16.6z" fill="#ff2b2d"/></g></svg>