<?xml version="1.0" encoding="UTF-8" standalone="no"?><!DOCTYPE svg PUBLIC "-//W3C//DTD SVG 1.1//EN" "http://www.w3.org/Graphics/SVG/1.1/DTD/svg11.dtd"><svg width="100%" height="100%" viewBox="0 0 201 135" version="1.1" xmlns="http://www.w3.org/2000/svg" xmlns:xlink="http://www.w3.org/1999/xlink" xml:space="preserve" style="fill-rule:evenodd;clip-rule:evenodd;stroke-linejoin:round;stroke-miterlimit:1.41421;"><g id="Britain"><path d="M116.877,134.455l58.627,0l-58.627,-40.246l0,40.246Z" style="fill:#1a3179;fill-rule:nonzero;"/><path d="M0.168,89.443l0,28.012c0,1.068 0.109,2.109 0.299,3.123l44.783,-30.399l-45.082,-0.736Z" style="fill:#1a3179;fill-rule:nonzero;"/><path d="M0.471,14.303c-0.192,1.023 -0.303,2.074 -0.303,3.152l0,26.619l44.736,0.731l-44.433,-30.502Z" style="fill:#1a3179;fill-rule:nonzero;"/><path d="M177.426,0.455l-60.549,0l0,41.104l60.549,-41.104Z" style="fill:#1a3179;fill-rule:nonzero;"/><path d="M200.168,44.074l0,-26.619c0,-1.078 -0.111,-2.131 -0.305,-3.154l-44.433,30.503l44.738,-0.73Z" style="fill:#1a3179;fill-rule:nonzero;"/><path d="M199.869,120.58c0.187,-1.016 0.299,-2.057 0.299,-3.125l0,-28.012l-45.084,0.737l44.785,30.4Z" style="fill:#1a3179;fill-rule:nonzero;"/><path d="M83.459,0.455l-60.551,0l60.551,41.104l0,-41.104Z" style="fill:#1a3179;fill-rule:nonzero;"/><path d="M24.83,134.455l58.629,0l0,-40.246l-58.629,40.246Z" style="fill:#1a3179;fill-rule:nonzero;"/><path d="M83.459,41.559l-60.551,-41.104l-5.74,0c-3.758,0 -7.219,1.235 -10.031,3.297l59.613,41.68l-14.945,0l-49.988,-35.242c-0.614,1.291 -1.075,2.668 -1.346,4.113l44.433,30.502l-44.736,-0.73l0,9.074l58.172,0.879l31.803,0.478l0,-8.41l0,-45.641l-6.684,0l0,41.104Z" style="fill:#fff;fill-rule:nonzero;"/><path d="M110.193,81.727l0,52.728l6.684,0l0,-40.246l58.627,40.246l7.664,0c4.107,0 7.877,-1.457 10.816,-3.884l-60.396,-39.768l14.943,0l50.432,32.91c0.398,-1.002 0.703,-2.048 0.906,-3.133l-44.785,-30.4l45.084,-0.736l0,-9.073l-58.241,0.877l-31.734,0.479Z" style="fill:#fff;fill-rule:nonzero;"/><path d="M0.168,80.371l0,9.072l45.082,0.737l-44.783,30.398c0.742,3.996 2.871,7.506 5.885,9.992l60.398,-39.767l14.945,0l-64.308,43.652l7.443,0l58.629,-40.246l0,40.246l6.684,0l0,-44.834l0,-7.894l-31.739,-0.479l-58.236,-0.877Z" style="fill:#fff;fill-rule:nonzero;"/><path d="M155.43,44.805l44.434,-30.504c-0.811,-4.316 -3.254,-8.047 -6.664,-10.549l-59.612,41.68l-14.949,0l64.33,-44.977l-5.543,0l-60.549,41.104l0,-41.104l-6.683,0l0,54.051l31.8,-0.478l58.174,-0.879l0,-9.074l-44.738,0.73Z" style="fill:#fff;fill-rule:nonzero;"/><path d="M141.994,54.027l-31.801,0.479l0,-8.413l0,-45.638l-20.051,0l0,54.051l-31.802,-0.479l-58.172,-0.879l0,27.223l58.236,0.877l31.738,0.478l0,52.729l20.051,0l0,-44.834l0,-7.895l31.735,-0.478l58.24,-0.877l0,-27.223l-58.174,0.879Z" style="fill:#ff2b2d;fill-rule:nonzero;"/><path d="M51.805,45.432l14.945,0l-59.613,-41.68c-2.27,1.664 -4.103,3.871 -5.32,6.438l49.988,35.242Z" style="fill:#ff2b2d;fill-rule:nonzero;"/><path d="M118.639,45.432l14.949,0l59.612,-41.68c-2.815,-2.062 -6.276,-3.297 -10.032,-3.297l-0.199,0l-64.33,44.977Z" style="fill:#ff2b2d;fill-rule:nonzero;"/><path d="M133.588,90.803l60.396,39.768c2.194,-1.811 3.913,-4.168 4.979,-6.858l-50.432,-32.91l-14.943,0Z" style="fill:#ff2b2d;fill-rule:nonzero;"/><path d="M66.75,90.803l-60.399,39.768c2.938,2.427 6.707,3.884 10.817,3.884l0.219,0l64.308,-43.652l-14.945,0Z" style="fill:#ff2b2d;fill-rule:nonzero;"/></g></svg>