<?xml version="1.0" encoding="UTF-8" standalone="no"?><!DOCTYPE svg PUBLIC "-//W3C//DTD SVG 1.1//EN" "http://www.w3.org/Graphics/SVG/1.1/DTD/svg11.dtd"><svg width="100%" height="100%" viewBox="0 0 201 135" version="1.1" xmlns="http://www.w3.org/2000/svg" xmlns:xlink="http://www.w3.org/1999/xlink" xml:space="preserve" style="fill-rule:evenodd;clip-rule:evenodd;stroke-linejoin:round;stroke-miterlimit:1.41421;"><g id="Canada"><path d="M183.331,0.455l-32.441,0l0,134l32.441,0c9.389,0 17,-7.61 17,-17l0,-100c0,-9.389 -7.611,-17 -17,-17" style="fill:#ff1c1f;fill-rule:nonzero;"/><path d="M17.331,0.455c-9.389,0 -17,7.611 -17,17l0,100c0,9.39 7.611,17 17,17l32.442,0l0,-134l-32.442,0Z" style="fill:#ff1c1f;fill-rule:nonzero;"/><path d="M102.634,89.074c-0.557,-0.007 -1.396,0.531 -1.391,1.202l0.481,19.997l-3.05,0l0.83,-20.04c0.003,-0.671 -0.92,-1.166 -1.477,-1.159c-6.272,0.756 -11.896,1.433 -18.166,2.188l1.593,-5.47c0.257,-0.953 -0.107,-2.006 -0.828,-2.59l-18.215,-15.469l3.772,-1.853c1.66,-0.62 1.195,-1.594 0.599,-3.945l-2.777,-10.564l10.58,2.326c1.033,0.163 1.722,-0.523 1.879,-1.176l1.359,-4.973l8.369,9.793c1.188,1.568 3.6,1.568 2.848,-2.056l-3.574,-19.837l4.796,2.596c1.347,0.783 2.693,0.914 3.443,-0.491l6.623,-12.914l6.627,12.914c0,0 2.097,1.274 3.445,0.491l4.794,-2.596l-3.574,19.837c-0.752,3.624 1.66,3.624 2.85,2.056l8.369,-9.793l1.357,4.973c0.158,0.653 0.846,1.339 1.879,1.176l10.581,-2.326l-2.779,10.564c-0.594,2.351 -1.059,3.325 0.6,3.945l3.773,1.853l-18.216,15.469c-0.72,0.584 -1.086,1.637 -0.83,2.59l1.597,5.47c-6.273,-0.755 -11.896,-1.432 -18.167,-2.188M49.774,134.456l101.116,0l0,-134l-101.116,0l0,134Z" style="fill:#fafafa;fill-rule:nonzero;"/><path d="M120.034,83.202l18.216,-15.469l-3.774,-1.853c-1.659,-0.62 -1.193,-1.594 -0.599,-3.945l2.779,-10.564l-10.581,2.326c-1.033,0.163 -1.722,-0.522 -1.879,-1.176l-1.357,-4.973l-8.37,9.794c-1.189,1.567 -3.601,1.567 -2.849,-2.057l3.574,-19.837l-4.795,2.596c-1.347,0.783 -3.444,-0.49 -3.444,-0.49l-6.627,-12.915l-6.623,12.915c-0.75,1.404 -2.097,1.273 -3.443,0.49l-4.796,-2.596l3.574,19.837c0.752,3.624 -1.66,3.624 -2.849,2.057l-8.368,-9.794l-1.359,4.973c-0.158,0.654 -0.846,1.339 -1.879,1.176l-10.58,-2.326l2.777,10.564c0.596,2.351 1.061,3.325 -0.6,3.945l-3.771,1.853l18.215,15.469c0.72,0.584 1.085,1.637 0.828,2.59l-1.594,5.47c6.271,-0.755 11.895,-1.432 18.166,-2.188c0.558,-0.007 1.481,0.488 1.478,1.159l-0.83,20.04l3.049,0l-0.48,-19.997c-0.006,-0.671 0.834,-1.209 1.391,-1.202c6.271,0.756 11.894,1.433 18.167,2.188l-1.597,-5.47c-0.256,-0.953 0.109,-2.006 0.83,-2.59" style="fill:#ff1c1f;fill-rule:nonzero;"/></g></svg>