<?xml version="1.0" encoding="UTF-8" standalone="no"?><!DOCTYPE svg PUBLIC "-//W3C//DTD SVG 1.1//EN" "http://www.w3.org/Graphics/SVG/1.1/DTD/svg11.dtd"><svg width="100%" height="100%" viewBox="0 0 201 135" version="1.1" xmlns="http://www.w3.org/2000/svg" xmlns:xlink="http://www.w3.org/1999/xlink" xml:space="preserve" style="fill-rule:evenodd;clip-rule:evenodd;stroke-linejoin:round;stroke-miterlimit:1.41421;"><g id="China"><path d="M84.623,52.358l-4.055,-2.729l-3.845,3.012l1.341,-4.697l-4.052,-2.729l4.882,-0.175l1.342,-4.698l1.676,4.589l4.883,-0.175l-3.848,3.013l1.676,4.589ZM77.518,20.852l3.4,3.507l4.387,-2.152l-2.284,4.32l3.401,3.506l-4.813,-0.838l-2.283,4.319l-0.691,-4.836l-4.815,-0.838l4.387,-2.151l-0.689,-4.837ZM68.967,15.127l-0.43,4.867l-2.514,-4.19l-4.759,1.097l3.207,-3.687l-2.514,-4.188l4.496,1.912l3.207,-3.685l-0.429,4.867l4.496,1.912l-4.76,1.095ZM68.391,67.022l-2.506,-4.042l-4.475,1.227l2.951,-3.688l-2.707,-4.368l3.635,1.483l0.906,0.342l3.135,-3.71l-0.004,0.047l0.076,-0.094l-0.232,5l4.324,1.767l-4.744,1.164l-0.359,4.872ZM45.264,49.934l-11.856,-8.615l-11.857,8.615l4.527,-13.938l-11.857,-8.616l14.658,0l4.529,-13.939l4.53,13.939l14.656,0l-11.858,8.616l4.528,13.938ZM183.652,0.236l-166,0c-9.388,0 -17,7.61 -17,17l0,100c0,9.389 7.612,17 17,17l166,0c9.389,0 17,-7.611 17,-17l0,-100c0,-9.39 -7.611,-17 -17,-17" style="fill:#ff3127;fill-rule:nonzero;"/><path d="M37.937,27.381l-4.529,-13.939l-4.53,13.939l-14.658,0l11.858,8.615l-4.528,13.939l11.858,-8.616l11.855,8.616l-4.527,-13.939l11.857,-8.615l-14.656,0Z" style="fill:#ffdf00;fill-rule:nonzero;"/><path d="M69.66,7.253l-3.207,3.685l-4.496,-1.912l2.514,4.189l-3.207,3.686l4.759,-1.096l2.514,4.189l0.43,-4.867l4.759,-1.095l-4.496,-1.912l0.43,-4.867Z" style="fill:#ffdf00;fill-rule:nonzero;"/><path d="M78.634,28.678l0.691,4.836l2.283,-4.319l4.813,0.837l-3.4,-3.505l2.283,-4.321l-4.387,2.153l-3.4,-3.507l0.689,4.837l-4.387,2.151l4.815,0.838Z" style="fill:#ffdf00;fill-rule:nonzero;"/><path d="M86.794,44.756l-4.883,0.175l-1.676,-4.589l-1.341,4.697l-4.883,0.176l4.053,2.729l-1.342,4.697l3.845,-3.012l4.055,2.729l-1.676,-4.589l3.848,-3.013Z" style="fill:#ffdf00;fill-rule:nonzero;"/><path d="M69.402,54.219l-0.076,0.094l0.004,-0.047l-3.135,3.71l-0.906,-0.342l-3.635,-1.483l2.707,4.368l-2.951,3.687l4.475,-1.226l2.505,4.042l0.36,-4.872l4.744,-1.164l-4.324,-1.767l0.232,-5Z" style="fill:#ffdf00;fill-rule:nonzero;"/></g></svg>