<?xml version="1.0" encoding="UTF-8" standalone="no"?><!DOCTYPE svg PUBLIC "-//W3C//DTD SVG 1.1//EN" "http://www.w3.org/Graphics/SVG/1.1/DTD/svg11.dtd"><svg width="100%" height="100%" viewBox="0 0 201 135" version="1.1" xmlns="http://www.w3.org/2000/svg" xmlns:xlink="http://www.w3.org/1999/xlink" xml:space="preserve" style="fill-rule:evenodd;clip-rule:evenodd;stroke-linejoin:round;stroke-miterlimit:1.41421;"><g id="Greece"><rect x="0.987" y="44.856" width="29.129" height="29.841" style="fill:#222677;fill-rule:nonzero;"/><path d="M17.987,134.236l166,0c8.635,0 15.748,-6.441 16.84,-14.779l-199.678,0c1.09,8.338 8.203,14.779 16.838,14.779" style="fill:#222677;fill-rule:nonzero;"/><path d="M74.876,29.936l0,-14.921l125.951,0c-1.092,-8.337 -8.205,-14.779 -16.84,-14.779l-138.953,0l0,29.7l29.842,0Z" style="fill:#222677;fill-rule:nonzero;"/><path d="M30.116,0.236l-12.129,0c-9.389,0 -17,7.611 -17,17l0,12.7l29.129,0l0,-29.7Z" style="fill:#222677;fill-rule:nonzero;"/><path d="M0.987,89.617l0,14.92l200,0l0,-14.92l-73.891,0l-126.109,0Z" style="fill:#222677;fill-rule:nonzero;"/><rect x="74.875" y="29.936" width="126.111" height="14.92" style="fill:#222677;fill-rule:nonzero;"/><path d="M74.876,44.856l-29.842,0l0,29.841l155.953,0l0,-14.921l-126.111,0l0,-14.92Z" style="fill:#222677;fill-rule:nonzero;"/><path d="M0.987,117.236c0,0.755 0.066,1.492 0.162,2.221l199.678,0c0.094,-0.729 0.16,-1.466 0.16,-2.221l0,-12.699l-200,0l0,12.699Z" style="fill:#fff;fill-rule:nonzero;"/><path d="M74.876,15.015l0,14.921l126.111,0l0,-12.7c0,-0.754 -0.066,-1.492 -0.16,-2.221l-125.951,0Z" style="fill:#fff;fill-rule:nonzero;"/><rect x="74.875" y="44.856" width="126.111" height="14.92" style="fill:#fff;fill-rule:nonzero;"/><path d="M45.034,74.697l0,-29.841l29.842,0l0,-14.92l-29.842,0l0,-29.7l-14.918,0l0,29.7l-29.129,0l0,14.92l29.129,0l0,29.841l-29.129,0l0,14.92l200,0l0,-14.92l-73.89,0l-82.063,0Z" style="fill:#fff;fill-rule:nonzero;"/></g></svg>