<?xml version="1.0" encoding="UTF-8" standalone="no"?><!DOCTYPE svg PUBLIC "-//W3C//DTD SVG 1.1//EN" "http://www.w3.org/Graphics/SVG/1.1/DTD/svg11.dtd"><svg width="100%" height="100%" viewBox="0 0 293 136" version="1.1" xmlns="http://www.w3.org/2000/svg" xmlns:xlink="http://www.w3.org/1999/xlink" xml:space="preserve" style="fill-rule:evenodd;clip-rule:evenodd;stroke-linecap:round;stroke-linejoin:round;stroke-miterlimit:1.41421;"><g id="collaboration"><g id="window"><path d="M250.351,8.679c0,-3.628 -2.945,-6.573 -6.573,-6.573l-195.472,0c-3.628,0 -6.573,2.945 -6.573,6.573l0,118.305c0,3.627 2.945,6.572 6.573,6.572l195.472,0c3.628,0 6.573,-2.945 6.573,-6.572l0,-118.305Z" style="fill:#d9d9d9;"/><path d="M250.351,128.556c0,1.327 -0.527,2.598 -1.465,3.536c-0.937,0.938 -2.209,1.464 -3.535,1.464c-28.496,0 -170.122,0 -198.618,0c-1.326,0 -2.598,-0.526 -3.536,-1.464c-0.937,-0.938 -1.464,-2.209 -1.464,-3.536c0,-22.857 0,-116.293 0,-116.293l208.618,0c0,0 0,93.436 0,116.293Z" style="fill:#f2f2f2;"/><rect x="61.15" y="28.493" width="80.592" height="8.083" style="fill:#d9d9d9;"/><rect x="61.15" y="46.344" width="35.566" height="8.083" style="fill:#d9d9d9;"/><rect x="61.15" y="82.047" width="35.566" height="8.083" style="fill:#d9d9d9;"/><rect x="61.15" y="99.898" width="169.784" height="8.083" style="fill:#d9d9d9;"/><rect x="61.15" y="64.196" width="89.192" height="8.083" style="fill:#d9d9d9;"/><rect x="160.11" y="64.196" width="70.824" height="8.083" style="fill:#d9d9d9;"/><rect x="150.342" y="28.493" width="80.592" height="8.083" style="fill:#d9d9d9;"/><rect x="106.485" y="46.344" width="124.449" height="8.083" style="fill:#d9d9d9;"/><rect x="106.485" y="82.047" width="124.449" height="8.083" style="fill:#d9d9d9;"/></g><g id="gal"><circle cx="42.692" cy="93.155" r="40.402" style="fill:#fff;stroke-width:2px;stroke:#7ed321;"/><path d="M65.708,125.507c-2.612,-10.276 -11.932,-17.887 -23.016,-17.887c-11.084,0 -20.405,7.611 -23.017,17.887M66.438,107.62l0,-17.759c0,-1.818 -0.204,-3.588 -0.613,-5.285l-0.019,-0.08c-2.415,-10.528 -11.855,-18.381 -23.114,-18.381c-5.03,0 -9.696,1.567 -13.55,4.269l-0.091,0.064c-6.104,4.266 -10.106,11.376 -10.106,19.413c0,13.106 0,17.759 0,17.759l23.747,0c-9.802,0 -17.76,-7.958 -17.76,-17.759c0,-5.236 2.271,-9.946 5.911,-13.198c3.511,7.79 11.342,13.198 20.427,13.198c3.231,0 6.304,-0.684 9.071,-1.934c0.075,0.634 0.11,1.28 0.11,1.934c0,9.802 -7.958,17.759 -17.759,17.759l23.746,0Z" style="fill:none;stroke-width:2px;stroke:#7ed321;"/></g><g id="guy"><circle cx="250.662" cy="42.45" r="40.402" style="fill:#fff;stroke-width:2px;stroke:#7ed321;"/><path d="M273.288,76.093c-3.059,-9.579 -12.038,-16.524 -22.626,-16.524c-10.588,0 -19.567,6.945 -22.626,16.524M268.655,34.732c0,-7.346 -5.954,-13.3 -13.299,-13.3c-10.87,0 -24.451,0 -24.451,0c0,0 0,0 0,0.001c0,3.598 1.429,6.863 3.751,9.258c-1.818,2.9 -2.869,6.33 -2.869,10.003c0,10.417 8.457,18.875 18.875,18.875c10.418,0 18.875,-8.458 18.875,-18.875c0,-2.083 -0.338,-4.088 -0.962,-5.962l-24.371,0c-3.746,0 -7.131,-1.549 -9.548,-4.041" style="fill:none;stroke-width:2px;stroke-linecap:butt;stroke:#7ed321;"/></g></g></svg>