<?xml version="1.0" encoding="UTF-8" standalone="no"?><!DOCTYPE svg PUBLIC "-//W3C//DTD SVG 1.1//EN" "http://www.w3.org/Graphics/SVG/1.1/DTD/svg11.dtd"><svg width="100%" height="100%" viewBox="0 0 257 137" version="1.1" xmlns="http://www.w3.org/2000/svg" xmlns:xlink="http://www.w3.org/1999/xlink" xml:space="preserve" style="fill-rule:evenodd;clip-rule:evenodd;stroke-linecap:round;stroke-linejoin:round;stroke-miterlimit:1.41421;"><g id="Teaching"><g id="window"><path d="M208.618,16.858c0,-3.311 -2.689,-6 -6,-6l-196.618,0c-3.311,0 -6,2.689 -6,6l0,108c0,3.312 2.689,6 6,6l196.618,0c3.311,0 6,-2.688 6,-6l0,-108Z" style="fill:#f2f2f2;"/><g><rect x="19.417" y="31.114" width="80.592" height="8.083" style="fill:#d9d9d9;"/><rect x="19.417" y="48.965" width="35.566" height="8.083" style="fill:#d9d9d9;"/><rect x="19.417" y="84.668" width="35.566" height="8.083" style="fill:#d9d9d9;"/><rect x="19.417" y="102.519" width="169.784" height="8.083" style="fill:#d9d9d9;"/><rect x="19.417" y="66.817" width="89.192" height="8.083" style="fill:#d9d9d9;"/><rect x="118.377" y="66.817" width="70.824" height="8.083" style="fill:#d9d9d9;"/><rect x="108.609" y="31.114" width="80.592" height="8.083" style="fill:#d9d9d9;"/><rect x="64.752" y="48.965" width="124.449" height="8.083" style="fill:#d9d9d9;"/><rect x="64.752" y="84.668" width="124.449" height="8.083" style="fill:#d9d9d9;"/></g></g><g id="teacher"><path d="M165.183,99.91c0,0 4.798,9.444 8.462,10.414c4.876,1.291 7.81,-1.953 7.81,-1.953l0,16.923c0,0 -5.475,0.315 -11.065,-2.604c-7.148,-3.732 -12.366,-18.875 -12.366,-18.875l7.159,-3.905Z" style="fill:#fff;stroke-width:2px;stroke:#f5a622;"/><g id="body"><path id="body1" d="M242.564,135.217l-65.529,0c0,0 -0.195,-8.482 -0.195,-11.338c0,-10.566 5.016,-19.97 12.794,-25.959c5.525,-4.255 12.445,-6.786 19.951,-6.786c18.073,0 32.745,14.672 32.745,32.745l0.234,11.338Z" style="fill:#fff;stroke-width:2px;stroke:#f5a622;"/><path d="M202.734,91.134l13.703,0c0,0 0,5.917 0,8.454c0,4.417 -3.07,8.003 -6.852,8.003c-3.781,0 -6.851,-3.586 -6.851,-8.003c0,-4.417 0,-8.454 0,-8.454Z" style="fill:#fff;stroke-width:2px;stroke:#f5a622;"/></g><g><path d="M133.71,49.009l-3.621,2.091l23.418,40.562l3.621,-2.091l-23.418,-40.562Z" style="fill:#fff;stroke-width:2px;stroke:#f5a622;"/><path d="M157.128,89.571c0,0 -1.623,0.937 -3.38,1.951c-2.391,1.381 -3.21,4.439 -1.83,6.831c0.477,0.826 0.977,1.691 1.454,2.517c1.38,2.391 4.438,3.211 6.83,1.83c1.756,-1.014 3.38,-1.952 3.38,-1.952l-6.454,-11.177Z" style="fill:#fff;stroke-width:2px;stroke:#f5a622;"/><path d="M165.548,93.874c-1.372,-2.376 -4.411,-3.19 -6.787,-1.818c-0.095,0.055 -0.149,0.086 -0.149,0.086l4.97,8.606c0,0 0.053,-0.03 0.148,-0.085c2.377,-1.372 3.191,-4.411 1.819,-6.787c-0.001,-0.001 -0.001,-0.001 -0.001,-0.002Z" style="fill:#fff;stroke-width:2px;stroke:#f5a622;"/></g><g id="head"><path d="M175.404,72.737c-1.93,1.88 -11,-12.406 -11,-25.051c0,-25 20.297,-45.298 45.298,-45.298c25.001,0 45.298,20.298 45.298,45.298c0,12.164 -8.393,25.229 -10.749,24.525c-6.071,13.001 -19.265,22.018 -34.549,22.018c-15.077,0 -28.121,-8.775 -34.298,-21.492Z" style="fill:#fff;stroke-width:2px;stroke:#f5a622;"/><path d="M243.972,71.876c0,-4.885 -1.356,-23.698 -3.249,-27.909c-4.886,1.644 -10.247,2.523 -15.862,2.523c-15.002,0 -28.195,-6.273 -35.698,-15.742c-8.152,6.182 -13.731,30.825 -13.731,41.822" style="fill:#fff;stroke-width:2px;stroke:#f5a622;"/><g><circle cx="223.442" cy="61.231" r="10.318" style="fill:#fff;stroke-width:2px;stroke:#f5a622;"/><path d="M243.642,61.231l-9.882,0" style="fill:none;stroke-width:2px;stroke-linecap:butt;stroke:#f5a622;"/></g><circle cx="223.442" cy="61.231" r="2.629" style="fill:#f5a622;"/><circle cx="195.962" cy="61.231" r="2.629" style="fill:#f5a622;"/><g><circle cx="195.962" cy="61.231" r="10.318" style="fill:none;stroke-width:2px;stroke:#f5a622;"/><path d="M176.421,61.162l9.223,0.069" style="fill:none;stroke-width:2px;stroke-linecap:butt;stroke:#f5a622;"/></g><path d="M206.28,58.027l6.844,0c0,0 0,8.589 0,9.656c0,2.134 -1.534,3.866 -3.422,3.866c-1.889,0 -3.422,-1.732 -3.422,-3.866c0,-2.134 0,-9.656 0,-9.656Z" style="fill:#fff;stroke-width:2px;stroke:#f5a622;"/><path d="M219.005,75.057l-18.606,0c0,0 0,1.512 0,3.496c0,5.137 4.165,9.302 9.302,9.302l0.002,0c5.137,0 9.302,-4.165 9.302,-9.302c0,-1.984 0,-3.496 0,-3.496Z" style="fill:none;stroke-width:2px;stroke:#f5a622;"/></g></g></g></svg>