<?xml version="1.0" encoding="UTF-8" standalone="no"?><!DOCTYPE svg PUBLIC "-//W3C//DTD SVG 1.1//EN" "http://www.w3.org/Graphics/SVG/1.1/DTD/svg11.dtd"><svg width="100%" height="100%" viewBox="0 0 282 136" version="1.1" xmlns="http://www.w3.org/2000/svg" xmlns:xlink="http://www.w3.org/1999/xlink" xml:space="preserve" style="fill-rule:evenodd;clip-rule:evenodd;stroke-linecap:round;stroke-linejoin:round;stroke-miterlimit:1.41421;"><g><g><path d="M185.623,23.029c7.652,9.018 24.719,15.301 44.524,15.301c7.18,0 14,-0.826 20.142,-2.308c2.307,5.096 3.591,10.752 3.591,16.705c0,22.405 -18.189,40.595 -40.594,40.595c-22.404,0 -40.594,-18.19 -40.594,-40.595c0,-11.719 4.977,-22.285 12.931,-29.698Z" style="fill:#fff;stroke-width:1.69px;stroke:#d9534f;"/><g><g><circle cx="197.331" cy="55.92" r="3.395" style="fill:#d9534f;"/><path d="M190.548,52.525c-0.032,-0.266 -0.048,-0.538 -0.048,-0.813c0,-3.77 3.061,-6.831 6.831,-6.831c3.77,0 6.831,3.061 6.831,6.831c0,0.275 -0.016,0.547 -0.048,0.813" style="fill:none;stroke-width:1.5px;stroke:#d9534f;"/><path d="M188.053,51.625l1.948,1.087" style="fill:none;stroke-width:2px;stroke:#d9534f;"/><path d="M188.053,48.586l1.948,1.087" style="fill:none;stroke-width:2px;stroke:#d9534f;"/></g><g><circle cx="229.242" cy="55.92" r="3.395" style="fill:#d9534f;"/><path d="M236.025,52.525c0.031,-0.266 0.048,-0.538 0.048,-0.813c0,-3.77 -3.061,-6.831 -6.831,-6.831c-3.771,0 -6.832,3.061 -6.832,6.831c0,0.275 0.017,0.547 0.048,0.813" style="fill:none;stroke-width:1.5px;stroke:#d9534f;"/><path d="M238.519,51.625l-1.948,1.087" style="fill:none;stroke-width:2px;stroke:#d9534f;"/><path d="M238.519,48.586l-1.948,1.087" style="fill:none;stroke-width:2px;stroke:#d9534f;"/></g></g><path d="M213.286,2.493c27.668,0 50.131,22.463 50.131,50.131c0,16.5 0,50.131 0,50.131l-100.262,0c0,0 0,-22.463 0,-50.131c0,-27.668 22.463,-50.131 50.131,-50.131Z" style="fill:none;stroke-width:2px;stroke:#d9534f;"/><path d="M281.453,77.37c0,-4.419 -3.582,-8 -8,-8c-24.156,0 -96.177,0 -120.334,0c-4.418,0 -8,3.581 -8,8c0,17.522 0,57.742 0,57.742l136.334,0c0,0 0,-40.22 0,-57.742Z" style="fill:#f2f2f2;"/><circle cx="213.286" cy="102.241" r="4.013" style="fill:#d9d9d9;"/></g><g><path d="M107.818,39.898c0,-15.799 -12.807,-28.607 -28.606,-28.607c-23.381,0 -52.593,0 -52.593,0c0,0 0,0.001 0,0.002c0,7.74 3.074,14.763 8.068,19.913c-3.91,6.239 -6.171,13.615 -6.171,21.516c0,22.407 18.192,40.6 40.599,40.6c22.408,0 40.6,-18.193 40.6,-40.6c0,-4.48 -0.727,-8.792 -2.07,-12.823l-52.42,0c-8.058,0 -15.338,-3.332 -20.538,-8.693" style="fill:none;stroke-width:2px;stroke-linecap:butt;stroke:#d9534f;"/><g><circle cx="51.591" cy="55.92" r="3.395" style="fill:#d9534f;"/><circle cx="84.743" cy="55.92" r="3.395" style="fill:#d9534f;"/><path d="M44.808,52.525c-0.032,-0.266 -0.048,-0.538 -0.048,-0.813c0,-3.77 3.06,-6.831 6.831,-6.831c3.77,0 6.831,3.061 6.831,6.831c0,0.275 -0.017,0.547 -0.048,0.813" style="fill:none;stroke-width:1.5px;stroke:#d9534f;"/><path d="M77.96,52.525c-0.031,-0.266 -0.048,-0.538 -0.048,-0.813c0,-3.77 3.061,-6.831 6.831,-6.831c3.771,0 6.832,3.061 6.832,6.831c0,0.275 -0.017,0.547 -0.049,0.813" style="fill:none;stroke-width:1.5px;stroke:#d9534f;"/></g><path d="M136.334,77.37c0,-4.419 -3.582,-8 -8,-8c-24.157,0 -96.177,0 -120.334,0c-4.418,0 -8,3.581 -8,8c0,17.522 0,57.742 0,57.742l136.334,0c0,0 0,-40.22 0,-57.742Z" style="fill:#f2f2f2;"/><circle cx="68.167" cy="102.241" r="4.013" style="fill:#d9d9d9;"/></g></g></svg>