<svg viewBox="0 0 201 135" xmlns="http://www.w3.org/2000/svg" fill-rule="evenodd" clip-rule="evenodd" stroke-linejoin="round" stroke-miterlimit="1.4"><g fill-rule="nonzero"><path d="M100.7 48.2c10.6 0 19 8.5 19 19 0 10.6-8.4 19-19 19-10.5 0-19-8.4-19-19 0-10.5 8.5-19 19-19M.7 89.7h200v-45H.7v45z" fill="#fafafa"/><path d="M104 67.2c0 2-1.4 3.4-3.3 3.4-1.8 0-3.3-1.5-3.3-3.4 0-1.8 1.5-3.3 3.3-3.3 2 0 3.4 1.4 3.4 3.2"/><path d="M100.7 86.3c-10.5 0-19-8.6-19-19 0-10.6 8.5-19 19-19s19 8.4 19 19c0 10.4-8.5 19-19 19m0-39.5c-11.3 0-20.4 9-20.4 20.4 0 11.3 9 20.5 20.4 20.5 11.3 0 20.5-9.2 20.5-20.5s-9.2-20.4-20.5-20.4"/><path d="M100.7 64l-1-8 1-7.8 1 8-1 7.7zM100.7 86.3l-1-7.8 1-8 1 8-1 7.8zM104 67.2l8-1 7.8 1-8 1-7.7-1zM81.7 67.2l7.8-1 8 1-8 1-7.8-1zM102.4 64.3l3-7.2 4.8-6.2-3 7.2-4.8 6.3zM91.2 83.7l3-7.2 4.8-6.3-3 7.2-4.8 6.3zM103.7 69l7 3 6.5 4.7-7.3-3-6.3-4.8zM84.3 57.7l7 3 6.5 4.8-7.3-3-6.2-4.8zM103.6 65.5L110 61l7.2-3.3-6.4 4.7-7.2 3zM84.3 76.7l6.2-4.6 7.3-3-6.4 4.6-7 3zM102.4 70l4.7 6.4 3.2 7.3-4.7-6.4-3-7.2zM91.2 50.8L96 57l3 7.3-4.7-6.4-3-7.2zM100 64l-3-7.3-1.2-7.8 3 7.2 1 7.8zM105.6 85.6l-2.8-7.3-1.2-7.8 3 7.4 1 7.6zM104 66.4l7.3-3 7.8-1-7.3 2.8-7.7 1.2zM82.4 72l7.2-2.7 8-1.2-7.5 3-7.6 1zM101.6 64l1-7.8 3-7.3-1 7.7-3 7.3zM95.8 85.6L97 78l3-7.5-1.3 7.8-3 7.3zM104 68l7.7 1.2 7.4 3-7.7-1.2-7.3-3zM82.4 62.3l7.7 1.2 7.5 3-8-1.3-7-3zM103 64.8l5-6 6.2-5-5 6.2-6 4.8zM87.3 80.7l4.8-6 6.3-5-5 6-6 5zM103 69.6l6.2 5 5 6-6.2-5-5-6zM87.3 53.8l6 4.8 5 6.2-6.2-5-4.7-6zM99.3 48.2c0 .6-.4 1-1 1.2-.5 0-1-.3-1-1-.2-.4.2-1 .8-1 .7 0 1.2.3 1.3.8M104.2 86c0 .5-.3 1-1 1-.4.2-1-.2-1-.8 0-.5.3-1 1-1 .4-.2 1 .2 1 .8M119.7 65.8c-.6 0-1-.3-1-1-.2-.5.2-1 .7-1 .6 0 1 .3 1.2.8 0 .6-.3 1-1 1.2M82 70.7c-.6 0-1-.3-1.2-.8 0-.7.4-1.2 1-1.3.5 0 1 .3 1 1 .2.4-.2 1-.8 1M109 50c-.3.6-1 .8-1.4.6-.5-.2-.8-.8-.6-1.3.3-.6 1-.8 1.4-.6.5.2.8.8.6 1.4M94.4 85.2c-.2.5-.8.8-1.3.6-.5-.3-.7-1-.5-1.4.2-.5.8-.8 1.3-.5.6 0 .8.7.6 1.2M118 75.5c-.6-.2-1-1-.7-1.4.3-.4 1-.7 1.4-.4.5.2.8.8.5 1.3-.2.4-.8.7-1.3.5M82.8 61c-.6-.3-.8-1-.6-1.4.2-.6.8-.8 1.4-.6.5.2.7.8.5 1.4 0 .5-.7.7-1.2.5M116.4 56.5c-.4.3-1 .2-1.4-.2-.4-.5-.3-1 .2-1.5.4-.3 1-.2 1.4.2.4.5.3 1-.2 1.5M86.3 79.6c-.5.4-1 .3-1.5-.2-.3-.4-.2-1 .2-1.4.5-.4 1-.3 1.5.2.3.4.2 1-.2 1.4M111.5 83c-.4-.5-.3-1 .2-1.5.4-.3 1-.3 1.4.2.5.5.4 1 0 1.4-.5.5-1.2.4-1.5 0M88.3 52.8c-.3-.5-.2-1 .2-1.5.5-.3 1-.2 1.5.2.3.5.2 1-.2 1.5-.5.3-1 .2-1.5-.2M94.4 49.3c.2.5 0 1-.6 1.3-.5.2-1 0-1.3-.5-.2-.5 0-1 .6-1.3.6-.2 1.2 0 1.4.6M109 84.4c.2.5 0 1-.6 1.4-.5.2-1 0-1.4-.6-.2-.5 0-1 .6-1.3.5-.4 1 0 1.4.4M118.7 61c-.5 0-1 0-1.4-.6-.2-.6 0-1.2.6-1.4.4-.2 1 0 1.2.6.3.5 0 1-.5 1.3M83.5 75.5c-.5.2-1 0-1.3-.6-.2-.6 0-1.2.6-1.4.5-.3 1 0 1.3.5.3.6 0 1.2-.5 1.5M104.2 48.5c0 .6-.6 1-1 1-.7-.2-1-.7-1-1.3 0-.5.6-1 1-.8.7 0 1 .6 1 1M99.3 86.2c0 .6-.6 1-1.2 1-.5-.2-1-.7-.8-1.2 0-.6.6-1 1.2-1 .5 0 1 .7 1 1.2M119.4 70.7c-.5 0-1-.6-.8-1 0-.7.5-1 1-1 .7 0 1 .6 1 1.2 0 .4-.6.8-1.2.7M81.7 65.8c-.5 0-1-.6-1-1.2.2-.5.7-1 1.3-1 .6.2 1 .7 1 1.3-.2.5-.7 1-1.3.8M113 52.8c-.2.4-1 .5-1.3.2-.5-.4-.6-1-.2-1.5.3-.4 1-.5 1.4-.2.4.4.5 1 0 1.5M90 83c-.4.4-1 .5-1.5 0-.4-.2-.5-1-.2-1.3.4-.5 1-.5 1.5-.2.4.4.5 1 .2 1.5M115.2 79.6c-.5-.3-.6-1-.2-1.4.3-.5 1-.6 1.4-.2.5.3.6 1 .2 1.4-.3.5-1 .6-1.4.2M85 56.5c-.4-.4-.5-1-.2-1.5.4-.4 1-.5 1.5-.2.4.4.5 1 .2 1.5-.4.4-1 .5-1.5.2"/><path d="M183.7.2h-166C8.3.2.7 7.8.7 17.2v27.6h200V17.2c0-9.4-7.6-17-17-17" fill="#ff9d03"/><path d="M.7 117.2c0 9.4 7.6 17 17 17h166c9.4 0 17-7.6 17-17V89.7H.7v27.5z" fill="#008a00"/></g></svg>