<?xml version="1.0" encoding="UTF-8" standalone="no"?><!DOCTYPE svg PUBLIC "-//W3C//DTD SVG 1.1//EN" "http://www.w3.org/Graphics/SVG/1.1/DTD/svg11.dtd"><svg width="100%" height="100%" viewBox="0 0 201 135" version="1.1" xmlns="http://www.w3.org/2000/svg" xmlns:xlink="http://www.w3.org/1999/xlink" xml:space="preserve" style="fill-rule:evenodd;clip-rule:evenodd;stroke-linejoin:round;stroke-miterlimit:1.41421;"><g id="Jamaica"><path d="M176.437,0.236l-153.596,0l77.303,48.995l76.293,-48.995Z" style="fill:#008c3a;fill-rule:nonzero;"/><path d="M22.841,134.236l153.596,0l-76.291,-48.998l-77.305,48.998Z" style="fill:#008c3a;fill-rule:nonzero;"/><path d="M0.802,21.437l0,91.591l71.309,-45.794l-71.309,-45.797Z" style="fill:#0a0a0a;fill-rule:nonzero;"/><path d="M200.802,113.03l0,-91.591l-72.254,45.796l72.254,45.795Z" style="fill:#0a0a0a;fill-rule:nonzero;"/><path d="M128.548,67.235l72.254,-45.796l0,-4.203c0,-9.39 -7.611,-17 -17,-17l-7.365,0l-76.293,48.995l-77.303,-48.995l-5.039,0c-9.389,0 -17,7.61 -17,17l0,4.201l71.308,45.797l-71.308,45.794l0,4.208c0,9.389 7.611,17 17,17l5.039,0l77.305,-48.998l76.291,48.998l7.365,0c9.389,0 17,-7.611 17,-17l0,-4.206l-72.254,-45.795Z" style="fill:#ffe100;fill-rule:nonzero;"/></g></svg>