<?xml version="1.0" encoding="UTF-8" standalone="no"?><!DOCTYPE svg PUBLIC "-//W3C//DTD SVG 1.1//EN" "http://www.w3.org/Graphics/SVG/1.1/DTD/svg11.dtd"><svg width="100%" height="100%" viewBox="0 0 201 135" version="1.1" xmlns="http://www.w3.org/2000/svg" xmlns:xlink="http://www.w3.org/1999/xlink" xml:space="preserve" style="fill-rule:evenodd;clip-rule:evenodd;stroke-linejoin:round;stroke-miterlimit:1.41421;"><g id="Japan"><path d="M100.053,107.486c-22.23,0 -40.25,-18.02 -40.25,-40.25c0,-22.23 18.02,-40.252 40.25,-40.252c22.23,0 40.252,18.022 40.252,40.252c0,22.23 -18.022,40.25 -40.252,40.25M183.053,0.236l-166,0c-9.389,0 -17,7.61 -17,17l0,100c0,9.389 7.611,17 17,17l166,0c9.389,0 17,-7.611 17,-17l0,-100c0,-9.39 -7.611,-17 -17,-17" style="fill:#fafafa;fill-rule:nonzero;"/><path d="M100.053,26.984c-22.23,0 -40.25,18.021 -40.25,40.252c0,22.229 18.02,40.25 40.25,40.25c22.23,0 40.252,-18.021 40.252,-40.25c0,-22.231 -18.022,-40.252 -40.252,-40.252" style="fill:#dd212b;fill-rule:nonzero;"/></g></svg>