<?xml version="1.0" encoding="UTF-8" standalone="no"?><!DOCTYPE svg PUBLIC "-//W3C//DTD SVG 1.1//EN" "http://www.w3.org/Graphics/SVG/1.1/DTD/svg11.dtd"><svg width="100%" height="100%" viewBox="0 0 512 512" version="1.1" xmlns="http://www.w3.org/2000/svg" xmlns:xlink="http://www.w3.org/1999/xlink" xml:space="preserve" style="fill-rule:evenodd;clip-rule:evenodd;stroke-linejoin:round;stroke-miterlimit:1.41421;"><g><g><g><path d="M409.169,305.045c-20.506,61.06 -78.232,105.097 -146.163,105.097c-67.93,0 -125.656,-44.037 -146.162,-105.097l29.953,0c19.15,45.272 63.996,77.071 116.209,77.071c52.214,0 97.06,-31.799 116.21,-77.071l29.953,0ZM108.864,256c0,0 0,0 0,0ZM116.844,206.955c20.506,-61.06 78.232,-105.097 146.162,-105.097c67.931,0 125.657,44.037 146.163,105.097l-29.953,0c-19.15,-45.272 -63.996,-77.071 -116.21,-77.071c-52.213,0 -97.059,31.799 -116.209,77.071l-29.953,0Z" style="fill:#1d90ff;"/></g><g><path d="M24.787,256.37c0,13.93 10.196,20.894 20.145,20.645c8.458,0 17.163,-4.478 18.654,-16.167c-3.481,0 -6.465,0 -9.949,0c-0.994,4.228 -4.476,6.468 -8.705,6.468c-5.97,0 -9.7,-5.225 -9.7,-11.442c0,-6.717 3.979,-11.441 9.7,-11.441c4.229,0 7.215,1.741 8.705,5.968c3.484,0 6.468,0 9.949,0c-1.491,-10.944 -8.706,-15.378 -18.654,-15.419c-11.662,-0.049 -20.145,7.461 -20.145,21.388Z" style="fill:#1d90ff;fill-rule:nonzero;"/><path d="M111.894,255.907c0,-27.902 -40.001,-27.902 -40.001,0c-0.248,28.151 40.001,28.151 40.001,0ZM82.262,255.907c0,-14.568 19.754,-14.568 19.754,0c-0.492,14.817 -19.754,14.817 -19.754,0Z" style="fill:#1d90ff;fill-rule:nonzero;"/><path d="M137.791,234.982l-15.381,0l0,42.037l15.381,0c26.146,-0.256 26.146,-41.781 0,-42.037ZM132.664,244.722l4.872,0c13.071,0 13.071,22.302 0,22.302l-4.872,0c0,0.256 0,-22.302 0,-22.302Z" style="fill:#1d90ff;fill-rule:nonzero;"/><path d="M192.651,234.981c-9.484,0 -15.893,0 -25.377,0c0,13.843 0,27.941 0,42.039c9.484,0 16.406,0 25.891,0c0,-3.076 0,-6.408 0,-9.484c-6.155,0 -9.742,0 -15.381,0c0,-2.563 0,-4.871 0,-7.433l13.842,0c0,-3.077 0,-6.409 0,-9.485l-13.842,0l0,-5.898c5.896,0 8.972,0 15.124,0c-0.257,-3.33 -0.257,-6.664 -0.257,-9.739Z" style="fill:#1d90ff;fill-rule:nonzero;"/><path d="M234.936,247.798c0,-7.433 -5.639,-12.817 -13.075,-12.817l-17.945,0l0,42.039l19.742,0c8.458,0 13.074,-5.894 13.074,-13.33c0,-3.587 -1.538,-6.92 -5.127,-8.459c2.049,-1.537 3.331,-4.869 3.331,-7.433ZM222.374,260.616c4.36,0 4.36,7.176 0,7.176l-8.458,0l0,-7.176l8.458,0ZM221.092,244.721c4.36,0 4.36,6.923 0,6.923l-6.923,0l0,-6.923l6.923,0Z" style="fill:#1d90ff;fill-rule:nonzero;"/><path d="M279.723,250.936l0,11.65c0,9.119 -7.853,14.434 -16.717,14.434c-8.357,0 -16.716,-5.315 -16.716,-14.434l0,-11.65l10.131,0l0,11.397c0,3.29 3.294,5.065 6.332,5.065c3.039,0 6.333,-1.52 6.333,-5.065l0,-11.397c0.252,0 10.637,0 10.637,0ZM256.928,239.539c0,1.266 -0.507,2.532 -1.266,3.291c-1.013,1.016 -2.026,1.267 -3.293,1.267c-0.253,0 -0.506,0 -0.76,0c-1.266,0 -2.531,-0.505 -3.291,-1.267c-1.014,-1.012 -1.266,-2.025 -1.266,-3.291c0,-1.267 0.505,-2.532 1.266,-3.292c0.76,-0.761 2.025,-1.266 3.291,-1.266c0.254,0 0.507,0 0.76,0c1.267,0 2.531,0.506 3.293,1.266c0.759,0.76 1.266,2.026 1.266,3.292ZM279.723,239.539c0,1.266 -0.508,2.532 -1.267,3.291c-1.012,1.016 -2.026,1.267 -3.294,1.267c-0.251,0 -0.505,0 -0.759,0c-1.265,0 -2.532,-0.505 -3.29,-1.267c-0.762,-0.759 -1.267,-2.025 -1.267,-3.291c0,-1.267 0.505,-2.532 1.267,-3.292c0.758,-0.761 2.025,-1.266 3.29,-1.266c0.254,0 0.508,0 0.759,0c1.268,0 2.532,0.506 3.294,1.266c0.759,0.76 1.267,2.026 1.267,3.292Z" style="fill:#1d90ff;fill-rule:nonzero;"/><path d="M306.925,234.982l-15.893,0l0,42.037l15.893,0c27.172,0 27.172,-41.781 0,-42.037ZM302.057,244.978l5.127,0c13.328,0 13.328,22.557 0,22.557l-5.127,0l0,-22.557Z" style="fill:#1d90ff;fill-rule:nonzero;"/><path d="M354.56,234.982l-15.893,0l0,42.037l15.893,0c27.683,0 27.683,-41.781 0,-42.037ZM349.433,244.978l5.127,0c13.328,0 13.328,22.557 0,22.557l-5.127,0l0,-22.557Z" style="fill:#1d90ff;fill-rule:nonzero;"/><path d="M399.648,267.593l0,-23.183l4.84,0c0,-3.569 0,-5.607 0,-9.428c-6.879,0 -13.502,0 -20.38,0c0,3.311 0,5.605 0,9.428l4.839,0l0,23.183l-5.35,0c0,3.313 0,5.606 0,9.426c7.135,0 14.268,0 21.401,0c0,-3.565 0,-5.86 0,-9.426c-0.256,0 -5.35,0 -5.35,0Z" style="fill:#1d90ff;fill-rule:nonzero;"/><path d="M443.05,234.982c-9.997,0 -16.663,0 -26.145,0c0,14.098 0,28.196 0,42.037c9.74,0 16.916,0 26.915,0c0,-3.33 0,-6.408 0,-9.739c-6.154,0 -9.999,0 -16.15,0c0,-2.563 0,-4.873 0,-7.432l14.355,0c0,-3.335 0,-6.409 0,-9.743l-14.355,0l0,-5.894c6.151,0 9.485,0 15.636,0c-0.256,-2.82 -0.256,-5.897 -0.256,-9.229Z" style="fill:#1d90ff;fill-rule:nonzero;"/><path d="M464.146,263.563c-3.47,0 -6.695,0 -9.917,0c-0.249,18.105 32.984,17.61 32.984,0.497c0,-10.169 -7.937,-11.408 -16.121,-11.906c-3.471,-0.494 -6.698,-0.992 -6.448,-4.214c0.496,-4.961 11.409,-5.458 11.409,0.246c3.47,0 6.2,0 9.919,0c0.249,-17.607 -31.498,-17.607 -31.25,0c0.25,8.929 5.953,11.907 14.882,12.4c3.968,0.248 7.688,0.746 7.688,3.474c-0.248,4.712 -13.146,4.96 -13.146,-0.497Z" style="fill:#1d90ff;fill-rule:nonzero;"/></g></g></g></svg>