<?xml version="1.0" encoding="UTF-8" standalone="no"?><!DOCTYPE svg PUBLIC "-//W3C//DTD SVG 1.1//EN" "http://www.w3.org/Graphics/SVG/1.1/DTD/svg11.dtd"><svg width="100%" height="100%" viewBox="0 0 201 135" version="1.1" xmlns="http://www.w3.org/2000/svg" xmlns:xlink="http://www.w3.org/1999/xlink" xml:space="preserve" style="fill-rule:evenodd;clip-rule:evenodd;stroke-linejoin:round;stroke-miterlimit:1.41421;"><g id="Pakistan"><path d="M183.133,0.633c9.389,0 17,7.611 17,17l0,100c0,9.389 -7.611,17 -17,17l-132.465,0l0,-134l132.465,0Z" style="fill:#146835;"/><path d="M17.133,0.785l33.535,0l0,134l-33.535,0c-9.389,0 -17,-7.611 -17,-17l0,-100c0,-9.389 7.61,-17 17,-17Z" style="fill:#fff;"/><g><path d="M134.956,93.993c-20.74,0 -37.553,-16.813 -37.553,-37.553c0,-11.706 5.358,-22.159 13.752,-29.046c-15.899,5.811 -27.249,21.072 -27.249,38.984c0,22.916 18.578,41.494 41.495,41.494c18.482,0 34.14,-12.085 39.508,-28.784c-6.857,9.054 -17.72,14.905 -29.953,14.905Z" style="fill:#fff;fill-rule:nonzero;"/><path d="M139.506,36.349l5.771,8.372l9.744,-2.902l-6.178,8.075l5.771,8.372l-9.589,-3.381l-6.178,8.075l0.251,-10.164l-9.589,-3.381l9.745,-2.901l0.252,-10.165Z" style="fill:#fff;fill-rule:nonzero;"/></g></g></svg>