<?xml version="1.0" standalone="no"?>
<!DOCTYPE svg PUBLIC "-//W3C//DTD SVG 20010904//EN"
 "http://www.w3.org/TR/2001/REC-SVG-20010904/DTD/svg10.dtd">
<svg version="1.0" xmlns="http://www.w3.org/2000/svg"
 width="16.000000pt" height="16.000000pt" viewBox="0 0 16.000000 16.000000"
 preserveAspectRatio="xMidYMid meet">
<metadata>
Created by potrace 1.11, written by Peter Selinger 2001-2013
</metadata>
<g transform="translate(0.000000,16.000000) scale(0.002273,-0.002273)"
fill="#000000" stroke="none">
<path d="M3448 5275 c-1 -1 -28 -6 -58 -9 -51 -6 -68 -8 -132 -20 -101 -18
-267 -71 -368 -118 -143 -66 -142 -65 -260 -142 -307 -201 -540 -494 -679
-853 l-21 -53 173 1 172 0 39 81 c38 80 140 240 157 246 5 2 9 8 9 13 0 16
181 193 245 240 33 24 62 46 65 49 11 12 168 100 215 120 194 85 365 122 565
124 182 1 247 -6 391 -43 299 -77 563 -247 755 -485 70 -87 176 -258 194 -312
l12 -34 174 0 174 0 -21 53 c-12 28 -25 62 -30 75 -23 58 -96 194 -146 271
-242 371 -616 639 -1043 746 -52 13 -117 27 -145 31 -27 3 -59 8 -70 11 -23 5
-361 13 -367 8z"/>
<path d="M1050 3749 c-37 -11 -94 -50 -122 -84 -28 -33 -46 -100 -44 -162 6
-128 75 -204 199 -219 101 -12 186 33 221 118 25 59 22 63 -38 64 -48 0 -56
-3 -65 -23 -6 -13 -26 -31 -45 -40 -30 -14 -41 -15 -77 -4 -34 10 -44 19 -61
57 -43 98 5 194 97 194 28 0 44 -8 68 -32 28 -29 39 -33 85 -33 57 0 60 4 38
56 -15 36 -56 79 -92 98 -32 16 -124 22 -164 10z"/>
<path d="M1569 3747 c-52 -20 -80 -41 -111 -88 -33 -50 -42 -92 -35 -168 11
-125 87 -200 211 -207 137 -7 235 88 238 232 4 134 -78 228 -208 239 -37 3
-72 0 -95 -8z m159 -137 c40 -37 41 -119 4 -170 -35 -47 -116 -57 -155 -18
-56 55 -47 175 15 205 50 25 97 19 136 -17z"/>
<path d="M1994 3521 l0 -241 106 0 c59 0 122 5 141 12 88 30 149 119 151 221
2 95 -33 165 -106 214 -38 25 -50 27 -167 31 l-125 4 0 -241z m227 112 c45
-27 68 -105 47 -164 -16 -45 -49 -68 -103 -71 l-50 -3 -3 128 -3 127 42 0 c22
0 54 -8 70 -17z"/>
<path d="M2509 3758 c0 -2 -1 -110 -2 -241 l-2 -237 148 0 c81 0 147 3 148 8
1 11 2 75 0 90 -1 8 -25 12 -85 12 -91 0 -94 2 -88 54 l4 31 74 -2 c41 -1 74
1 75 5 6 36 5 94 -2 98 -4 2 -39 5 -77 5 -64 1 -70 3 -74 23 -8 42 0 46 88 46
l85 0 -2 55 -2 55 -144 0 c-78 0 -143 -1 -144 -2z"/>
<path d="M2929 3758 c-1 -2 -2 -110 -3 -240 l-1 -238 130 0 c104 0 137 4 164
18 48 24 73 62 78 119 4 42 1 53 -21 80 -25 30 -26 32 -10 69 28 68 -5 152
-72 180 -22 9 -73 14 -149 14 -63 0 -116 -1 -116 -2z m223 -133 c17 -37 -4
-55 -62 -55 l-48 0 1 40 1 40 48 0 c42 0 50 -3 60 -25z m-2 -165 c25 -13 27
-56 3 -67 -10 -5 -38 -8 -63 -8 l-45 0 -3 41 -3 40 45 3 c25 1 55 -3 66 -9z"/>
<path d="M3436 3744 c-35 -34 -11 -86 39 -86 33 0 55 19 55 48 0 29 -25 54
-55 54 -13 0 -31 -7 -39 -16z"/>
<path d="M3696 3744 c-20 -20 -21 -58 -1 -74 36 -30 95 -4 95 41 0 25 -27 49
-55 49 -13 0 -31 -7 -39 -16z"/>
<path d="M3920 3520 l0 -242 128 4 c136 4 166 13 218 65 88 88 87 259 -2 346
-52 52 -79 61 -216 65 l-128 4 0 -242z m245 106 c30 -20 54 -73 50 -113 -8
-85 -48 -123 -127 -123 l-43 0 2 122 c1 68 2 126 2 130 1 12 92 0 116 -16z"/>
<path d="M4468 3753 c-3 -4 -4 -111 -4 -238 l1 -230 112 -2 c133 -1 170 8 228
59 102 90 101 267 -2 357 -23 21 -57 42 -76 48 -42 13 -253 18 -259 6z m205
-112 c31 -2 74 -53 81 -97 9 -54 -17 -120 -55 -139 -15 -8 -46 -15 -69 -15
-35 0 -40 3 -41 23 -1 22 0 230 1 234 0 1 15 0 33 -2 17 -2 40 -4 50 -4z"/>
<path d="M4984 3708 c1 -48 3 -53 27 -58 l26 -5 1 -127 1 -128 -32 0 c-32 0
-32 0 -32 -52 l1 -53 122 -3 122 -3 0 56 c0 54 0 55 -30 55 l-30 0 0 130 0
130 24 0 c28 0 33 10 32 65 l-1 40 -116 3 -116 3 1 -53z"/>
<path d="M5359 3750 c0 -5 -1 -109 -1 -230 0 -121 1 -224 1 -230 1 -6 59 -10
154 -10 l152 0 1 55 0 55 -93 0 -93 0 0 43 0 43 68 -1 c98 -1 98 -1 96 53 -1
26 -3 50 -3 55 -1 4 -37 7 -81 7 l-80 0 0 33 0 32 88 0 87 0 0 50 0 50 -147 3
c-96 2 -148 -1 -149 -8z"/>
<path d="M5900 3747 c-71 -24 -110 -70 -110 -129 0 -92 53 -139 173 -153 31
-3 64 -14 73 -23 15 -15 15 -17 -6 -34 -32 -26 -93 -24 -123 5 -19 17 -36 22
-73 22 -48 -1 -49 -1 -46 -30 5 -36 34 -76 75 -100 46 -28 170 -27 218 1 56
33 82 80 75 138 -7 74 -60 116 -146 116 -48 0 -98 20 -103 40 -5 21 15 49 36
51 7 0 20 2 31 4 10 2 29 -7 43 -21 19 -19 34 -24 78 -24 49 0 54 2 50 21 -7
37 -40 83 -72 102 -40 23 -127 30 -173 14z"/>
<path d="M3410 3494 c0 -69 4 -94 21 -124 56 -100 230 -118 315 -33 36 36 44
64 44 158 l0 84 -60 0 -60 -1 0 -74 c0 -61 -4 -78 -20 -94 -25 -25 -71 -26
-101 -1 -20 16 -23 27 -24 94 l0 75 -57 1 -58 1 0 -86z"/>
<path d="M1951 2908 c135 -348 336 -609 639 -829 202 -147 521 -271 780 -304
78 -10 376 -13 424 -4 23 4 64 10 91 13 138 18 346 86 498 162 399 199 704
538 867 962 l20 52 -173 0 -172 -1 -34 -72 c-177 -371 -530 -658 -940 -762
-132 -33 -196 -40 -376 -39 -282 1 -535 80 -780 243 -189 125 -375 335 -472
532 l-48 98 -172 1 -173 0 21 -52z"/>
</g>
</svg>
