<svg viewBox="0 0 201 135" xmlns="http://www.w3.org/2000/svg" fill-rule="evenodd" clip-rule="evenodd" stroke-linejoin="round" stroke-miterlimit="1.4"><g fill-rule="nonzero"><path d="M.5 117.2c0 9.4 7.6 17 17 17h166c9.4 0 17-7.6 17-17v-16.4H.5v16.4zM183.5.2h-166C8 .2.5 7.8.5 17.2v16.4h200V17.2c0-9.4-7.6-17-17-17" fill="#e71b22"/><path fill="#ffce0c" d="M.5 33.6h200v67.2H.5z"/><path d="M45 59.8h-.3l-.3-.3h-.2L44 59s-.2-.2 0-.4c0-.3.2-.4.3-.4l.4-.2h.3l.4-.2h.4l.3-.2H48s.2 0 .3.2c0 0 .4 0 .5.2h.6l.4.4v.8l-.2.3-.2.2H49h-4z" fill="#c9191f"/><path d="M47 59.4l2 .2v.2c.2 0 .2-.2.3-.2l.2-.2v-.2c.2 0 .3-.2.3-.2v-.3-.2c-.2 0-.3-.2-.4-.3H49h-.2l-.6-.3c0-.2-.2-.2-.4-.2h-.2-.6-.3H46h-.2-.2-.2l-.3.2H45l-.4.3c-.2 0-.3 0-.4.3v.5l.3.3h.2c0 .2.2.3.2.3h.2l2-.2m2 .5c-.5-.2-1.4-.3-2-.3l-2 .2h-.4c0-.2-.3-.4-.3-.4H44V59s-.3-.4-.2-.7c0-.3.3-.4.4-.4h.5l.3-.2h.3s0-.2.2-.2h2.8l.6.2.5.2c.2 0 .3.2.4.3v.7s0 .3-.2.3v.3l-.4.2H49"/><path d="M46.6 58c0-.3.2-.6.4-.6s.3.3.3.6c0 .4 0 .7-.3.7-.2 0-.4-.3-.4-.7" fill="#d1b30e"/><path d="M47 57.5s-.3.2-.3.5c0 .4.2.6.3.6l.2-.6c0-.3 0-.5-.2-.5m0 1.3c-.3 0-.5-.3-.5-.8 0-.4.2-.8.5-.8.2 0 .5.4.5.8 0 .5-.3.8-.5.8"/><path d="M46.8 58c0-.3 0-.6.2-.6v1.2s-.2-.2-.2-.6" fill="#d1b30e"/><path d="M47 57.6v0m0 1.2c-.3 0-.3-.6-.3-.8 0 0 0-.7.3-.7.2 0 .3.6.3.7 0 .2 0 .8-.3.8"/><path d="M46.7 57.3s0-.2.3-.2l.2.3c0 .2 0 .3-.2.3s-.3 0-.3-.3" fill="#d1b30e"/><path d="M47 57.2v.2H47v-.8h.4v.2H47v.2z" fill="#d1b30e"/><path d="M47.3 57.5h-.7V57h.2-.2v-.4H47.2v.9z"/><path d="M47.3 57.2v.2h-.7v-.2h.3V57h-.3v-.3h.4v.2H47v.2h.3z" fill="#d1b30e"/><path d="M47.4 57.5h-1V57h.4-.2v-.4H47.2v.4h.2v.5z"/><path d="M47 57.7c-.2 0-.4-.2-.4-.4 0 0 0-.3.3-.3.2 0 .3.2.3.3 0 .2 0 .4-.3.4"/><path d="M47 59.8h-1.3V59l-.2-.3c-.3-.5-.7-.8-.8-.7 0 0 0-.2.2-.2.2-.2.8.3 1.3 1v.2h1.2v-.2c.6-.7 1.3-1.2 1.6-1 .2 0 .2 0 .2.2 0 0-.4.2-.8.7V60H47z" fill="#d1b30e"/><path d="M45.8 59.6h2.4v-1l.8-.7c-.2-.2-.8 0-1.3 1h-1.3-.2c-.5-1-1-1.2-1.3-1l.6.6.2 1zm2.6.3h-2.8v-.6l-.2-.7-.6-.6-.3.3V58c0-.2.2-.3.3-.3h.2c.4 0 1 .4 1.4 1v.2h1v-.3c.7-.8 1.4-1.2 1.8-1v.2l.2.2h-.2s-.3 0-.7.5V60z"/><path d="M46 59l-1.4-1 .3-.2c.3 0 .8.6 1.2 1l-.2.3zm2 0h-.2c.3-.6 1-1.2 1.3-1.2h.2l.2.2-1.4 1z"/><path d="M45 60.3V60l2-.2c.8 0 1.5 0 2 .2v.3c-.2 0-.2.2-.2.2l-1.8-.2c-.8 0-1.5 0-2 .2v-.2z" fill="#d1b30e"/><path d="M45 60c0 .2.2.2.2.3h3.5V60H45m.2.6H45v-.2c0-.2-.2-.3-.2-.3.6-.2 1.4-.3 2.2-.3.8 0 1.5 0 2 .2h.2s0 .2-.2.3v.2H45"/><path d="M47 61c.6 0 1.3 0 1.6-.2.2 0 .3 0 .3-.2h-.2c-.4-.2-1-.3-1.8-.3-.7 0-1.5 0-1.8.2-.2.2 0 .3 0 .3l1.8.2" fill="#d1b30e"/><path d="M47 60.4c-.7 0-1.4 0-1.8.2h.2c.2.2 1 .3 1.6.3.6 0 1.3-.2 1.6-.3-.3-.2-1-.3-1.6-.3m0 .7h-1.7c-.4-.2-.4-.3-.4-.4v-.2l2-.2c.7 0 1.4 0 1.8.2 0 0 .2 0 .2.2 0 0 0 .2-.4.3H47"/><path d="M49 59.8v-.2h-.4c-.2 0-.3-.2-.3-.2l-.4.2-.4-.2H47h-.4c0 .2-.3 0-.3 0s0 .2-.3.2l-.4-.2s0 .2-.2.3H45v.2c.5-.3 1.2-.4 2-.4s1.5 0 2 .3v-.2z" fill="#d1b30e"/><path d="M49 60l-2-.2c-.8 0-1.5 0-2 .2l-.3-.3h.2v-.2h.5V59h.2c0 .2.2.3.3.3l.2-.2h.7V59v.2l.3.2h.3V59l.3.3s.2 0 .2-.2h.2s0 .2.2.2h.7v.5z"/><path d="M47 59v.2l.3.2h.3V59c0 .2.2.3.4.3 0 0 .3 0 .3-.3 0 .3.2.4.4.4h.2v-.2.3h.3l.3-.3-.3.4h-.7s-.3 0-.3-.3l-.3.2c-.2 0-.3 0-.4-.2h-.3-.3-.4-.3l-.3.2c-.2 0-.3 0-.3-.2 0 .2-.2.3-.4.3H44.7l-.2-.3h.2c0 .2.2.2.2.2s.2 0 .2-.2h.3s.3 0 .3-.2V59v.2c0 .2.2.3.4.3 0 0 .2 0 .3-.2l.3.2c.2 0 .3-.2.3-.3z" fill="#d1b30e"/><path d="M49 60h-.2c-.2 0-.4 0-.6-.3h-2.5c0 .2-.4.2-.6.2h-.4l-.3-.4V59l.2.3.2.2V59l.4.4h.4v-.5h.4v.2s0 .2.2.2v-.2l.3-.2v.2h.5V59h.4v.2h.3s0-.2.2-.2v.2l.3.2v-.2h.2l.2-.3v.2c0 .3.3.3.4.2l.3-.4v.5h.3l.2-.2.2-.2v.5l-.3.4H49"/><path d="M47 59.8c-.8 0-1.6 0-2 .2h-.2c.6-.2 1.3-.4 2.2-.4.8 0 1.5.2 2 .3l-2-.2" fill="#d1b30e"/><path d="M49 60.2c-.5-.2-1.3-.3-2-.3-.8 0-1.5 0-2 .2-.2 0-.3 0-.3-.2v-.2c.7-.2 1.5-.3 2.3-.3.8 0 1.5 0 2 .3.2 0 .3 0 .2.2 0 0 0 .2-.2.2"/><path d="M46.2 60h.2v.2H46" fill="#fff"/><path d="M46.3 60.3s-.2 0-.2-.2l.3-.2s.2 0 .2.3c0 .2 0 .3-.2.3"/><path d="M47 60h-.3.5-.2z" fill="#c9191f"/><path d="M47.2 60.3h-.5s-.2 0-.2-.3c0 0 0-.2.2-.2h.5c.2 0 .3 0 .3.2s0 .3-.3.3"/><path d="M45.7 60.2h-.2l.3-.2v.2z" fill="#008f6e"/><path d="M45.5 60.4s-.2 0-.2-.2V60h.8v.2l-.5.2z"/><path d="M45 60.3h.2-.3z" fill="#c9191f"/><path d="M45 60.5h-.3l.2-.4.4.2-.3.3z"/><path d="M47.5 60h.3s0 .2-.2.2" fill="#fff"/><path d="M47.6 60.3s-.2 0-.2-.2c0 0 0-.2.2-.2s.3 0 .3.3c0 .2-.2.3-.4.3"/><path d="M48.3 60.2h.2-.2L48 60v.2h.3z" fill="#008f6e"/><path d="M48.5 60.4H48V60v-.3h.5s.2 0 .2.2c0 0 0 .2-.2.2"/><path d="M49 60.4v-.2h-.3v.2h.3z" fill="#c9191f"/><path d="M48.8 60.5l-.3-.4h.5l.2.4h-.4z"/><path d="M47 60.8h-1.7c.4-.2 1-.3 1.7-.3.6 0 1.2 0 1.7.2H47" fill="#c9191f"/><path d="M46 60.7h2-2m1 .3c-.7 0-1.3 0-1.8-.2v-.2c1-.3 2.6-.3 3.5 0v.2L47 61"/><path d="M49 59.4" fill="#d1b30e"/><path d="M49 59.6h-.2v-.3h.2s.2 0 0 .2"/><path d="M47.7 59.2" fill="#d1b30e"/><path d="M47.6 59.4s-.2 0 0-.3c.2 0 .3 0 .2.2 0 0 0 .2-.2.2"/><path d="M46.2 59.2c.2 0 0 0 0 0" fill="#d1b30e"/><path d="M46.3 59.4s-.2 0-.2-.2c0 0 0-.2.3-.3h.2c0 .3 0 .4-.2.4z"/><path d="M45 59.4" fill="#d1b30e"/><path d="M45 59.6h-.2V59h.4v.3H45z"/><path d="M47 58.4l-.3.2.2.3.2-.4-.2-.2z" fill="#d1b30e"/><path d="M47 59h-.2l-.2-.5.4-.2.4.2-.3.5z"/><path d="M46.5 59h.4l-.4-.2v.2z" fill="#d1b30e"/><path d="M46.5 59.3l-.2-.3.2-.3h.5v.3l-.5.3z"/><path d="M47.5 59H47l.4-.2v.2z" fill="#d1b30e"/><path d="M47.4 59.3L47 59h-.2v-.2h.6l.2.2-.2.3z"/><path d="M45.5 58.6l-.2.2.2.3.2-.3h-.2z" fill="#d1b30e"/><path d="M45.6 59.2h-.2l-.3-.5.4-.3.4.2v.5l-.2.2z"/><path d="M45 59.2h.5l-.3-.2v.2z" fill="#d1b30e"/><path d="M45.2 59.5l-.3-.3V59h.6v.2l-.4.3z"/><path d="M46 59v.2h-.4V59h.3z" fill="#d1b30e"/><path d="M46 59.3h-.4l-.2-.2.6-.3.2.3v.3z"/><path d="M44.7 59.3l-.4.2.3-.4v.3z" fill="#d1b30e"/><path d="M44.3 59.6H44l.2-.3.3-.3.4.2-.2.3h-.5z"/><path d="M45.4 59h.2v.2h-.2" fill="#d1b30e"/><path d="M45.6 59.3c-.2 0-.3 0-.3-.2 0 0 0-.2.3-.2l.2.3c0 .2 0 .3-.2.3"/><path d="M48.5 58.6l.2.2-.3.3-.2-.3h.3z" fill="#d1b30e"/><path d="M48.3 59.2l-.2-.6.5-.2.3.3-.3.5h-.2z"/><path d="M48.8 59.2h-.4l.4-.2v.2z" fill="#d1b30e"/><path d="M48.7 59.5l-.4-.3v-.3h.6v.2l-.3.3z"/><path d="M48 59v.2h.3V59H48z" fill="#d1b30e"/><path d="M47.8 59.3V59l.2-.3.4.2v.3h-.6z"/><path d="M49.2 59.3l.4.2-.3-.4v.3z" fill="#d1b30e"/><path d="M49.6 59.6H49V59l.3-.2.4.3v.2z"/><path d="M46.8 59h0" fill="#d1b30e"/><path d="M47 59.2c-.2 0-.3 0-.3-.2s0-.3.3-.3c0 0 .2 0 .2.3 0 0 0 .2-.2.2"/><path d="M48.2 59h.2v.2h-.2" fill="#d1b30e"/><path d="M48.4 59.3c-.2 0-.3 0-.3-.2l.4-.2.2.3c0 .2 0 .3-.2.3"/><path d="M44.2 59.5s0-.2-.2-.2V59v.2h.2v.2" fill="#d1b30e"/><path d="M44.2 59.6l-.2-.2h-.2V59s0-.2.2-.2h.4V59.7H44z"/><path d="M44.2 59.4h.2c0 .2 0 .2-.2 0" fill="#d1b30e"/><path d="M44.3 59.7c-.2 0-.2-.2-.2-.3.2-.2.4-.2.4 0v.2"/><path d="M49.7 59.5v-.2h.3V59c-.2 0-.2 0-.3.2v.2" fill="#d1b30e"/><path d="M49.7 59.6c-.2 0-.2-.2-.2-.2V59h.2c.3 0 .5 0 .5.2-.2 0-.3 0-.3.2h-.2v.2"/><path d="M49.7 59.4h-.2c0 .2 0 .2 0 0h.2" fill="#d1b30e"/><path d="M49.6 59.7h-.2v-.2-.2h.4v.3h-.2"/><path fill="#d1b30e" d="M44 61h6v1.5h-6z"/><path d="M44 62.4H50V61H44v1.4zm6 .2h-6v-1.8h6v1.8z"/><path d="M44.6 63.6h4.6v-.4-.3h-4.5s.2 0 .2.2-.2.3-.4.4" fill="#d1b30e"/><path d="M45 63.4h4v-.2-.2h-4v.4m-.4.3v-.3-.2-.2-.2H49.6v.2c-.2 0-.3 0-.3.2 0 0 0 .2.2.2v.2h-4.7"/><path d="M44.7 63.5h4.5c.2 0 .3 0 .3.3 0 0 0 .2-.3.2h-4.5s-.3 0-.3-.2.2-.3.3-.3" fill="#d1b30e"/><path d="M44.7 63.7h4.5-4.5zm4.5.4h-4.5c-.2 0-.4 0-.4-.2s.2-.4.4-.4h4.5c.2 0 .4.2.4.4 0 0-.2.3-.4.3"/><path d="M44.7 62.5h4.5c.2 0 .3 0 .3.2 0 0 0 .2-.3.2h-4.5l-.3-.3.3-.2" fill="#d1b30e"/><path d="M44.7 62.6h4.5-4.5zm4.5.4h-4.5c-.2 0-.4 0-.4-.3 0-.2.2-.3.4-.3h4.5c.2 0 .4 0 .4.3 0 .2-.2.3-.4.3"/><path d="M51.2 89c-.5 0-.8-.2-1-.3l-1-.2c-.5 0-1 0-1.2.2l-1 .2c-.5 0-.8-.2-1-.3l-1-.2c-.5 0-1 0-1.2.2l-1 .2v.6c.4 0 .8 0 1-.3l1-.2c.5 0 .8.2 1 .3.4.2.7.3 1.2.3.4 0 .7 0 1-.2.3-.2.7-.3 1-.3.5 0 .8.2 1 .4l1.2.2V89z" fill="#005fb0"/><path d="M45 89c.3 0 .7 0 1 .2.5.3 1.4.3 2 0 .6-.3 1.6-.3 2.2 0 .2.2.5.2.8.3V89c-.3 0-.7 0-1-.2l-1-.2c-.3 0-.7 0-1 .2-.5.3-1.5.3-2.2 0l-1-.2c-.3 0-.6 0-1 .2-.2.2-.5.2-1 .3v.5c.4 0 .8 0 1-.3l1-.2m6.5.7c-.6 0-1 0-1.3-.2-.2-.2-.6-.2-1-.2-.3 0-.7 0-1 .2-.5.3-1.5.3-2.2 0-.2-.2-.6-.2-1-.2-.3 0-.6 0-1 .2l-1 .2v-1h1c.3-.3.7-.3 1-.3.5 0 1 0 1.2.2.5.3 1.4.3 2 0 .6-.3 1.6-.3 2.2 0l1 .2v1z"/><path d="M51.2 89.6c-.5 0-.8 0-1-.2l-1-.3c-.5 0-1 .2-1.2.4l-1 .2c-.5 0-.8 0-1-.3l-1-.2c-.5 0-1 .2-1.2.3-.2.2-.6.3-1 .3v.6c.4 0 .8 0 1-.2l1-.2c.5 0 .8 0 1 .2l1.2.2c.4 0 .7 0 1-.2l1-.2c.5 0 .8 0 1 .2l1.2.2v-.6z" fill="#cfcdcd"/><path d="M45 89.7c.3 0 .7 0 1 .2.5.2 1.4.2 2 0 .3-.3.6-.3 1-.3.5 0 1 0 1.2.2h.8v-.3c-.3 0-.7 0-1-.2-.2-.2-.6-.2-1-.2-.3 0-.7 0-1 .2-.5.3-1.5.3-2.2 0-.2-.2-.6-.2-1-.2-.3 0-.6 0-1 .2l-1 .2v.4h1c.3-.3.7-.3 1-.3m6.5.7c-.6 0-1 0-1.3-.3h-2c-.5.4-1.5.4-2.2 0h-2c-.2.3-.6.4-1 .4v-1c.4 0 .7 0 1-.2l1-.2c.5 0 1 0 1.2.2.5.3 1.4.3 2 0 .6-.3 1.6-.3 2.2 0 .2.2.6.3 1 .3v1z"/><path d="M51.2 90.2c-.5 0-.8 0-1-.2l-1-.2c-.5 0-1 0-1.2.2l-1 .2c-.5 0-.8 0-1-.2l-1-.2c-.5 0-1 0-1.2.2l-1 .2v.7c.4 0 .8-.2 1-.4l1-.2c.5 0 .8 0 1 .2.4.2.7.3 1.2.3.4 0 .7-.2 1-.4l1-.2c.5 0 .8 0 1 .2.4.2.7.3 1.2.3V90z" fill="#005fb0"/><path d="M45 90.3c.3 0 .7 0 1 .2.2.2.6.3 1 .3.3 0 .7 0 1-.3.6-.3 1.6-.3 2.2 0 .2.2.5.2.8.3v-.4c-.3 0-.7 0-1-.3h-2c-.5.4-1.5.4-2.2 0h-2c-.2.3-.5.3-1 .4v.4c.4 0 .8 0 1-.3l1-.2m6.5.7c-.6 0-1 0-1.3-.2-.2-.2-.6-.2-1-.2-.3 0-.7 0-1 .2-.5.3-1.5.3-2.2 0-.2-.2-.6-.3-1-.3-.3 0-.6 0-1 .3l-1 .2v-1h1c.3-.3.7-.3 1-.3.5 0 1 0 1.2.2.5.2 1.4.2 2 0 .3-.3.6-.3 1-.3.5 0 1 0 1.2.2h1v1z"/><path d="M51.2 91.5c-.5 0-.8 0-1-.2l-1-.2c-.5 0-1 .2-1.2.3l-1 .2c-.5 0-.8 0-1-.2l-1-.2c-.5 0-1 0-1.2.3l-1 .2V91c.4 0 .8-.2 1-.4l1-.2c.5 0 .8 0 1 .2.4.2.7.3 1.2.3.4 0 .7-.2 1-.4l1-.2c.5 0 .8 0 1 .2.4.2.7.3 1.2.3v.5z" fill="#cfcdcd"/><path d="M45 91c.3 0 .7 0 1 .2l1 .2c.3 0 .7 0 1-.2.5-.3 1.6-.3 2.2 0l.8.2V91c-.3 0-.7 0-1-.2-.2-.2-.6-.3-1-.3-.3 0-.7 0-1 .3-.5.3-1.5.3-2.2 0-.2-.2-.6-.3-1-.3-.3 0-.6 0-1 .3l-1 .2v.4c.4 0 .8 0 1-.2.3-.2.7-.3 1-.3m6.5.7c-.6 0-1 0-1.3-.3-.5-.3-1.4-.3-2 0-.5.3-1.5.3-2.2 0l-1-.2c-.3 0-.6 0-1 .2-.2.2-.6.3-1 .3v-1c.4 0 .7 0 1-.2l1-.2c.5 0 1 0 1.2.2.2.2.6.3 1 .3.3 0 .7 0 1-.3.6-.3 1.6-.3 2.2 0 .2.2.6.3 1 .3v1z"/><path d="M51.2 92.2c-.5 0-.8 0-1-.3l-1-.3c-.5 0-1 0-1.2.2l-1 .2c-.5 0-.8 0-1-.3l-1-.3c-.5 0-1 0-1.2.2l-1 .2v-.7c.4 0 .8 0 1-.2l1-.2c.5 0 .8.2 1 .3l1.2.2c.4 0 .7 0 1-.2l1-.2c.5 0 .8.2 1 .3l1.2.2v.7z" fill="#005fb0"/><path d="M45 91.6c.3 0 .7 0 1 .2.5.3 1.4.3 2 0 .5-.3 1.6-.3 2.2 0 .2.2.5.2.8.2v-.4c-.3 0-.7 0-1-.2l-1-.2c-.3 0-.7 0-1 .2-.5.3-1.5.3-2.2 0l-1-.2c-.3 0-.6 0-1 .2l-1 .3v.3c.4 0 .8 0 1-.2l1-.2m6.5.7c-.6 0-1 0-1.3-.2l-1-.2c-.3 0-.7 0-1 .3-.5.4-1.5.4-2.2 0l-1-.2c-.3 0-.6 0-1 .2-.2.2-.6.3-1 .3v-1h1c.3-.3.7-.4 1-.4.5 0 1 0 1.2.2l1 .2c.3 0 .7 0 1-.2.5-.3 1.6-.3 2.2 0l1 .2v1z"/><path d="M44.6 86.3c0 .5-.3.8-.7.8h6c-.4 0-.7-.2-.7-.6h-4.6" fill="#d1b30e"/><path d="M44.5 87h5c-.2 0-.3-.3-.3-.6h-4.4c0 .3 0 .5-.3.6m5.6.3h-6c-.2 0-.2 0-.2-.2.4 0 .7-.2.7-.6V86h4.9v.2c0 .4.3.6.7.6h.2v.3"/><path d="M44.7 86h4.8c0 .2 0 .3-.3.3h-4.5s-.3 0-.3-.2h.3" fill="#d1b30e"/><path d="M44.7 86v.2h4.7c0-.2 0-.2-.2-.2h-4.5zm4.5.4h-4.5c-.2 0-.4 0-.4-.3 0 0 .2-.3.4-.3h4.5c.2 0 .4.2.4.4 0 .3-.2.4-.4.4"/><path fill="#d1b30e" d="M44 87h6v1.7h-6z"/><path d="M44 88.6h6v-1.3h-6v1.3zm6.2.2h-6.4V87h6.4v1.8z"/><path d="M43.4 80.3c-.6.4-1 .7-1 1l.6.4c.4.3.7.8.5 1 .3-.2.5-.6.5-1 0-.6-.2-1-.6-1.4" fill="#c9191f"/><path d="M43.4 80.5c-.6.3-.8.6-.8.7l.4.4c.3.2.6.5.6.8.2-.2.3-.5.3-.8 0-.5-.3-1-.6-1m0 2.3v-.3-.2c0-.2-.2-.5-.5-.7-.4-.2-.6-.4-.7-.6 0-.3.5-.7 1-1h.2c.4.3.7.8.7 1.4 0 .5-.3 1-.7 1.3"/><path fill="#cfcdcd" d="M44.8 64.2h4.4v21.4h-4.4z"/><path d="M48 85.6h-.2V64.2h.2v21.4zm.5 0h-.2V64.2h.2v21.4z"/><path d="M45 85.5h4V64.3h-4v21.2zm4.3.2h-4.6V64h4.6v21.7z"/><path d="M53.6 72.2c-1-.4-2.6-.7-4.4-.7-.7 0-1.4 0-2 .2-2.7.4-4.7 1.4-4.6 2.3l-1-2.2c0-1 2-2 5-2.6 1-.2 1.8-.2 2.6-.2 1.8 0 3.4.2 4.4.6v2.6z" fill="#c9191f"/><path d="M49 69l-2.4.3c-2.2.4-4 1.2-4.7 2-.2 0-.2.3-.2.4l.8 2v-.3c.6-.8 2.4-1.5 4.5-2h2.2c1.7 0 3.3.3 4.3.6v-2.3c-1-.4-2.6-.6-4.3-.6H49zm-6.3 5.2h-.2c-.3-1-1-2.3-1-2.4 0-.2 0-.4.2-.7.6-.7 2.6-1.6 5-2H49c1.7 0 3.4 0 4.4.5v2.7s0 .2 0 0c-1-.3-2.7-.5-4.4-.6-.7 0-1.4 0-2 .2-2 .3-3.8 1-4.3 1.7-.2.2-.3.3-.2.5v.2"/><path d="M44.8 75c-1.2-.2-2-.5-2.2-1 0-.4.4-1 1-1.3H45V75z" fill="#c9191f"/><path d="M43.7 73c-.6.2-1 .6-1 1s1 .7 2 .8v-2h-1zm1.2 2h-.2c-1.4 0-2.2-.4-2.3-1 0-.4.3-1 1-1.4H45V75z"/><path d="M49.2 73.3c.7 0 1.3.3 1.6.5 0 .3-.5 1-1.6 1.6v-2z" fill="#c9191f"/><path d="M49.3 73.4v1.8c1.2-.8 1.4-1.2 1.4-1.3-.3-.3-.8-.5-1.4-.6m-.3 2.2V73h.2l1.6.7c.3.5-.7 1.3-1.6 1.8H49z"/><path d="M42 79c0-.3 1-1 2.8-1.6l2.2-1c2.3-1 4-2 3.8-2.6L51 76c.3.4-1.3 1.6-3.4 2.6-.7.3-2 1-2.8 1-1.2.5-2.4 1.3-2.3 1.6L42 79z" fill="#c9191f"/><path d="M50.8 74.3c-.5.6-2 1.5-3.8 2.3h-.2l-2 1c-2 .6-2.7 1.2-2.6 1.4l.3 1.8c.4-.4 1.5-1 2.2-1.2l2.8-1c2-1 3.3-2 3.5-2.5l-.2-1.7m-8.3 7h-.2L42 79c-.3-.6 2.2-1.5 2.8-1.7l2-.8c2.4-1 3.7-2 4-2.5-.2-.2-.2-.3 0-.3v.2c.2 0 .3.6.4 2v.2c-.2.6-1.6 1.6-3.6 2.5-.6.3-2 1-2.8 1-1.2.6-2.2 1.3-2.2 1.5"/><path d="M44.2 70.4c.3 0 .5 0 .5.2v.4h-.3l-.2-.6zm.3.8c.5-.2 1-.4.7-1 0 0-.4-.2-.8 0l-.7.2.6 1.7h.5l-.3-.8zM46.2 69.7H46h-.3l.4 1.8 1.3-.2V71l-.8.2-.3-1.5zM48.5 71.2l.8-1.8H49c0 .4-.3 1-.5 1.3l-.6-1.2h-.4-.3l1 1.7h.2zM51 70v-.4h-.3c-.5-.2-.8 0-.8.3-.2.5.8.5.7 1h-.4c-.2 0-.4 0-.4-.2h-.2v.3c0 .2.2.2.4.3.5 0 1-.2 1-.5 0-.6-1-.6-1-1l.4-.2c.2 0 .3 0 .4.3z" fill="#d1b30e"/><path d="M87 59.3s0 .2-.3.2h-.3-.3-.3l-.3.2H85h-.2l-.3-.2h-.2V59c0-.2 0-.4.5-.5h.6l.8-.2c.4 0 .7 0 1 .2 0-.2.3-.2.7-.2.3 0 .6 0 .7.2h.6c.4 0 .6.3.6.5l-.2.4h-.2l-.2.3H89h-.3c-.2 0-.3-.3-.3-.3l-.4.2-.3-.2s-.2.2-.3 0H87z" fill="#c9191f"/><path d="M85 59.6v-.2h.2s0 .2.2.2l.2-.3h.2l.3.2c.2 0 .3 0 .3-.2H88l.2.2s.2 0 .3-.2h.2l.2.3h.2v-.2s0 .2.2.3h.2l.2-.4.2-.2s-.2-.3-.5-.4h-.5l-1-.2c-.2 0-.5 0-.7.2l-.8-.2c-.3 0-.6 0-.7.2h-.2-.4c-.5 0-.7.3-.7.3v.3h.3v.3h.3m4.2.3c-.2 0-.2-.2-.2-.2h-.4s-.2 0-.2-.2H88h-.3-.3-.3-.3-.3-.3-.3s0 .2-.2.2h-.3-.2-.4l-.2-.2h-.2v-.2-.3c-.2-.3 0-.5.6-.6h.6c0-.2.5-.3.8-.3.4 0 .7.2 1 .3l.7-.2.8.4h.5c.5 0 .8.3.7.6v.4l-.3.2-.2.2H89"/><path d="M86.7 58.2c0-.3 0-.6.3-.6s.4.3.4.6 0 .5-.4.5c-.2 0-.3-.2-.3-.5" fill="#d1b30e"/><path d="M87 57.8l-.2.4c0 .2 0 .4.2.4s.3-.2.3-.4 0-.4-.3-.4m0 1c-.2 0-.4-.3-.4-.6 0-.4.2-.7.4-.7.3 0 .5.3.5.7 0 .3-.2.6-.5.6"/><path d="M87 58.2v-.5c.2 0 .2.2.2.5v.5c-.2 0-.3-.3-.3-.5" fill="#d1b30e"/><path d="M87 58V57.8m0 .8c-.2 0-.2-.3-.2-.6s0-.6.3-.6.4.3.4.6 0 .6-.3.6"/><path d="M85 60.3V60l2-.2c1 0 1.6 0 2 .2v.5l-2-.2c-.7 0-1.4 0-1.8.2v-.2z" fill="#d1b30e"/><path d="M85.2 60v.3H89V60h-3.5m0 .6s0-.2-.2-.2V60h-.2.2c.5-.2 1.3-.3 2-.3 1 0 1.6 0 2.2.2v.4H89l-.2.2-1.8-.2c-.7 0-1.4 0-1.8.2"/><path d="M87 61c.7 0 1.4 0 1.7-.2.2 0 .3 0 .3-.2-.5-.2-1.2-.3-2-.3-.7 0-1.4 0-1.8.2 0 .2 0 .3.2.3l1.7.2" fill="#d1b30e"/><path d="M87 60.4c-.6 0-1.3 0-1.7.2.4.2 1 .3 1.8.3.7 0 1.4-.2 1.7-.3-.3-.2-1-.3-1.6-.3m0 .7h-1.6c-.4-.2-.4-.3-.4-.4 0 0 0-.2.2-.2l2-.2c.6 0 1.3 0 1.7.2v.2s0 .2-.3.3H87"/><path d="M88.6 58.4h0" fill="#fff"/><path d="M88.8 58.6c-.2 0-.3 0-.3-.2 0 0 0-.2.3-.2 0 0 .2 0 .2.2 0 0 0 .2-.2.2"/><path d="M88.7 58.2s-.3 0-.3-.2c0 0-.2 0-.2-.2h-.4-.2s-.2 0-.2-.2c0 0 0-.2.2-.2h.4s.2 0 .2.2h.2s.2 0 .2.2c.2 0 .3 0 .3.2l-.3.2"/><path d="M89 58.3l.8.7c0-.5-.3-.8-.7-.8m1 1.2l-1.4-1.2c.2-.2.4-.2.5-.2.6 0 1 .4 1 1v.4z"/><path d="M87.7 58l.7.5c0-.3-.2-.5-.6-.5m.7.8l-1.3-.8.6-.3c.5 0 1 .3 1 .7l-.2.3z"/><path d="M90 59s-.2 0-.2-.2v-.2-.2s-.3 0-.3-.3c0 .2-.2.2-.3 0 0 0 0 .2-.2.2 0 0-.3 0-.3-.3 0-.2.2-.3.3-.3h.4s.2 0 .2.2v-.2c.3 0 .4.2.4.3v.2s.3 0 .3.2v.4c0 .2 0 .3-.2.3"/><path d="M89.2 59.8l-.2-.2h-.3c-.2 0-.3-.2-.3-.2l-.4.2c-.2 0-.3-.2-.3-.2H87h-.3c-.2.2-.3 0-.3 0s0 .2-.3.2l-.3-.2s0 .2-.2.3H85v.2c.6-.3 1.3-.4 2-.4 1 0 1.6 0 2 .3l.2-.2z" fill="#d1b30e"/><path d="M89.2 60l-2-.2c-1 0-1.6 0-2 .2H85l-.2-.3h.2v-.2H85.7V59h.2c0 .2.2.3.3.3.2 0 .3-.2.3-.2H87V59v.2l.4.2h.3V59l.3.3s.3 0 .3-.2h.2s0 .2.2.2h.2l.3.2v.3z"/><path d="M85.2 58.4H85.4" fill="#fff"/><path d="M85.3 58.6s-.2 0-.2-.2l.3-.2c.2 0 .3 0 .3.2 0 0 0 .2-.3.2"/><path d="M85.4 58.2s-.2 0-.2-.2 0-.3.3-.2c0-.2 0-.3.2-.3H87c0 .3 0 .4-.2.4l-.2-.2H86l-.4.2s0 .2-.2.2"/><path d="M85 58.2c-.4 0-.7.3-.7.7l.8-.7m-.8 1v-.4c0-.6.3-1 .8-1h.4v.2l-1.2 1.2zM86.2 58c-.3 0-.5.2-.5.4l.7-.4h-.2m-.6.8l-.2-.4c0-.4.4-.7.8-.7.2 0 .4 0 .6.2l-1.2.8z"/><path d="M84 59s-.2 0-.2-.2v-.2-.2s.2-.3.3-.2c0-.2.2-.4.3-.4H85.2c0 .3 0 .4-.2.4h-.4-.3V59c0 .2 0 .3-.3.3"/><path d="M87 59v.2l.4.2h.3V59c0 .2.2.3.4.3s.4 0 .4-.3c0 .3.2.4.4.4h.2v-.2c0 .2 0 .3.2.3h.2l.2-.3s0 .3-.2.4H89h-.3s-.3 0-.3-.3l-.4.2s-.2 0-.3-.2h-.3-.3-.3-.3l-.3.2s-.2 0-.2-.2c0 .2-.3.3-.4.3h-.2-.2-.3l-.3-.3h.3c0 .2.2.2.2.2v-.2h.4s.2 0 .2-.2V59l.2.2c0 .2 0 .3.3.3.2 0 .3 0 .4-.2l.3.2c.2 0 .3-.2.3-.3z" fill="#d1b30e"/><path d="M89.2 60h-.3c-.3 0-.5 0-.7-.3H87 86c-.2.2-.4.2-.6.2H85h-.3l-.4-.4V59l.3.3.2.2V59l.4.4h.3v-.5l.4.2v.2s.2 0 .2-.2c0 0 0-.2.2-.2v.2h.5l-.2-.2h.6v.2h.3V59c.3 0 .3.2.3.2v.2c.2 0 .2 0 .2-.2l.3-.3v.2c0 .2.2.3.3.3l.4-.5v.5c.3 0 .3-.2.3-.2l.2-.2v.5s0 .3-.2.4h-.3"/><path d="M87 59.8c-.8 0-1.5 0-2 .2.5-.2 1.2-.4 2-.4 1 0 1.6.2 2.2.3l-2-.2" fill="#d1b30e"/><path d="M89 60.2c-.5-.2-1.2-.3-2-.3-.7 0-1.4 0-2 .2 0 0-.2 0-.2-.2v-.2c.7-.2 1.5-.3 2.3-.3 1 0 1.6 0 2.2.3v.4"/><path d="M86.3 60h.2v.2h-.2" fill="#fff"/><path d="M86.4 60.3s-.3 0-.3-.2l.4-.2s.2 0 .2.3c0 .2 0 .3-.2.3"/><path d="M87 60H87h.5-.2z" fill="#c9191f"/><path d="M87.3 60.3h-.5s-.2 0-.2-.3c0 0 0-.2.2-.2h.5s.2 0 .2.2 0 .3-.2.3"/><path d="M85.8 60.2h-.2l.3-.2v.2h-.2z" fill="#008f6e"/><path d="M85.6 60.4s-.2 0-.3-.2V60H86c.2.2 0 .3 0 .3h-.4z"/><path d="M85 60.3h.3-.3z" fill="#c9191f"/><path d="M85.2 60.5h-.4l.2-.4.5.2-.3.3z"/><path d="M87.6 60h.2v.2h-.2" fill="#fff"/><path d="M87.7 60.3s-.2 0-.2-.2c0 0 0-.2.2-.2s.3 0 .3.3c0 .2 0 .3-.3.3"/><path d="M88.4 60.2h.2-.2l-.2-.2v.2h.2z" fill="#008f6e"/><path d="M88.6 60.4H88V60c0-.2 0-.3.2-.3h.4c.2 0 .2 0 .2.2 0 0 0 .2-.2.2"/><path d="M89 60.4v-.2h-.2v.2h.3z" fill="#c9191f"/><path d="M89 60.5l-.4-.4h.5l.3.4H89z"/><path d="M87 60.8h-1.6c.4-.2 1-.3 1.7-.3s1.3 0 1.7.2h-1.6" fill="#c9191f"/><path d="M86 60.7h2-2m1 .3c-.6 0-1.2 0-1.7-.2v-.2c1-.3 2.5-.3 3.5 0v.2L87 61"/><path d="M89 59.4" fill="#d1b30e"/><path d="M89 59.6c-.2 0-.2-.2 0-.3.2 0 .3 0 .2.2H89"/><path d="M87.8 59.2" fill="#d1b30e"/><path d="M87.7 59.4s-.2 0-.2-.3h.2c.2 0 .2 0 .2.2l-.3.2"/><path d="M86.3 59.2" fill="#d1b30e"/><path d="M86.4 59.4s-.2 0-.2-.2V59h.4c0 .3 0 .4-.2.4z"/><path d="M85 59.4" fill="#d1b30e"/><path d="M85 59.6c-.2-.2 0-.4 0-.4h.2v.3z"/><path d="M87 58.4l-.2.2.2.3.3-.4-.2-.2z" fill="#d1b30e"/><path d="M87 59l-.3-.5.4-.2.4.2-.2.5z"/><path d="M86.5 59h.5l-.3-.2-.2.2z" fill="#d1b30e"/><path d="M86.6 59.3l-.2-.3.2-.3h.5l.2.3-.6.3z"/><path d="M87.6 59H87l.5-.2v.2z" fill="#d1b30e"/><path d="M87.5 59.3L87 59v-.2h.5l.2.2-.2.3z"/><path d="M85.6 58.6l-.2.2.2.3.2-.3h-.2z" fill="#d1b30e"/><path d="M85.7 59.2h-.2l-.3-.5.3-.3.4.2-.2.5v.2z"/><path d="M85.2 59.2h.4l-.4-.2v.2z" fill="#d1b30e"/><path d="M85.3 59.5l-.3-.3.2-.3h.5v.2l-.4.3z"/><path d="M86.2 59v.2h-.5V59h.5z" fill="#d1b30e"/><path d="M86.2 59.3h-.5l-.2-.2.5-.3.3.3v.3z"/><path d="M84.8 59.3l-.4.2.2-.4.2.3z" fill="#d1b30e"/><path d="M84.4 59.6h-.2v-.3l.4-.3.3.2v.3h-.6z"/><path d="M85.5 59h.2v.2h-.2" fill="#d1b30e"/><path d="M85.7 59.3c-.2 0-.3 0-.3-.2 0 0 0-.2.3-.2l.2.3c0 .2-.2.3-.3.3"/><path d="M88.6 58.6v.5h-.2v-.3h.2z" fill="#d1b30e"/><path d="M88.4 59.2l-.2-.6.4-.2.3.3-.4.5h-.2z"/><path d="M89 59.2h-.5l.4-.2v.2z" fill="#d1b30e"/><path d="M88.8 59.5l-.4-.3v-.3h.6v.2l-.2.3z"/><path d="M88 59v.2h.4V59H88z" fill="#d1b30e"/><path d="M88 59.3l-.2-.3.3-.3.5.2v.3h-.6z"/><path d="M89.2 59.3l.5.2-.3-.4-.2.3z" fill="#d1b30e"/><path d="M89.7 59.6h-.5V59l.2-.2.4.3v.2z"/><path d="M87 59h.2-.3" fill="#d1b30e"/><path d="M87 59.2s-.2 0-.2-.2 0-.3.3-.3c.2 0 .3 0 .3.3 0 0 0 .2-.2.2"/><path d="M88.3 59h.3c0 .2 0 .2-.2.2" fill="#d1b30e"/><path d="M88.4 59.3s-.2 0-.2-.2c0 0 0-.2.2-.2s.3.2.3.3c0 .2 0 .3-.3.3"/><path d="M86.8 57.6c0-.2 0-.3.3-.3.2 0 .3 0 .3.3 0 0 0 .2-.2.2 0 0-.2 0-.2-.2" fill="#d1b30e"/><path d="M87.2 57.5h-.4.2V57h-.2.2v-.2.2h.3-.2v.5h.2z" fill="#d1b30e"/><path d="M87.4 57.8h-.7v-1h.6v1z"/><path d="M87.4 57.5h-.7.3V57h-.2.2v-.2.2h.3-.2v.5h.4z" fill="#d1b30e"/><path d="M87 58c-.2 0-.3-.2-.3-.4s0-.3.3-.4c.3 0 .4.2.4.4s0 .3-.3.3"/><path d="M84.3 59.5s0-.2-.2-.2V59s.2 0 .2.2c.2 0 0 .2 0 .2" fill="#d1b30e"/><path d="M84.3 59.6c-.2 0-.2-.2-.3-.2h-.2V59c0-.2.2-.2.3-.2h.3l.2.4v.2h-.2z"/><path d="M84.3 59.4h.2c0 .2 0 .2-.2 0" fill="#d1b30e"/><path d="M84.4 59.7c-.2 0-.2-.2-.2-.3 0-.2.2-.2.3 0v.2"/><path d="M89.8 59.5v-.2h.3V59l-.2.2v.2" fill="#d1b30e"/><path d="M89.8 59.6c-.2 0-.2-.2-.2-.2V59h.2c.3 0 .4 0 .4.2 0 0-.2 0-.2.2l-.2.2"/><path d="M89.8 59.4h-.2c0 .2 0 .2 0 0h.2" fill="#d1b30e"/><path d="M89.6 59.7l-.2-.2v-.2h.5c0 .2 0 .3-.2.3h-.2"/><path fill="#d1b30e" d="M84 61h6v1.5h-6z"/><path d="M84.2 62.4H90V61H84v1.4zm6 .2H84v-1.8H90v1.8z"/><path d="M89.4 63.6h-4.6l.2-.4c0-.2 0-.3-.3-.3h4.6V63.5" fill="#d1b30e"/><path d="M85 63.4h4v-.2-.2h-4v.4m-.3.3v-.2-.3-.2-.2H89.7v.2h-.2v.4s.2 0 0 .2h-4.6"/><path d="M84.8 63.5h4.5c.2 0 .3 0 .3.3 0 0 0 .2-.3.2h-4.5s-.2 0-.2-.2 0-.3.2-.3" fill="#d1b30e"/><path d="M84.8 63.7h4.5-4.5zm4.5.4h-4.5c-.2 0-.4 0-.4-.2s.2-.4.4-.4h4.5c.2 0 .4.2.4.4 0 0-.2.3-.4.3"/><path d="M84.8 62.5h4.5c.2 0 .3 0 .3.2 0 0 0 .2-.3.2h-4.5l-.2-.3s0-.2.2-.2" fill="#d1b30e"/><path d="M84.8 62.6h4.5-4.5zm4.5.4h-4.5c-.2 0-.4 0-.4-.3 0-.2.2-.3.4-.3h4.5c.2 0 .4 0 .4.3 0 .2-.2.3-.4.3"/><path d="M83 89l1-.3 1-.2c.4 0 .8 0 1 .2l1 .2c.5 0 1-.2 1-.3l1.2-.2c.4 0 .7 0 1 .2l1 .2v.6c-.4 0-.7 0-1-.3l-1-.2c-.4 0-.8.2-1 .3-.3.2-.7.3-1 .3-.5 0-1 0-1.2-.2-.2-.2-.6-.3-1-.3s-.8.2-1 .4l-1 .2V89z" fill="#005fb0"/><path d="M85 89c.4 0 .8 0 1 .2.6.3 1.5.3 2 0l1.2-.2c.4 0 .7 0 1 .2.3.2.6.2 1 .3V89c-.4 0-.8 0-1-.2l-1-.2c-.4 0-.7 0-1 .2-.6.3-1.6.3-2.2 0-.6-.2-1.5-.3-2 0-.3.2-.6.2-1 .3v.5c.3 0 .6 0 1-.3l1-.2m6.4.7h-.2c-.4 0-.8 0-1-.2-.3-.2-.7-.2-1-.2-.4 0-.8 0-1 .2-.6.3-1.6.3-2.2 0-.6-.3-1.5-.3-2 0l-1 .2h-.2v-1h1c.7-.4 1.7-.4 2.3 0h2c.4-.3.8-.3 1.2-.3.4 0 .8 0 1 .2l1 .2h.2v1z"/><path d="M83 89.6c.3 0 .7 0 1-.2.2-.2.6-.3 1-.3s.8.2 1 .4l1 .2c.5 0 1 0 1-.3l1.2-.2c.4 0 .7.2 1 .3.3.2.6.3 1 .3v.6c-.4 0-.7 0-1-.2l-1-.2c-.4 0-.8 0-1 .2l-1 .2c-.5 0-1 0-1.2-.2l-1-.2c-.4 0-.8 0-1 .2l-1 .2v-.6z" fill="#cfcdcd"/><path d="M85 89.7c.4 0 .8 0 1 .2.6.2 1.5.2 2 0 .4-.3.8-.3 1.2-.3.4 0 .8 0 1 .2h1v-.3c-.4 0-.8 0-1-.2-.3-.2-.7-.2-1-.2-.4 0-.8 0-1 .2-.6.3-1.6.3-2.2 0-.6-.3-1.5-.3-2 0l-1 .2v.4h1c.2-.3.6-.3 1-.3m6.4.7h-.2c-.4 0-.8 0-1-.3h-2c-.6.4-1.6.4-2.2 0-.5-.2-1.5-.2-2 0-.3.3-.7.4-1 .4h-.2v-1c.5 0 .8 0 1-.2L85 89c.4 0 .8 0 1 .2.6.3 1.5.3 2 0l1.2-.2c.4 0 .7 0 1 .2.3.2.7.3 1 .3h.2v1z"/><path d="M83 90.2c.3 0 .7 0 1-.2l1-.2c.4 0 .8 0 1 .2l1 .2c.5 0 1 0 1-.2l1.2-.2c.4 0 .7 0 1 .2l1 .2v.7c-.4 0-.7-.2-1-.4l-1-.2c-.4 0-.8 0-1 .2-.3.2-.7.3-1 .3-.5 0-1-.2-1.2-.4l-1-.2c-.4 0-.8 0-1 .2-.3.2-.7.3-1 .3V90z" fill="#005fb0"/><path d="M85 90.3c.4 0 .8 0 1 .2.6.3 1.5.3 2 0l1.2-.2c.4 0 .8 0 1 .2.3.2.6.2 1 .3v-.4c-.4 0-.8 0-1-.3h-2c-.6.4-1.6.4-2.2 0-.5-.2-1.5-.2-2 0-.3.3-.6.3-1 .4v.4c.3 0 .6 0 1-.3l1-.2m6.4.7h-.2c-.4 0-.8 0-1-.2-.3-.2-.7-.2-1-.2-.4 0-.8 0-1 .2-.6.3-1.6.3-2.2 0-.3-.2-.7-.3-1-.3-.4 0-.8 0-1 .3l-1 .2h-.2v-1h1c.7-.4 1.7-.4 2.3 0 .6.2 1.5.2 2 0 .4-.3.8-.3 1.2-.3.4 0 .8 0 1 .2h1.2v1z"/><path d="M83 91.5c.3 0 .7 0 1-.2l1-.2c.4 0 .8.2 1 .3l1 .2c.5 0 1 0 1-.2l1.2-.2c.4 0 .7 0 1 .3l1 .2V91c-.4 0-.7-.2-1-.4l-1-.2c-.4 0-.8 0-1 .2-.3.2-.7.3-1 .3-.5 0-1-.2-1.2-.4l-1-.2c-.4 0-.8 0-1 .2-.3.2-.7.3-1 .3v.5z" fill="#cfcdcd"/><path d="M85 91c.4 0 .8 0 1 .2.6.3 1.5.3 2 0l1.2-.3c.4 0 .8 0 1 .2l1 .2V91c-.4 0-.8 0-1-.2-.3-.2-.7-.2-1-.2-.4 0-.7 0-1 .2-.6.3-1.6.3-2.2 0-.3-.2-.7-.3-1-.3-.4 0-.7 0-1 .3l-1 .2v.4c.3 0 .6 0 1-.2.2-.2.6-.3 1-.3m6.4.7h-.2c-.4 0-.8 0-1-.3l-1-.2c-.4 0-.8 0-1 .2-.6.3-1.6.3-2.2 0-.5-.3-1.5-.3-2 0-.3.2-.7.3-1 .3h-.2v-1c.5 0 .8 0 1-.2.7-.3 1.7-.3 2.3 0 .6.3 1.5.3 2 0l1.2-.2c.4 0 .8 0 1 .2.3.2.7.3 1 .3h.2v1z"/><path d="M83 92.2c.3 0 .7 0 1-.3.2-.2.6-.3 1-.3s.8 0 1 .2l1 .2c.5 0 1 0 1-.3l1.2-.3c.4 0 .7 0 1 .2l1 .2v-.7c-.4 0-.7 0-1-.2l-1-.2c-.4 0-.8.2-1 .3l-1 .2c-.5 0-1 0-1.2-.2l-1-.2c-.4 0-.8.2-1 .3l-1 .2v.7z" fill="#005fb0"/><path d="M85 91.6c.4 0 .8 0 1 .2.6.3 1.5.3 2 0l1.2-.2c.4 0 .7 0 1 .2.3.2.6.2 1 .2v-.3c-.4 0-.8-.2-1-.3l-1-.2c-.4 0-.7 0-1 .2-.6.3-1.6.3-2.2 0l-1-.2c-.4 0-.7 0-1 .2l-1 .2v.4c.3 0 .6 0 1-.2l1-.2m6.4.7h-.2c-.4 0-.8 0-1-.3l-1-.2c-.4 0-.7 0-1 .2-.6.4-1.6.4-2.2 0l-1-.2c-.4 0-.7 0-1 .3-.3.2-.7.3-1 .3h-.2v-1h1c.7-.4 1.7-.4 2.3 0 .6.2 1.5.2 2 0 .4-.3.8-.4 1.2-.4.4 0 .8 0 1 .2l1 .2h.2v1z"/><path d="M89.4 86.3c0 .5.3.8.7.8h-6c.4 0 .7-.2.7-.6h4.6z" fill="#d1b30e"/><path d="M84.6 87h5c-.2 0-.3-.3-.3-.6H85c0 .3-.2.5-.4.6m5.5.3h-6V87c.3 0 .6-.2.6-.6V86h4.9v.2c0 .4.3.6.6.6h.3c0 .2 0 .3-.2.3"/><path d="M84.8 86h4.8c0 .2 0 .3-.3.3h-4.5s-.2 0-.2-.2h.2" fill="#d1b30e"/><path d="M84.8 86v.2h4.7c0-.2 0-.2-.2-.2h-4.5zm4.5.4h-4.5c-.2 0-.4 0-.4-.3 0 0 .2-.3.4-.3h4.5c.2 0 .4.2.4.4 0 .3-.2.4-.4.4"/><path fill="#d1b30e" d="M84 87h6v1.7h-6z"/><path d="M84 88.6h6v-1.3h-6v1.3zm6.3.2H84V87h6.3v1.8z"/><path d="M90.6 80.3c.6.4 1 .7 1 1l-.5.4c-.4.3-.6.8-.4 1-.4-.2-.6-.6-.6-1 0-.6.2-1 .6-1.4" fill="#c9191f"/><path d="M90.6 80.5c-.3.2-.5.6-.5 1s.2.7.4 1c0-.4.3-.7.6-1 .3 0 .4-.2.5-.3 0 0-.2-.4-1-.7m0 2.4c-.4-.5-.6-1-.6-1.4 0-.6 0-1 .5-1.4h.2c.5.3 1 .7 1 1 0 .2-.3.4-.5.6l-.6.7v.4z"/><path fill="#cfcdcd" d="M85 64.2h4.3v21.4H85z"/><path d="M88.2 85.6H88V64.2h.2v21.4zm.5 0h-.3V64.2h.3v21.4z"/><path d="M85 85.5h4V64.3h-4v21.2zm4.4.2h-4.6V64h4.6v21.7z"/><path d="M80.4 72.2c1-.4 2.6-.7 4.5-.7.5 0 1.2 0 2 .2 2.6.4 4.6 1.4 4.4 2.3l1-2.2c.2-1-2-2-5-2.6-1-.2-1.8-.2-2.5-.2-2 0-3.6.2-4.6.6v2.6z" fill="#c9191f"/><path d="M85 71.3c.5 0 1.3 0 2 .2 2 .4 3.8 1 4.4 2 .4-.7.8-1.7 1-1.8l-.3-.4c-.4-.8-2.4-1.6-4.6-2L85 69c-1.8 0-3.4.3-4.4.7V72c1-.3 2.6-.6 4.3-.7m6.4 3s-.2-.2 0-.3c0-.2 0-.3-.3-.5-.3-.7-2-1.4-4-1.7l-2-.2c-2 0-3.5.3-4.5.7h-.2v-2.7c1-.5 2.8-.7 4.6-.7h2.5c2.3.4 4.2 1.3 4.8 2l.2.8-1 2.3v.2"/><path d="M89.3 75c1.2-.2 2-.5 2-1 .2-.4-.2-1-1-1.3h-1V75z" fill="#c9191f"/><path d="M89.4 73v1.8c1 0 1.8-.4 2-.8 0-.4-.4-.8-1-1h-1m-.3 2v-2.3h1.3c1 .4 1.3 1 1.2 1.3 0 .6-1 1-2.2 1H89z"/><path d="M85 73.3c-1 0-1.4.3-1.7.5-.2.3.5 1 1.6 1.6v-2z" fill="#c9191f"/><path d="M83.4 74s0 .4 1.4 1.2v-1.8c-.7 0-1.2.3-1.4.5m1.6 1.6h-.2c-1-.6-2-1.4-1.7-1.8h.2c.3-.3 1-.5 1.7-.7v2.6z"/><path d="M92 79c0-.3-1-1-2.8-1.6l-2-1c-2.5-1-4.2-2-4-2.6L83 76c-.3.4 1.3 1.6 3.4 2.6.7.3 2.2 1 3 1 1 .5 2.3 1.3 2.2 1.6L92 79z" fill="#c9191f"/><path d="M83.3 74.3L83 76c.2.5 1.5 1.5 3.5 2.5l2.8 1 2.2 1.3.4-1.8c0-.2-.8-.8-2.8-1.5l-2-.8H87c-1.8-1-3.3-1.8-3.7-2.4m8.3 7h-.2c0-.3-1-1-2.2-1.5l-2.8-1c-2-1-3.4-2-3.6-2.6V76l.3-2v-.2h.4v.2c0 .4 1.5 1.4 3.7 2.4h.3l2 1c.5 0 3 1 2.8 1.7l-.3 2.2"/><path d="M83 71.3l.7-2v.2h-.3l-.3 1.3-.7-1.2H82h-.2l1 1.7h.2M84.8 69.4h-.2-.3v1.8h1.2V71h-.7v-1.6zM86.7 69.7h.6l-1.6-.2v.2h.5v1.5h.4v-1.5zM88.2 70c.2 0 .4 0 .4.3s-.2.4-.5.3l.2-.6zm-.8 1.4h.4l.2-.7.2.4.2.7h.6l-.5-1c.3 0 .6 0 .6-.2.2-.2 0-.3 0-.5h-.6l-.6-.3-.4 1.7z" fill="#d1b30e"/><path d="M90 71.5l.6-.4v.8l-.6-.3zm.5.4v.5l.4.3v-2h-.2l-1.7 1h.4s.3 0 .4-.2l.7.3z" fill="#d1b30e"/><path d="M61 53.5c-.4 0-.6.2-.6.4s.2.4.5.4c0 0 .3-.2.3-.5s-.2-.5-.4-.5m0 1c-.5 0-1-.2-1-.6 0-.4.5-.7 1-.7.2 0 .6.3.6.6s-.4.6-.7.6"/><path d="M66.8 49.2c1.8 0 3.4.2 4.5.6.5.3 1.3.5 2.2.6h2c.6 0 1.6.3 2.7.8 1 .4 1.6.8 2 1.3l-.3.4-.2 1-1.2 1.2-.6.5-1.3 1-.7.2-.2.5-9-1-8.8 1-.2-.6-.7-.2-1.3-1-.5-.6L54 54v-1l-.5-.5c.5-.5 1.2-1 2-1.3 1-.5 2.2-.7 3-.7h1.8c.8-.2 1.6-.4 2.2-.7 1-.4 2.6-.6 4.3-.6" fill="#c9191f"/><path d="M67 56.3l8.7 1 .2-.5h.6l1.4-1.2.5-.5 1-1 .3-1.2.3-.3c-.4-.5-1-1-1.8-1.2-1-.4-2-.7-2.8-.7h-2l-2.2-.6c-1-.5-2.6-.7-4.4-.7-1.6 0-3 .2-4.2.7l-2.3.6h-1.9c-.8 0-1.8.3-2.8.7-.8.3-1.4.7-2 1.2l.4.3v1l1.3 1.4.5.4 1.4 1 .7.2v.6l9-1zm8.8 1.3l-9-1-9 1V57H57l-1.3-1.2-.6-.5-1-1.3-.2-1-.5-.5c.6-.6 1.4-1 2.2-1.5 1-.4 2-.6 3-.6h1.8c.8-.2 1.6-.4 2.2-.7 1-.4 2.6-.7 4.3-.7 1.8 0 3.4.3 4.5.7.6.3 1.3.5 2.2.6h1.8c1 0 2 .3 3 .7.8.4 1.6 1 2 1.4h.2l-.5.5v1l-1.3 1.3-.6.5-1.3 1-.6.2-.2.6z"/><path d="M67 61c-3.3-.2-6.3-.5-8.4-1.2l-.2-.3c0-.2 0-.3.2-.3 2-.7 5-1 8.4-1 3.3 0 6.2.3 8.3 1 .2 0 .3 0 .3.3 0 0 0 .3-.3.3-2 .7-5 1-8.3 1" fill="#d1b30e"/><path d="M67 58.3c-3.2 0-6.2.3-8.3 1 0 0-.2 0-.2.2 0 0 0 .2.2.2 2 .7 5 1 8.3 1 3.2 0 6-.3 8.3-1v-.2-.2c-2.2-.7-5-1-8.3-1m0 2.7c-3.2 0-6.2-.4-8.4-1-.2 0-.3-.3-.3-.5s0-.4.3-.4c2.2-.6 5.2-1 8.4-1s6.2.4 8.4 1c.2 0 .3.3.3.5s0 .4-.3.4c-2.2.6-5.2 1-8.4 1"/><path d="M67 60.4c-3 0-5.7-.3-7.7-1 2-.4 4.7-.7 7.7-.7s5.7.3 7.7.8c-2 .6-4.8 1-7.7 1" fill="#c9191f"/><path d="M67 58.7h.4v1.8H67zM66.6 58.7h.3v1.8h-.4zM66 58.7h.4v1.8H66zM65.7 58.7h.3v1.8h-.3zM65.3 58.7h.3v1.8h-.3zM64.5 60.3v-1.6h.3v1.6h-.3zm.6 0v-1.6 1.7zM64 60.3H64v-1.5h.3v1.5zm.2 0v-1.6h.2v1.6h-.2zM63 60.2V59 60zm.4 0h-.2v-1.4h.2v1.4zm.4 0h-.3v-1.4h.3v1.4zM62.5 59h.3V60h-.3zM62.2 59h.3v1h-.3zM62 59h.2v1H62zM61.2 60v-1h.3v1h-.3zm.6 0h-.2v-1h.2v1zM61 59h.2v1H61zM60.6 59.2h.3v.6h-.4zM69.2 60.3H69v-1.6h.2v1.6zm-.8 0h-.2v-1.6h.2v1.7zm-.6 0h-.2v-1.6h.2v1.7z"/><path d="M67 58c-3.4 0-6.4.6-8.5 1.2.2 0 .2-.3 0-.8-.3-.7-.7-.7-.7-.7 2.3-.7 5.6-1 9.2-1 3.6 0 7 .3 9.2 1 0 0-.4 0-.7.7-.2.5-.2.7 0 .8-2.2-.6-5.2-1-8.5-1" fill="#d1b30e"/><path d="M67 58c3 0 6 .4 8.2 1 0-.2 0-.4.2-.7 0-.3.3-.5.4-.6-2.4-.6-5.5-1-8.8-1-3.3 0-6.4.4-8.8 1l.4.6.2.7c2.2-.6 5-1 8.2-1m-8.4 1.3V59l-.3-.6c-.2-.6-.5-.6-.5-.6v-.2c2.4-.7 5.7-1 9.2-1 3.5 0 6.8.3 9.2 1v.2s-.4 0-.6.6c-.2.6-.2.7 0 .7l-.2.3c-2.2-.6-5.3-1-8.4-1-3.2 0-6.2.4-8.4 1"/><path d="M67 56.6c-3.6 0-7 .4-9.2 1-.2.2-.3 0-.4 0 0-.2 0-.4.2-.4C60 56.5 63.3 56 67 56s7 .5 9.4 1.2c0 0 .2.2 0 .3 0 .2 0 .3-.2.2-2.4-.7-5.6-1-9.2-1" fill="#d1b30e"/><path d="M67 56.5c3.5 0 6.8.4 9.2 1h.2v-.2c-2.5-.7-6-1.2-9.4-1.2-3.6 0-7 .6-9.4 1.3v.2h.2c2.4-.6 5.7-1 9.2-1m9.3 1.3H76c-2.3-.7-5.5-1-9-1s-6.8.3-9.2 1c-.2 0-.4 0-.5-.2v-.3l.3-.2c2.4-.7 5.8-1 9.4-1 3.5 0 7 .3 9.4 1l.2.3v.3s0 .2-.3.2M59.8 59.5c2 .5 4.6.8 7.2.8 2.6 0 5-.3 7.2-.8-2-.4-4.6-.7-7.2-.7-2.7 0-5.2.3-7.2.7m7.2 1c-2.8 0-5.6-.3-7.8-.8v-.2c2.2-.6 5-1 7.8-1s5.6.4 7.7 1v.2c-2.2.5-5 .8-7.7.8"/><path d="M64.4 57.4s0-.3.3-.3c.2 0 .3.3.3.4 0 .2 0 .3-.3.3-.2 0-.3 0-.3-.3" fill="#fff"/><path d="M64.7 57.3h-.2c0 .2 0 .3.2.3 0 0 .2 0 .2-.2h-.3m0 .4c-.2 0-.4-.2-.4-.4s.2-.4.4-.4.4.2.4.4 0 .4-.3.4"/><path d="M67 57.6h-1s-.2 0-.2-.3c0 0 0-.2.3-.2h2l.2.3c0 .2-.2.3-.3.3h-1z" fill="#c9191f"/><path d="M66 57.2v.3h2v-.2h-2zm2 .5h-2s-.3 0-.3-.4c0-.2.2-.4.4-.4h2s.3 0 .3.3-.2.4-.4.4"/><path d="M62.5 58H62c-.3 0-.4-.2-.4-.3 0-.2 0-.3.2-.3h.7l.6-.2c.3 0 .4 0 .5.3 0 0 0 .3-.3.3h-.7z" fill="#008f6e"/><path d="M63.2 57.4h-1.4v.4h1.4v-.2-.2M62 58c-.3 0-.5 0-.5-.3v-.3h.3L63 57c.3 0 .5.2.6.5v.3H63l-1.3.3"/><path d="M60 58c0-.2 0-.4.3-.4l.3.3-.3.2c-.2 0-.3 0-.3-.3" fill="#fff"/><path d="M60.3 57.8H60c0 .2.2.3.3.3v-.2m0 .5c-.3 0-.5-.2-.5-.4 0-.3.2-.5.5-.5.2 0 .4.2.4.4 0 0-.2.3-.4.3"/><path d="M58 58.4l.3-.4h1l-.8.6-.5-.2z" fill="#c9191f"/><path d="M58.2 58.4h.3l.4-.2h-.6l-.2.2zm.3.4l-.7-.3.5-.6h1.3l-1 .8z"/><path d="M71.4 58h.7c.2 0 .4-.2.4-.3 0-.2 0-.3-.3-.3h-.5l-.7-.2s-.3 0-.3.3c0 0 0 .3.3.3h.6z" fill="#008f6e"/><path d="M70.8 57.4h-.2v.2h.2l1.3.2h.3v-.2H72l-1.2-.2zm1.3.7h-1.2c-.2 0-.3-.2-.3-.2v-.3c0-.3 0-.4.4-.4l1 .3h.4v.4c0 .2 0 .4-.3.4"/><path d="M69 57.4s0-.3.3-.3l.3.4c0 .2-.2.3-.3.3-.2 0-.3 0-.3-.3" fill="#fff"/><path d="M69.3 57.3H69c0 .2.2.3.3.3v-.2m0 .4c-.3 0-.5-.2-.5-.4s.2-.4.5-.4c.2 0 .4.2.4.4s-.2.4-.4.4"/><path d="M73.4 58c0-.2 0-.4.3-.4.2 0 .3.2.3.3 0 0 0 .2-.3.2-.2 0-.3 0-.3-.3" fill="#fff"/><path d="M73.7 57.8h-.2c0 .2 0 .3.2.3h.2c0-.2-.2-.2-.3-.2m0 .5c-.2 0-.4-.2-.4-.4 0-.3.2-.5.4-.5s.4.2.4.4c0 0 0 .3-.3.3"/><path d="M76 58.4l-.4-.4h-1l1 .6.4-.2z" fill="#c9191f"/><path d="M75 58.2l.5.3h.3l-.2-.4-.5.2zm.4.6l-1-.8h1.3l.5.5-.8.3zM60 59.5h14c-2-.4-4.4-.7-7-.7-2.6 0-5 .3-7 .7m15 .3H59v-.3c2-.6 5-1 8-1s6 .4 8 1v.3z"/><path d="M60.3 51.5l.4.3.5-1c-.6-.3-1-1-1-1.7 0-1.3 1.5-2.2 3.3-2.2 1 0 1.8.2 2.4.6V47c-.7-.4-1.6-.7-2.5-.7-2 0-3.7 1.2-3.8 2.6 0 1 .4 1.6 1 2l-.4.5z" fill="#d1b30e"/><path d="M60.5 51.5h.2l.4-.6c-.5-.5-1-1-1-2 .2-1.4 1.7-2.4 3.5-2.4 1 0 1.7.2 2.3.6V47c-.6-.4-1.4-.5-2.3-.5-2 0-3.6 1-3.6 2.4 0 .8.2 1.5.7 2l-.2.5zm.2.5l-.6-.5.4-.5c-.5-.5-.8-1-.8-2 0-1.6 1.8-2.8 4-2.8.8 0 1.7.2 2.4.6V47.8l-.2-.2c-.6-.4-1.4-.6-2.3-.6-1.7 0-3 .8-3 2h-.2c0 .8.4 1.4 1 1.8l-.6 1.2z"/><path d="M60.3 51.5c-.7-.5-1-1.2-1-2 0-1 .5-1.7 1.4-2.3-.6.5-1 1-1 1.7 0 1 .4 1.6 1 2l-.4.5z" fill="#d1b30e"/><path d="M59.8 48c-.3.6-.5 1-.5 1.5 0 .7.4 1.3 1 1.8l.2-.3c-.6-.5-1-1-1-2 0-.4.2-.6.3-1m.6 3.7c-1-.7-1.3-1.4-1.3-2.2 0-1 .6-1.8 1.6-2.4l.2.3c-.6.5-1 1-1 1.6 0 .8.4 1.5 1 2l-.4.7z"/><path d="M54 52.4c-.3-.4-.5-1-.5-1.6 0-.4 0-.7.2-1 .6-1.2 2.4-2 4.5-2H60c-.3.2-.3.3-.4.5h-1.4c-2 0-3.6.6-4 1.6-.2.2-.3.5-.3.8 0 .6.2 1.2.7 1.6l-.7 1-.4-.2.5-.8z" fill="#d1b30e"/><path d="M53.8 53.2h.2l.5-.8c-.4-.4-.7-1-.7-1.6 0-.3 0-.6.2-1 .5-1 2.3-1.8 4.2-1.8h1.3l-1.3-.2c-2 0-3.8.8-4.4 2l-.2 1c0 .6.2 1 .6 1.6l-.4.8zm.2.5l-.6-.5.5-.7c-.5-.5-.7-1-.7-1.7 0-.4 0-.8.3-1 .6-1.4 2.5-2.2 4.6-2.2.6 0 1.2 0 1.7.2v.2c-.2 0-.2.2-.3.3H58c-2 0-3.5.7-4 1.7v.8c0 .6 0 1 .6 1.5l-.8 1.4z"/><path d="M54.8 48.6c-.5.3-1 .7-1 1-.3.5-.3.8-.3 1.2 0 .6.2 1.2.6 1.6l-.3.7c-.4-.4-.7-1-.7-1.7 0-1 .7-2 1.8-2.7" fill="#d1b30e"/><path d="M53.4 50.2l-.3 1c0 .7.3 1.2.7 1.7l.2-.5c-.5-.5-.7-1-.7-1.7v-.6m.4 3.2v-.2c-.6-.6-.8-1.2-.8-2 0-1 .6-2 1.8-2.7v.2l-1 1-.2 1c0 .7.2 1.2.6 1.7l-.5 1z"/><path d="M67 46c.4 0 .8.4 1 .8v1.7c0 1 .2 1.8.4 2.3L67 52l-1.5-1.3c.2-.5.3-1.4.3-2.3v-.2c0-.6 0-1 .2-1.4 0-.4.5-.7 1-.7" fill="#d1b30e"/><path d="M65.6 50.6L67 52l1.2-1.4c0-.5-.3-1.3-.3-2.2V48c0-.6 0-1-.2-1.4 0-.3-.4-.6-1-.6-.3 0-.6.3-.7.7v1.4c0 1-.2 1.7-.4 2.2m1.4 1.6l-1.7-1.5c.3-.6.4-1.4.4-2.3V48v-1.4c.2-.5.7-.8 1.2-.8s1 .3 1 .8l.2 1.3v.4c0 1 0 1.7.3 2.2L67 52.3z"/><path d="M67 46.5c.2 0 .4.2.5.4v1.4c0 1 .2 1.7.4 2l-1 1-1-1c.2-.3.3-1 .3-2v-.2-1.3c.2-.3.4-.5.6-.5" fill="#d1b30e"/><path d="M66 50.5l1 .8.7-.8-.3-2V48v-1c0-.2-.3-.3-.5-.3s-.4 0-.4.2V48h-.2v.2c0 .8 0 1.6-.3 2m1 1.2l-1.2-1c.3-.6.4-1.4.4-2.2V48v-1.3c.2-.4.4-.6.7-.6.3 0 .5.2.6.5v1.4c0 .8.2 1.6.4 2v.2l-1 1z"/><path d="M73.6 51.5l-.4.3-.6-1c.7-.3 1-1 1-1.7 0-1.3-1.4-2.2-3.2-2.2-1 0-1.8.2-2.4.6V47c.6-.4 1.4-.7 2.4-.7 2 0 3.7 1.2 3.7 2.6h.2c0 1-.4 1.6-1 2l.4.5z" fill="#d1b30e"/><path d="M72.8 51l.4.6h.2L73 51h.2c.5-.5.8-1.2.8-2 0-1.4-1.7-2.5-3.6-2.5-1 0-1.7 0-2.3.5v.2c.7-.4 1.5-.6 2.4-.6 1.8 0 3.3 1 3.4 2.3 0 1-.4 1.5-1 2m.4 1l-.7-1v-.2c.7-.4 1-1 1-1.7 0-1.2-1.4-2-3-2-1 0-1.8 0-2.4.5v.2-.3l-.2-.4v-.2c.8-.4 1.7-.6 2.6-.6 2 0 3.8 1.2 4 2.7 0 1-.4 1.5-1 2l.3.5-.5.5z"/><path d="M73.6 51.5c.7-.5 1-1.2 1-2 0-1-.5-1.7-1.4-2.3.6.5 1 1 1 1.7 0 1-.4 1.6-1 2l.4.5z" fill="#d1b30e"/><path d="M73.4 51l.2.3c.6-.5 1-1 1-1.8 0-.5-.2-1-.5-1.4.2.4.3.6.3 1 0 1-.3 1.5-1 2m.2.7L73 51h.2c.5-.5.8-1.2.8-2 0-.7-.3-1.2-1-1.7l.3-.2c1 .7 1.5 1.6 1.5 2.5 0 .8-.4 1.5-1.2 2v.2z"/><path d="M79.8 52.4c.4-.4.6-1 .6-1.6 0-.4 0-.7-.2-1-.6-1.2-2.4-2-4.5-2H74c0 .2.2.3.3.5h1.4c2 0 3.6.6 4 1.6.2.2.2.5.2.8 0 .6-.3 1.2-.8 1.6l.7 1 .3-.2-.5-.8z" fill="#d1b30e"/><path d="M79.4 52.4l.5 1V53l-.3-.7c.4-.6.6-1 .6-1.7 0-.3 0-.7-.2-1-.5-1.2-2.3-2-4.3-2-.5 0-1 0-1.4.2h1.4c2 0 3.7.8 4.2 2v.8c0 .6-.2 1.2-.6 1.6m.5 1.3l-1-1.4c.6-.4.8-1 .8-1.5 0-.3 0-.6-.2-.8-.4-1-2-1.7-4-1.7h-1.3c-.2 0-.3-.2-.4-.3l-.2-.2h.2c.5-.2 1-.2 1.7-.2 2 0 4 .8 4.6 2l.3 1.2c0 .6-.3 1.2-.7 1.7l.4.7-.5.5z"/><path d="M79 48.6c.6.3 1 .7 1.2 1l.2 1.2c0 .6-.2 1.2-.6 1.6l.4.7c.4-.4.7-1 .7-1.7 0-1-.8-2-2-2.7" fill="#d1b30e"/><path d="M80 52.5l.2.4c.4-.6.5-1 .5-1.7 0-.3 0-.7-.2-1v.5c0 .6-.2 1.2-.6 1.7m.2 1l-.6-1c.5-.6.7-1 .7-1.7 0-.3 0-.7-.2-1 0-.4-.5-.8-1-1v-.3c1.3.7 2 1.7 2 2.8 0 .7-.2 1.3-.7 2z"/><path d="M66.4 50.8c0-.2.3-.4.5-.4s.5.2.5.4c0 .3-.3.5-.6.5s-.6-.2-.6-.5" fill="#fff"/><path d="M67 50.5c-.3 0-.4 0-.4.3 0 .2 0 .4.3.4.2 0 .3-.2.3-.4s0-.3-.4-.3m0 1c-.4 0-.7-.3-.7-.7 0-.3.3-.6.6-.6s.6.3.6.6c0 .4-.3.7-.7.7"/><path d="M66.4 50c0-.4.3-.6.5-.6s.5.2.5.5c0 .2-.3.4-.6.4s-.6-.2-.6-.5" fill="#fff"/><path d="M67 49.5c-.3 0-.4.2-.4.4 0 0 0 .3.3.3.2 0 .3-.2.3-.4 0-.3 0-.5-.4-.5m0 1c-.4 0-.7-.3-.7-.6 0-.4.3-.7.6-.7s.6.3.6.6c0 .2-.3.5-.7.5"/><path d="M66.5 49c0-.3.2-.5.4-.5s.4.2.4.4c0 0-.2.3-.5.3s-.5-.2-.5-.4" fill="#fff"/><path d="M67 48.6c-.2 0-.3 0-.3.3h.4c0-.3 0-.4-.3-.4m0 .8c-.3 0-.6-.2-.6-.5 0-.4.3-.6.5-.6s.5.2.5.5c0 .2-.3.4-.6.4"/><path d="M66.7 48c0-.2 0-.3.2-.3 0 0 .2 0 .2.3 0 0 0 .2-.3.2-.2 0-.3 0-.3-.2" fill="#fff"/><path d="M67 47.8h-.2v.3h.3v-.2m0 .6c-.3 0-.5-.2-.5-.4 0-.3.2-.5.4-.5s.4.2.4.5c0 .2-.2.4-.5.4"/><path d="M66.7 47h.4c0 .3 0 .4-.3.4-.2 0-.3 0-.3-.3" fill="#fff"/><path d="M67 47.5c-.2 0-.4-.2-.4-.4l.3-.2.3.3c0 .3-.2.5-.4.5"/><path d="M67 53.8h.3v.5c0 .6.6 1.2 1.3 1.2.6 0 1-.4 1.2-1 0 .2.2-.3.2-.3v.5c.2.6.7 1 1.4 1s1.3-.5 1.3-1.2v-.2l.4-.4.3.4v.6c0 .6.5 1.2 1.2 1.2.4 0 .8-.2 1-.6l.3-.3v.4c0 .4.2.8.6 1 0 0 .4 0 1-.6.7-.4 1-.8 1-.8v.5s-.5.8-1 1c-.3.3-.8.5-1 .4-.5 0-.8-.2-1-.6-.2.2-.6.3-1 .3-.7 0-1.3-.5-1.6-1-.4.3-.8.5-1.4.5-.6 0-1.2-.2-1.5-.7-.4.4-1 .5-1.4.5-.7 0-1.3-.3-1.6-.8-.4.5-1 .8-1.6.8-.5 0-1 0-1.3-.5-.3.5-.8.7-1.4.7-.6 0-1-.2-1.4-.6-.3.6-1 1-1.7 1-.4 0-.7 0-1-.2 0 .4-.4.7-.8.7-.3.2-.8 0-1-.2-.7-.3-1.2-1-1.2-1V55l1 1c.6.4 1 .4 1 .4.5 0 .7-.5.7-1v-.3l.3.3c.2.4.6.6 1 .6.7 0 1.3-.6 1.3-1.2 0-.2 0-.4-.2-.6l.3-.5.3.3v.2c0 .7.6 1.2 1.3 1.2.6 0 1.2-.4 1.3-1v-.5.4c.3.5.8 1 1.4 1 .7 0 1.3-.7 1.3-1.3v-.5h.3z" fill="#d1b30e"/><path d="M75.5 56.2v.2c.2.3.5.6.8.6.4 0 1-.2 1-.3.5-.2 1-1 1-1v-.2l-.8.7c-.6.5-1 .5-1 .5h-.2c-.4 0-.6-.4-.6-1-.3.4-.8.6-1.2.6-.8 0-1.4-.6-1.4-1.3 0-.2 0-.4.2-.6V54l-.4.4c0 .8-.6 1.5-1.4 1.5-.7 0-1.4-.6-1.4-1.3-.3.6-.8 1-1.4 1-.8 0-1.5-.7-1.5-1.4 0-.2 0-.3.2-.4h-.4v.3c0 .7-.6 1.3-1.4 1.3-.6 0-1.2-.3-1.4-1 0 .8-.7 1.3-1.4 1.3-.8 0-1.5-.8-1.5-1.5V54l-.2.4v.6c0 .7-.5 1.3-1.3 1.3-.5 0-1-.2-1-.6h-.2c0 .6-.2 1-.7 1 0 0-.6 0-1.2-.5l-.7-.7v.2s.5.8 1 1c.3.2.7.4 1 .3.3 0 .6-.3.7-.6v-.2h.2c.3.3.6.3 1 .3.6 0 1.2-.3 1.5-1h.3c.3.4.8.6 1.3.6s1 0 1.4-.5h.2c.3.3.7.4 1.2.4.6 0 1.2-.4 1.5-.8V55v.2c.4.4 1 .7 1.6.7.4 0 1-.2 1.2-.6h.2c.3.5.8.7 1.4.7.5 0 1 0 1.3-.5h.2c0 .7.8 1 1.5 1 .3 0 .6 0 1-.2zm1 1H76c-.3 0-.6-.2-.8-.6l-1 .2c-.6 0-1.3-.4-1.6-1-.4.4-1 .6-1.4.6-.6 0-1-.3-1.5-.7-.5.3-1 .5-1.4.5-.6 0-1.2-.3-1.6-.8-.4.5-1 .8-1.6.8-.5 0-1-.2-1.3-.5-.3.4-.8.7-1.4.7-.5 0-1-.2-1.4-.6-.3.6-1 1-1.7 1-.3 0-.6 0-1-.2 0 .4-.4.6-.8.7-.4 0-1-.2-1.2-.4-.6-.4-1-1.2-1-1.2v-1l.2.4s.3.4 1 .8c.4.4.8.4 1 .4.3 0 .4-.5.4-.7V55l.6.6c.2.3.5.5 1 .5s1-.4 1-1v-.5l.2-.8.6.6v.2c0 .6.5 1 1.2 1 .6 0 1-.3 1.2-.8v-.2-.4c.3 0 .3.2.4.4v.2c.2.5.7.8 1.2.8.7 0 1.2-.5 1.2-1v-.8h.9v.5c0 .6.4 1 1 1s1-.2 1.2-.7v-.2l.3-.3c.2 0 .2.2.2.5v.2c0 .5.6 1 1.2 1s1.2-.6 1.2-1.2v-.2l.6-.6.3.7-.2.6c0 .6.5 1 1.2 1 .4 0 .7 0 1-.4l.4-.7v.7c0 .2 0 .7.4.8 0 0 .4 0 1-.5l1-.8V55l.2.7s-.6 1-1.2 1.2c0 0-.6.3-1 .3"/><path d="M76 55.4V55c-.2 0-.4 0-.5.2v.5c.3 0 .5 0 .6-.3" fill="#fff"/><path d="M76 55c-.2 0-.3 0-.4.3v.2h.3V55zm-.3 1v-.2c-.2 0-.3 0-.3-.2v-.4c0-.3.3-.5.5-.4l.2.2v.4c0 .3-.3.5-.5.5"/><path d="M70.3 54.3c0-.2 0-.4-.2-.5 0 0-.3.2-.3.4 0 .3 0 .5.3.5 0 0 .3-.2.3-.4" fill="#fff"/><path d="M70 54l-.2.2c0 .2 0 .3.2.4l.2-.3V54zm0 .8c-.3 0-.5-.3-.4-.6 0-.3.2-.5.4-.5s.3 0 .3.2c0 0 .2 0 0 .3 0 .3 0 .5-.3.5"/><path d="M63.6 54.3c0-.2 0-.4.3-.5l.3.4c0 .3 0 .5-.3.5-.2 0-.3-.2-.4-.4" fill="#fff"/><path d="M64 54h-.2v.3s0 .3.2.3c0 0 .2-.2 0-.4V54m0 .8c-.2 0-.4-.2-.5-.5V54l.4-.3c.2 0 .4.2.4.5s0 .6-.4.6z"/><path d="M58 55.4c-.2-.2 0-.4 0-.5.2 0 .4 0 .5.2 0 .2 0 .5-.2.5 0 0-.3 0-.4-.3" fill="#fff"/><path d="M58 55v.4l.3.2v-.3c0-.2 0-.3-.2-.3m.3 1c-.2 0-.4-.3-.5-.6V55s0-.2.2-.2c.3 0 .5 0 .6.4v.5h-.2v.2"/><path d="M60.4 51.6c.3.2.5.5.6.8l.2-.2h.3V53l-.3.6s-.3-.2-.4 0h-.4s-.2 0-.3-.3l-.2-.5-.2-.3h.3c0-.3.2-.7.4-1" fill="#d1b30e"/><path d="M59.8 52.6s0 .2.2.3l.2.3s0 .2.2.2c0 0 .2 0 .3-.2h.4c.2 0 .2 0 .2-.2v-.3-.2l.2-.2H61v.5-.4l-.6-.7-.2.8v.4l-.2-.4h-.2m.6 1.3v-.2l-.4-.4-.3-.4v-.2l-.2-.3v-.2h.4c0-.3 0-.6.3-.8h.2c.2 0 .5.4.6.7h.2c0-.2.3-.2.3-.2h.2v.5s-.2 0-.2.2v.4c0 .4-.2.6-.2.6v.2H61c0-.2 0-.2-.2-.2 0 0-.2 0-.3.2z"/><path d="M60.5 54.3s0-.2-.2-.3v-.3l-.4-.2h-.7-.3c0 .2.2.3.2.3-.4 0-.7.3-.8.6.2 0 .6.3 1 .2v.3l.7-.3.5-.4" fill="#d1b30e"/><path d="M59.5 54.5v.2c.2 0 .4 0 .6-.2.2 0 .3 0 .3-.2V54v-.2s-.3 0-.4-.2h-.7v.3c-.3 0-.6 0-.8.3.3.2.5.2.8.2h.2zm-.4.7V55l.2-.2-1-.3v-.2c.2-.3.5-.5.8-.6v-.2l-.2-.2H60l.5.3V54.2h.2v.2l-.5.4-.6.2h-.3l-.2.2z"/><path d="M61.3 54.2V54v-.4s0-.2.3-.4l.5-.2h.4v.3c.3 0 .7 0 1 .2-.2.3-.5.5-1 .6l.3.3h-.3-1.1" fill="#d1b30e"/><path d="M61.5 54c0 .2.2.2.3.3h.6V54c.3 0 .6-.2.8-.4-.3-.2-.6-.2-.8-.2h-.2v-.2h-.6l-.2.4v.5m1.5.6h-.6-.6l-.6-.3V54v-.3H61v-.2l.5-.4h.6l.4-.2h.2v.2l.8.4v.2c0 .3-.4.5-.7.6v.2l.2.2z"/><path d="M60.3 54c0-.4.2-.6.6-.6.2 0 .4.2.4.5 0 .2-.2.5-.5.5-.5 0-.7-.3-.7-.6" fill="#c9191f"/><path d="M61 53.5c-.4 0-.6.2-.6.4s.2.4.5.4c0 0 .3-.2.3-.5s-.2-.5-.4-.5m0 1c-.5 0-1-.2-1-.6 0-.4.5-.7 1-.7.2 0 .6.3.6.6s-.4.6-.7.6"/><path d="M67 50.7c.3.2.5.6.5 1h.2l.4-.2v.4l-.3.6c0 .3-.3.5-.3.5h-.9l-.3-.4c0-.3 0-.6-.2-.7v-.5h.2c.2 0 .3.2.3.2 0-.4.2-.8.5-1" fill="#d1b30e"/><path d="M66 51.7v.2h.2c0 .2 0 .4.2.5v.4c.4-.3.8-.3 1 0 0-.2 0-.3.2-.5 0 0 0-.3.2-.4v-.3h-.2l-.2.4v-.3c0-.3-.2-.6-.4-.8-.3 0-.4.4-.4.7v.4l-.2-.2h-.2m1.2 1.5V53h-.8v.3l-.2-.2-.3-.4V52l-.2-.4v-.2h.5c0-.2.3-.6.6-.8.3.2.5.6.6 1l.5-.2h.2v.2s0 .3-.2.4c0 .3 0 .5-.2.6 0 .3-.3.5-.3.5v.3z"/><path d="M66.5 53.8v-.4-.3L66 53l-.7-.2H65v.3c-.3 0-.6.2-1 .4.4.3.7.5 1 .5v.3h.3s.5 0 .7-.2c.3 0 .5-.2.5-.2z" fill="#d1b30e"/><path d="M64.3 53.4c.2.2.6.3 1 .4v.4l.7-.2.4-.3v-.3-.3H66c-.2-.2-.5-.3-.7-.3v.2c-.4 0-.8.2-1 .4m.5 1V54h.2c-.4 0-.7-.2-1-.5v-.2l1-.5v-.3h-.2H66l.6.5V54l-.5.2s-.4 0-.6.2H64.8z"/><path d="M67.4 53.8l.2-.4s0-.2-.2-.3c0 0 .3 0 .5-.2l.6-.2h.4c0 .2-.2.3-.2.3.4 0 .8.2 1 .4-.2.3-.6.5-1 .5l.2.3h-.4s-.5 0-.7-.2l-.6-.2z" fill="#d1b30e"/><path d="M67.6 53.7l.4.3h.6l.2.2V54l-.2-.2h.2c.3 0 .6-.2.8-.4-.2-.2-.5-.3-.8-.3h-.2s0-.2.2-.3h-.2s-.5 0-.6.2h-.4v.7m1.5.8h-.4c-.2-.2-.5-.2-.7-.3-.4 0-.6-.3-.7-.3v-.2-.4-.3l.6-.4h.6l.5-.2v.3l1 .6v.2c-.3.3-.7.4-1 .5v.5z"/><path d="M73.6 51.6c-.3.2-.6.5-.6.8l-.2-.2h-.3V53l.3.6s.3-.2.4 0h.4l.3-.3c0-.2 0-.4.2-.5l.2-.3H74 74c0-.3 0-.7-.2-1" fill="#d1b30e"/><path d="M73 53.3h.2c.2 0 .3 0 .4.2l.2-.2c0-.2 0-.3.2-.4v-.3h.2-.3l-.3.2v-.5c0-.2 0-.5-.2-.8l-.4.7v.3l-.2-.3h-.2v.7l.2.4h.3m.5.5v-.2l-.3-.2H73l-.2.2v-.2l-.3-.5v-.3-.2l-.2-.3V52h.5v.2c.2-.3.4-.6.7-.7h.2c.2.2.3.5.3.8H74.7v.2l-.3.3v.2l-.3.4-.3.4h-.2z"/><path d="M73.4 54.3l.2-.3v-.3l.5-.2h1c0 .2-.2.3-.2.3.3 0 .6.3.8.6-.3 0-.6.3-1 .2v.3h-.2l-.6-.3-.4-.4" fill="#d1b30e"/><path d="M73.6 54.3l.3.2.4.3h.2v-.3c.3 0 .6 0 .8-.2 0-.2-.4-.3-.6-.4h-.2v-.3h.2-.7-.3v.6m1 1V55h-.3c-.2 0-.5 0-.6-.2l-.4-.4V54 54v-.4s.4 0 .6-.2h1.2s0 .2-.2.3c.3 0 .5.3.7.6v.2l-1 .2v.5z"/><path d="M72.7 54.2V54v-.4s0-.2-.3-.4l-.6-.2h-.3v.3c-.2 0-.6 0-1 .2.3.3.6.5 1 .6 0 0 0 .2-.2.3h1.4z" fill="#d1b30e"/><path d="M70.8 53.6l.7.4h.2v.2h-.2 1v-.4-.2s0-.2-.2-.3l-.5-.2v.4h-.2c-.3 0-.5 0-.8.2m.3 1v-.2l.2-.2c-.2 0-.5-.3-.7-.6v-.2c.3-.2.6-.3 1-.3v-.3s.3 0 .4.2h.5l.4.5v.2c-.2 0-.2 0-.3.2l.2.3h-.3s-.3 0-.5.2H71z"/><path d="M72.5 54c0-.4.3-.6.6-.6.4 0 .7.2.7.5 0 .2-.3.5-.6.5-.2 0-.5-.3-.5-.6" fill="#c9191f"/><path d="M73 53.5s-.3.2-.3.4.2.4.4.4c.4 0 .6-.2.6-.5s-.2-.5-.5-.5m0 1c-.3 0-.6-.2-.6-.6 0-.4.3-.7.7-.7.5 0 .8.3.8.6s-.3.6-.7.6"/><path d="M79 55.2c0-.2-.4-.2-.6 0-.2.2-.3.5 0 .6 0 .2.3 0 .5 0 0-.2.2-.5 0-.6" fill="#c9191f"/><path d="M78.8 55.2h-.3l-.2.4c0 .2.2.2.2.2h.3l.2-.4v-.2h-.2m-.3.8h-.3v-.4-.5h1v.4s0 .3-.2.4c0 .2-.3.2-.5.2"/><path d="M78.2 55.5s0-.2.2-.3c.2-.2.5-.2.6 0l.7-.7c.4-.2 1-.2 1-.2 0-.4-.4-.7-.8-.7s-.6 0-.8.3v-.4s-.4 0-.6.5v1s0-.2-.2-.3c0-.2-.5-.4-.7-.5l-.3-.2v.4h-1c0 .4.3.6.6.7 0 0 0 .2-.2.3v.2H78" fill="#d1b30e"/><path d="M78.8 55h.3c.2-.2.4-.5.7-.6.2-.2.6-.2.8-.2 0-.3-.3-.5-.6-.5s-.6 0-.7.2H79v-.3l-.3.4v1m-1.8.4h1.1c.2 0 .2-.2.3-.3h.2s0-.2-.2-.3l-.6-.4h-.2v.2h-1c0 .3.3.4.6.5h.3l-.2.2v.2m.7.3H77h-.5v-.3l.2-.2c0-.2-.4-.4-.5-.6v-.2l1-.2v-.4h.2l.4.3.6.5V54c.3-.5.7-.5.7-.5H80c.4 0 .8.3.8.8v.2h-1l-.6.8v.2l-.2-.2h-.2-.3s0 .2-.2.2l-.5.2"/><path d="M55.8 55.5s0-.2-.2-.3c-.3-.2-.5-.2-.7 0 0 0-.4-.5-.8-.7-.3-.2-1-.2-1-.2 0-.4.4-.7 1-.7.2 0 .4 0 .6.3v-.4s.4 0 .6.5v1s0-.2.2-.3c0-.2.5-.4.6-.5l.4-.2v.4h1c0 .4-.3.6-.7.7 0 0 0 .2.2.3v.2h-1.1-.4" fill="#d1b30e"/><path d="M53.5 54.2c.2 0 .5 0 .8.2.3 0 .5.4.6.6h.2c0-.2.2-.6 0-1l-.3-.3-.2.4-.7-.3c-.2 0-.5.2-.6.5m2.4 1.2H57v-.2h-.3l.2-.2.5-.4h-1v-.2-.2h-.2l-.6.5-.2.3.3.4m.5.3h-.6v-.2l-.2-.2h-.3-.2v.2l-.2-.2-.6-.7h-.7-.2v-.3c0-.5.3-1 .8-1 .3 0 .5.2.7.3v-.2c.2 0 .6 0 .8.6v.5l.7-.4h.3l.2-.2v.4c.4 0 .7 0 1 .2v.2c0 .2-.3.4-.5.6.2 0 .2.2.2.2v.2h-1.1"/><path d="M55 55.2c0-.2.3-.2.6 0 .2.2.2.5 0 .6 0 .2-.3 0-.5 0 0-.2-.2-.5 0-.6" fill="#c9191f"/><path d="M55.2 55.2H55v.5h.5v-.4h-.3m.3.7c-.2 0-.4 0-.5-.2-.2 0-.3-.3-.3-.4V55h1l.2.6s0 .2-.2.3h-.3"/><path d="M66.4 53.4c0-.3.3-.5.6-.5s.6 0 .6.4c0 .3-.3.6-.6.6s-.6-.3-.6-.6" fill="#c9191f"/><path d="M67 53c-.3 0-.5.2-.5.4 0 .3.2.4.5.4.2 0 .4 0 .4-.4 0-.2-.2-.4-.4-.4m0 1c-.4 0-.7-.2-.7-.6 0-.4.3-.7.7-.7.4 0 .7.3.7.7 0 .4-.3.7-.7.7"/><path d="M65.8 45c0-.6.5-1 1.2-1 .6 0 1 .4 1 1s-.4 1.2-1 1.2c-.7 0-1.2-.6-1.2-1.2" fill="#005fb0"/><path d="M67 44c-.6 0-1 .5-1 1 0 .6.4 1 1 1 .5 0 1-.4 1-1 0-.5-.5-1-1-1m0 2.3c-.8 0-1.4-.6-1.4-1.3 0-.7.6-1.2 1.4-1.2.7 0 1.3.5 1.3 1.2s-.6 1.3-1.3 1.3"/><path d="M66.6 42v.5H66v.6h.6v2h-.8v.5H68V45h-.7v-2h.6v-.5h-.7V42h-.7z" fill="#d1b30e"/><path d="M66 45.4h2V45h-.8v-2h.6v-.4h-.6V42h-.4v.6H66v.4h.8v2h-1v.4m2.3.2h-2.2l-.2-.6v-.2h1V43h-.7v-1h.5V42h1v.7h.6v.8h-.6v1.5h.8v.7z"/><path d="M67 92.6c-3.4 0-7-1-10-2.3-2-1-3.4-3.2-3.4-5.7v-9h27v9c0 2.5-1.5 4.6-3.7 5.7-3 1.4-6.4 2.3-10 2.3" fill="#cfcdcd"/><path d="M53.7 75.8v8.8c0 2.4 1.3 4.5 3.5 5.6 3 1.5 6.5 2.3 10 2.3 3.2 0 6.6-.8 9.7-2.3 2-1 3.4-3.2 3.4-5.6v-8.8H53.7zm13.4 17c-3.3 0-7-1-10-2.4-2.2-1-3.6-3.3-3.6-5.8v-9h27.3v9c0 2.5-1.4 4.7-3.7 5.8-3 1.5-6.5 2.3-10 2.3"/><path fill="#cfcdcd" d="M67 60.7h13.5v15H67z"/><path d="M67 75.5h13.4V60.8H67v14.7zm13.7.3H67V60.6h13.7v15.2z"/><path d="M67 84.6c0 3.5-3 6.4-6.7 6.4s-6.8-3-6.8-6.4v-9H67v9z" fill="#c9191f"/><path d="M56.5 90c.4 0 1 .5 1.6.6V75.3h-1.5V90z" fill="#d1b30e"/><path d="M56.6 89.8h.2c.3.3.7.5 1.2.7v-15h-1.4v14.3zm1.6 1l-1.5-.7h-.3V75.2h1.8V91z"/><path d="M53.5 84.5c0 2 .8 3.3 1.6 4.2V75.4h-1.5v9z" fill="#d1b30e"/><path d="M53.7 75.5v9c0 1.7.6 3 1.2 3.8V75.5h-1.3zM55 88.8c-.7-1-1.6-2.3-1.6-4.3v-9-.2h1.9v13.4"/><path d="M59.5 91H61V75.3h-1.5V91z" fill="#cdb70c"/><path d="M59.6 91H61V75.4h-1.4V91zm.7 0h-.8V75.3H61v16h-1"/><path d="M62.5 90.6c.6 0 1.3-.5 1.6-.7V75.2h-1.5v15.3z" fill="#d1b30e"/><path d="M62.6 75.5v15L64 90V75.4h-1.4zm-.3 15.3V75.2h2V90H64l-1.5.8h-.2z"/><path fill="#c9191f" d="M53.5 60.7H67v15H53.5z"/><path d="M53.7 75.5H67V60.8H53.6v14.7zm13.4.3H53.5V60.6H67v15.2z"/><path d="M65.5 88.5c.7-.5 1.3-2 1.5-3.4v-9.7h-1.5v13.2z" fill="#d1b30e"/><path d="M65.6 75.5v12.7c.6-.6 1-1.8 1.3-3v-9.7h-1.4zm-.2 13.3V75.2h1.8v10c-.3 1.4-1 2.8-1.6 3.4l-.2.2z"/><path d="M53.7 75.8v8.8c0 3.5 3 6.3 6.6 6.3 3.6 0 6.6-3 6.6-6.4v-8.8H53.6zM60.3 91c-3.8 0-7-2.8-7-6.4v-9h14v9c0 3.6-3.2 6.5-7 6.5"/><path d="M80.6 75.6v9c0 3.5-3 6.4-6.8 6.4-3.7 0-6.8-3-6.8-6.4v-9h13.6z" fill="#c9191f"/><path d="M67.2 75.8v8.8c0 3.5 3 6.3 6.6 6.3 3.7 0 6.6-3 6.6-6.4v-8.8H67zM73.8 91c-3.8 0-7-2.8-7-6.4v-9h14v9c0 3.6-3.2 6.5-7 6.5"/><path d="M73.5 86.7H73v-1.3h.5v1.3zm.5 0h.4v-1.3H74v1.3zm-.6 2.2c0-.3.2-.4.3-.4.2 0 .4 0 .4.3 0 0 0 .2-.3.2 0 0-.3 0-.3-.3m3.3-6.2l-.2.4h-1.2l-.2-.4h1.7zm-6 0l.2.4H72v-.4H71zm5.7 2.4l.3-.4-1-1-.3.3 1 1.2zm-.3.3l-.4.2-.8-1 .2-.3 1 1zm.7 2.6c-.4.4-1 .7-1.4.8l.4.4 1-.6V88zm-.3-.3c-.4.3-.8.6-1.3.7V88c.4 0 .8-.3 1-.6l.4.3zM78 84h-.5v1.2l.4.2V84zm.4 1.4h.5V84h-.5v1.4m-.7 1.2h-.4c-.2 0-.2.3 0 .4 0 0 .2.2.4 0v-.4M76 88l.3.4 1-1c.3.2.5 0 .7 0 .3-.3.4-.7 0-1 .3-.5.4-1 .4-1.4H78c0 .4-.2.8-.3 1 0 0-.3 0-.4.2L76 85l-.2.2 1 1.3c0 .2 0 .5.2.7l-1 .8m-5-2.8l-.2-.4.8-1 .4.3-1 1.2zm.4.3l.4.2 1-1-.4-.3-1 1zm-.6 2.6c.4.4.8.7 1.3.8l-.2.4-1-.6V88zm.2-.3l1.4.7V88c-.4 0-.7-.3-1-.6l-.4.3zM69.4 84h.5v1.2l-.5.2V84zm-.3 1.4h-.4V84h.4v1.4m.6 1.2h.5c.2 0 .2.3 0 .4 0 0-.2.2-.3 0-.2 0-.2-.2 0-.4m1.6 1.4l-.2.4-1-1c0 .2-.4 0-.6 0-.3-.3-.4-.7 0-1-.2-.5-.4-1-.4-1.4h.5c0 .4 0 .8.3 1 0 0 .2 0 .3.2l1.3-1.3.3.2-1 1.3v.7c0 .3.4.6.7.8m3 .6c.5 0 .8-.2 1-.3l.4.4-1.2.3c0 .3-.4.6-.8.6-.3 0-.6-.2-.7-.6-.4 0-.8 0-1.2-.3l.2-.4c.3.2.7.2 1 .3l.5-.4v-2h.5v2c.2 0 .3.2.4.4m2-6.2v.4h1l.6.4v1h.4v-1c.3 0 .6-.3.6-.7h-.5c0 .2 0 .3-.3.3 0 0-.3 0-.3-.3h-1.7zm-.8 0v.4h-1.2l1.3 1.6-.4.3-1.3-1.5v2.4h-.5v-2.4L72 84.7l-.2-.3L73 83v-.2h-1v-.4h3.6zm-6 0c0 .3-.2.4-.4.4s-.3 0-.3-.3h-.5c0 .4.2.6.5.7v1h.4v-1c.3 0 .4-.2.5-.4h1v-.4h-1.5z" fill="#d1b30e"/><path d="M74 78.8h.4v1.3l-.4.2v-1.4zm-.5 0H73v1.3l.5.2v-1.4zm1.7-1.4V77h1.4v.4h-1.4zm0 .4v.5h1.4v-.5h-1.4zm-1.8-.2c0-.2 0-.3.3-.3.2 0 .3 0 .3.3 0 .2 0 .3-.3.3-.2 0-.3-.2-.3-.4m4.5 0c0-.2 0-.3.2-.3s.3 0 .3.3c0 .2 0 .3-.3.3 0 0-.3-.2-.3-.4m-1.3 4.8l-.2-.5h-1.2l-.2.4h1.7zm-4.4-5V77h-1.4l-.2.4h1.5zm0 .4v.5h-1.4l-.2-.5h1.5zm-3.4-.2c0-.2 0-.3.2-.3s.3 0 .3.3c0 .2 0 .3-.3.3 0 0-.3-.2-.3-.4m1.8 4.8V82h1.4v.4H71zm5.7-2.6l.2.4-.8 1-.5-.3 1-1.2zm-.4-.3h-.3l-1 .8.4.4 1-1.2zm-5 .4l-.3.2.8 1 .5-.2-1-1zm.3-.4l.4-.2 1 1-.4.3-1-1zm7-.3l.6.2v1.2h-.6v-1.4zm-.3 0l-.5.2v1.2h.5v-1.4zm-8.6 0l.5.2v1.2h-.6v-1.4zm-.4 0l-.5.2v1.2h.5v-1.4zm5-1v.8h-.5v-.7c-.2 0-.4-.3-.5-.5h-1v-.4h1c0-.3.4-.5.7-.5.3 0 .6 0 .7.4h1v.4h-1c0 .2-.2.4-.4.4m4.5 0v1.5H78v-1.5l-1.8 2-.3-.4 1.6-2h-1.3v-.4h1.2c0-.3.4-.5.7-.5.4 0 .8.2.8.6 0 .3-.2.6-.5.7m-9 0l1.7 1.8h.4l-1.8-2v-.2h1.4v-.4H70c-.2-.3-.4-.5-.8-.5s-.7.2-.7.6c0 .3.2.6.5.6v1.5h.4v-1.4m8.5 4h.9l-.6-.4v-1.6H78V82c-.2 0-.4 0-.5.3h-1.2H78zm-6 0h1l-1.3-1.6.3-.3 1.4 1.5v-2.2h.6v2l1.4-1.4.3.2-1.3 1.6v.2h1.2H72zm-3.5 0s.2-.3.5-.4v-1.6h.4V82c.3 0 .4 0 .5.3h1-1.5-.3-.8z" fill="#d1b30e"/><path d="M69.5 78v.2l1.7 1.8.2-.2-1.7-1.8v-.2H71v-.3h-1.2c0-.3-.3-.5-.6-.5s-.6.3-.6.6c0 .2.2.4.4.5V79.7h.3v-1.4h.2zm1.7 2.3l-1.6-1.8v1.3H69v-1.5c-.4 0-.6-.4-.6-.7 0-.5.4-.8.8-.8s.7.2.8.4h1.3v.7H70l1.7 2-.5.3zm2.4 5.2h.2V83h.3l1.3 1.5h.2l-1.3-1.6v-.4h1.2-1v-.2-.2H74l1.4-1.6h-.2L74 82h-.2v-2h-.2v2h-.2L72 80.7l1.2 1.6v.2H72v.2h1.2v.2L72 84.5l1.4-1.4h.2v2.5zm.5.3h-.6v-2.4L72 84.8l-.4-.4L73 83h-1.2V82h1l-1.3-1.5.5-.5 1.4 1.5v-2h.7v2l1.4-1.5.5.4-1.5 1.6h1.2v.7h-1.2l1.3 1.4-.5.4-1.2-1.3v2.3zm-4 1h-.3v.2h.3v-.2m0 .5h-.4l-.2-.4v-.4c.3-.2.6-.2.8 0v.5c0 .2-.2.3-.3.3m-1-3h.3V83c.3 0 .4 0 .5-.3H71v-.2h-1.2c0-.3-.2-.4-.4-.5v-1.5H69V82c-.2 0-.4.3-.4.5 0 .3.2.5.4.6v1.2zm0 .6h.3V84.3H69v.5m.6-1v1.2h.2V84.5 84h-.2zm-1 1.2h.3V85 84l-.4.2v1zM71 88s.2 0 .3.2l.2-.2c-.2 0-.3-.2-.4-.3l-.4-.4v-.8l1-1.3-1.2 1H69.5c0-.2 0-.5-.2-.7V85H69s.2 0 .2.2c0 .3 0 .6.3 1-.2.2-.2.3-.2.5 0 0 0 .2.2.3h.8l.6.7m.4-.3c.3.3.7.4 1 .6V88l-1-.4zm0 .6l.5.2c0-.2-.2-.3-.3-.4v.3zm-.4.2l1 .5v-.2h-.2c-.2 0-.3-.2-.4-.3H71l-.2-.2v.2zm1.4.2l.8.2h.2c0 .3.3.5.5.5.3 0 .6-.2.6-.5.5 0 1-.2 1.2-.4h-1.2l-.4-.3h-.2v-1.8h-.2v1.8c-.2 0-.3.2-.4.4h-.8l-.2-.2H72c0 .2 0 .2.2.2zm1.5 1c-.3 0-.6-.2-.8-.5L72 89l-.4.3-1.2-.6V88l-.6-.6h-.7l-.3-.7c0-.3 0-.5.2-.7 0-.3-.2-.5-.3-.8h-.5V84l.4-.2v-.5c-.4 0-.7-.4-.7-.8 0-.3.3-.6.6-.7v-1.5h.6v1.5c.2 0 .3.2.4.4h1.3v.7H70l-.4.3v.5h.4v1.4l-.3.2v.6h.4l1.3-1.3.5.5-1.2 1.3c.2.2.2.5 0 .7l.4.4.3-.3 1.2.6v.4h.5l.4-.3v-1.8h.7v2c.3 0 .4 0 .5.3l1-.3.4.5h-.3c-.3.3-.7.4-1 .4-.3.5-.6.7-1 .7" fill="#d1b30e"/><path d="M73.6 79h.2v-.8c.3 0 .4-.3.5-.4h1v-.3h-1c0-.3-.3-.5-.6-.5-.2 0-.5.2-.6.4h-1v.3h1c.2.2.3.4.5.4v1zm.5.3h-.6v-1c-.2 0-.4-.2-.5-.4h-1.2V77h1c.3-.2.6-.4 1-.4.3 0 .6.2.7.4h1.2v.7h-1.2l-.4.3v1zm-5.4 1.3h.3v-1h-.4v1zm.5.4l-.6-.2v-1.4l.7-.2V81zm.6-1.5v1h.2v-1h-.2zm-.3 1.5v-1.8l.7.2v1.4l-.7.2zm0 1.4H69c0 .2 0 .3.2.3 0 0 .2 0 .2-.2h-.2m0 .5c-.2 0-.4-.2-.4-.5 0-.2.2-.4.4-.4s.4.3.4.5c0 .3-.2.5-.4.5m1.7 1.8v.2l.8-1h-.2l-.7.8zm0 .6l-.4-.6 1-1 .6.2-1.2 1.4zm.6 0h.2l.7-.7-1 .7zm.3.4l-.8-.3 1.2-1.3.4.6-1 1zm5.6 1h-.2c0 .2.2.2.3.2v-.2m0 .5c-.3 0-.4 0-.5-.2V87v-.3h.7v.4l-.2.2h-.2M76 80h.2L78 78V79.7h.3v-1.4c.4 0 .5-.4.5-.6 0-.3-.2-.6-.6-.6-.2 0-.5.2-.5.4h-1.3v.3h1.2v.2L76 79.8zm1.6.8h.3v-1h-.4v1zm-1.2 2h1.2c0 .3.3.4.4.5v1.2h.3v-1c.4-.2.5-.4.5-.7 0-.2 0-.4-.4-.5v-1.5H78V82c-.2 0-.3.2-.4.4h-1.2v.2zm1.7 1.8v.5h.3V84.3H78zm-.4.7l.2.2V84h-.2v1.1m1 0v.2l.2-1h-.2v.7zm-2.3 3v.2s.2 0 .3-.2l.6-.6h.8l.2-.5c0-.3 0-.4-.2-.5v-.2l.2-.8V85c0 .2 0 .3-.2.4 0 .3 0 .6-.2.8h-.5l-1.2-1 1 1.3v.7c-.2.4-.4.6-.7.8M75 88l.2.3c.3-.2.7-.3 1-.6-.4 0-.7.2-1 .4m.3 1h.2c.3 0 .6-.3 1-.5v-.2c-.2 0-.2 0-.3.2l-1 .4m.2.3l-.5-.5h.3l.8-.5V88c-.2.3-.6.5-1 .6l-.2-.7c.5-.3 1-.4 1.2-.7l.4.3c.2 0 .3-.3.4-.4v-.7l-1.2-1.3.6-.5 1 1.3h.4c0-.2 0-.4.2-.6h-.5V85v-.6-.6l.6-.2v-.5c-.3 0-.5-.2-.5-.4h-1.3V82h1.2c0-.2.3-.3.5-.4v-1h-.6v-1.4l.5-.2v-.8l-1.8 2-.5-.6 1.7-2h-1.2v-.6h1.2c.2-.2.5-.4.8-.4.5 0 1 .3 1 .8 0 .3-.3.6-.6.7v1.5H78v.5h.6v1.5c.3 0 .5.4.5.7 0 .4 0 .7-.4.8v.5l.4.2v1.4h-.5c0 .4-.2.6-.3 1 .2 0 .2.3.2.5 0 0 0 .3-.3.5 0 0-.4.2-.6 0l-.6.7v.4l-1 .7h-.2z" fill="#d1b30e"/><path d="M71 77.2h1V77h-1v.2zm1.5.3h-2l.3-.7h1.5l.2.7zm2.8-.3h1.2V77h-1l-.2.2zm1.6.3h-2l.2-.7h1.5l.2.7zm-7.8 0H69c0 .2 0 .3.2.3 0 0 .2 0 .2-.2 0 0 0-.2-.2-.2m0 .6c-.2 0-.4-.2-.4-.4s.2-.4.4-.4c.3 0 .5.2.5.4s-.2.4-.5.4m4.5-.6s-.2 0-.2.2c0 0 0 .2.2.2 0 0 .2 0 .2-.2l-.3-.2m0 .6c-.2 0-.4-.2-.4-.4s.2-.4.4-.4c.3 0 .5.2.5.4s-.2.4-.5.4m4.5-.6s-.2 0-.2.2c0 0 0 .2.2.2 0 0 .2 0 .2-.2 0 0 0-.2-.2-.2m0 .6c-.2 0-.4-.2-.4-.4s.2-.4.4-.4c.3 0 .5.2.5.4s-.2.4-.5.4M71 78h1-1zm1.3.4h-1.5l-.2-.7h2l-.3.7zm3-.3h1.2-1.2zm1.4.4h-1.5l-.2-.7h2l-.3.7zm-1.7 2l1-.8h-.3l-.7.7zm0 .5l-.3-.7 1-1 .6.2L75 81zm-3.5-1.4l.8 1v-.3l-.6-.8h-.2zm.8 1.3L71 79.4l.8-.3 1 1-.5.7zm6.3-1.5v1h.2v-1h-.2zm-.3 1.5v-1.8l.7.2v1.4l-.7.2zm-2.6 0h.2l.6-.8V80l-1 1zm.3.3l-.7-.3 1.2-1.4.4.6-1 1zm-5.2-1l.7.7h.2l-.7-1-.2.2zm.7 1l-1-1 .4-.6L72 81l-.7.3zm-.6 1h1V82h-1v.2zm1.5.2h-2l.3-.7h1.5l.2.7zm2.8-.3h1.2V82h-1l-.2.2zm1.6.3h-2l.2-.7h1.4l.3.7zm1.2 0H78s0 .2.2.2c0 0 .2 0 .2-.2h-.2m0 .5c-.2 0-.4-.2-.4-.5 0-.2.2-.4.4-.4.3 0 .5.3.5.5 0 .3-.2.5-.5.5M71 83h1-1zm1.3.3h-1.5l-.2-.6h2l-.3.6zm3-.2h1.2-1.2zm1.3.3h-1.4l-.2-.6h2l-.4.6zm-1 .8l.8 1v-.2L76 84h-.2zm.8 1.4L75.2 84l.7-.3.8 1-.4.7zm-1.5-.7l.6.8h.2l-.7-1v.2zm.6 1l-1-1 .4-.5 1.3 1.3-.7.3zm-2.4.8h.2v-1h-.2v1zm.4.4l-.7-.3v-1.4l.6-.2v2zm.5-1.6v1.2h.3v-1l-.2-.2zM74 87v-2l.8.3v1.4l-.8.2zm0 1.7c-.2 0-.2 0-.2.2h.3c0-.2 0-.3-.3-.3m0 .6c-.2 0-.4-.2-.4-.4 0-.3.2-.5.4-.5.3 0 .5.2.5.4 0 0-.2.3-.5.3M74 79v1h.3v-1H74zm-.2 1.4v-1.8l.8.2v1.4l-.8.2zm-.6-.4h.2v-1h-.2v1zm.4.4l-.7-.2v-1.4l.6-.2v1.8z" fill="#d1b30e"/><path d="M73 82.6c0-.4.3-.7.7-.7.5 0 .8.2.8.6 0 .3-.3.7-.8.7-.4 0-.7-.4-.7-.7" fill="#008f6e"/><path d="M74 64.4v-.2h-.7l-.7-.5c-.2 0-.3-.3-.4-.3h-.7l.5.5c.2 0 .5.3.5.3H74z" fill="#fd4344"/><path d="M71.8 63.6s.2 0 .3.2l.6.4h.5c-.2 0-.4-.2-.6-.4h-.2c0-.2-.2-.2-.2-.3h-.4m2.2 1h-.6-.2-.8L72 64l-.5-.4h-.2l.2-.2s.3-.2.7 0h.4v.2l.7.4H74v.5z"/><path d="M76 63.8v1.4c-.2 0-.3-.2-.3-.2v.3c0 .2 0 .3.2.4v.4c.2 0 .2.4.2.4s0-.2-.2-.3l-.4-.2.2.4v.4l-.3-.3-.3-.2.2.6v.7L75 67s0-.2-.2-.2l.2.3c0 .2 0 .7.5 1.4.2.3.6 1 1.5.8.8-.3.5-1.4.3-2-.2-.4-.2-1-.2-1.2l.2-1v-.8c0-.4.2-.5.3-.7v-.3-.4l.3.4v.4s0-.3.3-.4l.7-.4v-.2.8c-.2 0-.5.5-.5.5s0-.2.3-.2h.2l-.4.5-.2.6s-.2 0-.4.3c-.3.2-.2 1.2 0 1.3l.4 1.6c0 .2 0 1-.4 1.2-.3.3-.8.3-1 .4 0 0-.3.3-.3.8 0 .4.2.5.3.6.2.2.3 0 .4.2v.2s.2 0 .2.2l-.4.5-.2.7v.3s.3.3 0 .4H76v-.2-.2c-.2 0-.2 0-.2.2v.2h-.3c0-.2-.3-.2-.3-.3 0 0 0-.2.2-.2 0 0 .2 0 .2-.2h-.2-.2v-.3-.2h.7V72l-.2-.2v-.3.4h-.3l-.2-.5v.4c0 .2-.2 0-.2 0s0-.3-.2-.4v-.4s-.2-.3 0-.4v-.3H74v1l.2.5-.2.2h-.3-.7l-.3-.2s-.2 0-.2.2v.2H72s-.3 0-.3-.2V72h-.3s-.2 0-.2-.3v-.3h.4v-.2c-.2 0-.3 0-.2-.2h.2c0-.2 0-.3.2-.3v.4c.3.3.4.3.7.3h.3v-.4-.4s-.2 0-.2.2V70.7v-.2-.3.3c-.2 0-.2.3-.2.3s-.2-.2 0-.5c0-.2-.2-.4 0-.5 0 0 0-.5.5-.5H74.6l-1-.6c-.2 0-.5-.4-.6-.6v-.3h-.4c0 .2-.3.3-.4.4l-.2.3V68v-.2s0 .3-.2.5c-.2 0-.4.3-.4.3v-.3-.2s0 .3-.3.3h-.4v.7h-.3-.2v-.3l.2-.2H70h-.3v-.3c0-.2.4 0 .4-.2v-.2c-.3 0-.4 0-.3-.2h.2v-.3c.2 0 .2.2.3.3h.6l.3-.3.5-.3-.3-.3-.3-.2-.5-.2h-.5l.2-.2H70.3l-.3-.2h-.2l.4-.2h.2s-.2 0-.3-.2v-.2s0-.2-.2-.2h-.3-.2v-.2-.3h.3s0-.2-.2-.2l-.2-.2h.3c0-.2 0-.3.2-.3 0 0 .2.4.3.3v-.3-.2h.4s.3 0 .3.2c0 0 0 .2-.2.3v.4s0 .3.2.4c.2 0 .4 0 .5.2.2 0 .5.4.6.4H73c.2 0 .4-.2.4-.3l-.4-.3h.4c.2 0 .5 0 .5-.4 0-.3 0-.4-.3-.5-.3 0-.5 0-.6-.3v-.3h1c0-.2 0-.3.2-.4h.4s.4 0 .7.4l.6.6z" fill="#ff74ac"/><path d="M75.8 72v.4h.2V72h-.2zm.3 1.2c.2 0 .2.2.2.3h.4V73v-.7c.2 0 .2-.2.3-.3v-.2-.3h-.2s-.2 0-.3-.2c0 0-.3-.3-.3-.7 0-.6.3-1 .4-1h.3s.3 0 .5-.2c.4-.4.4-1 .4-1.2l-.5-1.2v-.4s-.4-1 0-1.4h.2l.2-.4v-.2l.2-.4.2-.2h-.2v-.2l.3-.5V63v.2H78l-.2.4h-.3v-.3.2s0 .2-.2.2v.5c-.2.3-.2.7-.2 1v2.1c.4.7.4 1.2.2 1.6l-.5.3h-.4c-.6 0-1-.5-1.2-.8l-.6-1.4v-.4l.3.2h.2v-.2-.5l-.3-.3.3.3s.2 0 .3.2V65.6l.4.2s0-.2-.2-.2l-.2-.5v-.4h.2v.2-.2-.2-.2-.4l-.6-.5-.7-.5h-.3v.4h-1v.3l.4.2c.5 0 .5.4.4.7 0 .3-.4.3-.6.3h-.2c0 .2.2.2.3.3v.2l-.4.3h-.3H72h-.2s-.3 0-.5-.3l-.4-.2h-.3l-.4-.6V64c0-.2.2-.2.2-.2H70s0 .3-.2.4c0 0-.2 0-.3-.2h-.3v.2c.2 0 .3 0 .4.2v.2h-.4v.4H70s0 .2.2.2v.2h.3v.3h-.2.3V66.4c.2 0 .6 0 .7.2l.2.2.3.3h.2-.2l-.4.4h-.2c0 .2-.2.2-.2.2h-.5-.2-.2v-.2c0 .2 0 .2-.2.3.3 0 .4 0 .4.2s-.2.2-.3.2h-.2v.2h.6v.3h.2v-.3c0-.2.3-.2.5-.2l.4-.2h.2v.3l.3-.6h.2v.2l.3-.3h.5v.4l.7.6 1 .5.2.3h-.4l-.6.2h-.2-.5c-.2 0-.4 0-.4.3h-.2v.4-.5l.2.5v.3h.4V71c0 .2-.3.2-.5.2-.4 0-.6 0-.8-.2V71H72v.5h-.3v.2H72.4v.5h.2c0-.3.2-.3.3-.3H74V71.3c-.2-.5-.2-.7 0-1h1v.2l-.2.3V71.5l.4.2v-.3h.2s0 .3.2.3v-.3h.2v.2c.2 0 .2 0 .3.2.3 0 .3.3.2.4 0 .2-.2.2-.4.3h-.2v.2s0-.2.2 0v.3h-.2l.2.2c0-.3.2-.3.3-.3m.2.7c0-.2 0-.2-.2-.2h-.3c-.2-.2-.4-.2-.4-.4v-.2-.3-.2-.2-.2h.4v-.2H75V72l-.3-.3v-.4s-.2-.4 0-.5v-.2H74s-.2.3 0 .7v.7s0 .3-.2.3h-.3-.5-.2c-.2 0-.2-.2-.3-.2v.4h-.3H71.8v-.2h-.2l-.2-.5v-.3h.3V71v-.2h.2v-.2h.2c.2 0 .2.2.2.3.2.2.3.2.5.2V71h-.2c0-.2-.3-.4-.2-.7V70v-.3c0-.2.3-.5.7-.5H74.2c-.3 0-.6-.3-.7-.4-.2 0-.5-.4-.6-.6l-.2-.3h-.2-.3v.4h-.4c-.3 0-.5.3-.5.3l-.3.2v-.5H71h-.3v.4h-.2-.2-.2v-.3h-.2-.2v-.2-.2-.2h.2l-.2-.2v-.3h.2c0-.2 0-.3.2-.3s.3 0 .3.2H71c0-.2.2-.2.3-.2 0 0 0-.2.2-.2v-.2h-.2s0-.2-.2-.2l-.3-.2h-.5l-.4-.2.4-.2H70h-.2v-.3l.2-.2V65h-.5c-.2 0-.3 0-.3-.3v-.2-.3h.2c-.2-.2-.3-.2-.3-.4h.2l.2-.2s0-.2.2-.2.2 0 .3.2v-.4h.5s.2 0 .2.2v.5c-.2 0-.2.3-.2.3l.3.4h.2s.2 0 .3.2h.2l.4.3h1c.2 0 .3-.2.3-.2H73s-.2-.2 0-.3c0-.2.2-.2.4-.2.3 0 .4 0 .4-.2V64h-.3c-.2 0-.4-.2-.5-.4v-.2-.3h.9v-.3h.5s.5 0 1 .4l.5.7V65c.2 0 .2.2.2.3v.3H76V65v.3c0 .2.2.3.3.4v.9l-.2-.4v.4l-.2.3-.2-.3v-.3.2l-.2.7v.3l-.2-.3c0 .3 0 .6.4 1 .2.3.5.8 1 .8h.3s.2 0 .3-.2c.2-.3 0-.8 0-1.5-.3-.5-.4-1-.4-1.3v-.5-.4-.8l.3-.6v-.2c.2 0 .2-.2.2-.2v-.4h.2l.2.4.2-.2c.2 0 .4-.3.4-.3h.3s0 .5-.3.7c0 0 0 .2-.2.3h.5l-.2.2s-.2 0-.4.3v.4s-.2 0-.2.2c-.2 0-.3.2-.4.3-.3.3-.3 1-.2 1.3v.3c.4.4.6 1 .6 1.2 0 .3 0 1-.5 1.3-.2.2-.6.3-.8.3h-.3s-.3.3-.3.8c0 .3 0 .4.2.5 0 .2.2.2.3.2v.2h.2v.7l-.2.4-.3.6v.3s.3.2.2.4h-.2-.3c-.2 0-.2.2-.3.2z"/><path d="M73 63.6v-.2h.3l-.2.2"/><path d="M73 63.8v-.2-.2l-.2-.2h.7v.4H73v.2zM74.2 63.2h.3c.2 0 .3.2.2.2h-.4V63z"/><path d="M74.7 63.5h-.2c-.2 0-.3 0-.3-.2V63h.4l.3.4h-.2z"/><path d="M70 63.5H70.7c0-.4-.3-.5-.3-.5v.3l-.2.2" fill="#fd4344"/><path d="M70.6 63.8h-.3l-.2-.2v-.2l.2-.2V63l-.2-.2h.3s.4.2.4.6v.3z"/><path d="M69.5 63.8s0-.2-.3-.2-.4.2-.4.2h.3c.2 0 .2.3.2.3h.2v-.2" fill="#fd4344"/><path d="M69 64.3V64h-.5l.2-.3.4-.2c.4 0 .6 0 .6.2v.2l-.3.2H69z"/><path d="M69.2 64.6s-.2 0-.3.2c-.2 0-.2.4-.2.4s0-.2.3-.2h.4l-.2-.4" fill="#fd4344"/><path d="M68.7 65.5v-.3-.5l.5-.2c.2 0 .2.3.2.4l.2.2h-.3-.2l-.3.3zM73 64.6h.2zM73 64.7l.2-.5.3.5H73zM73.4 64.6h.2-.2z"/><path d="M73 64.7l.5-.4.3.4H73zM73.3 63.7h.2l-.2.2v-.3z"/><path d="M73.2 64v-.5l.6.3-.6.3z"/><path d="M73.5 63.8h.2v.2l-.2-.2z"/><path d="M73.5 64.2v-.6l.5.2-.5.4zM72 65.7h.5-.5m1.4.6h.2v.7c.2 0 .3-.2.3-.2v-.2l-1.2-.6v.8l.4-.2s0-.2.2-.3m-.5 1.5l-.2-.2.6-.4v-.4l-.6.2h-.4v-.5l-.6.6h-.2l.3-.4v-.2h.3l.2-.2c-.2 0-.2 0-.3-.2H72h-.3l-.2.2V66v-.4l.5-.2.8.3h.4-.2l1.7 1v-.2l.4.6H75l-.2.2v.2l-.2.4v-.4c-.2 0-.3-.3-.3-.4l-.2.2h-.2c0 .2 0 .3-.3.4l-.4.2"/><path d="M70 67.4s-.2-.2-.4 0h-.3.2l.2.2c.2 0 .2-.2.2-.2z" fill="#fd4344"/><path d="M69.7 67.8l-.2-.2H69h.2c0-.2 0-.4.4-.5.2 0 .4.3.4.3l.2.2H70l-.2.2z"/><path d="M69.7 68.2h-.3l-.2.4h.5v-.2-.2" fill="#fd4344"/><path d="M69 69v-.4s0-.3.3-.5h.4l.2.4c-.2 0-.2.2-.2.2h-.4l-.3.3z"/><path d="M70 69l.2.2c0 .2.3.2.3.2v-.2-.2h-.2-.2" fill="#fd4344"/><path d="M70.7 69.5h-.2s-.3 0-.4-.2V68.7h.6v.7zM74.7 69.5l.2.7V70c0-.2 0-.4-.3-.5m0 1.3l-.3-1.8h.2c0 .2.6.5.6 1l-.3.6-.3.2z"/><path d="M72 70.8s0-.2-.3-.2l-.4.2h.3l.2.2.2-.2" fill="#fd4344"/><path d="M71.7 71.2s0-.2-.2-.3H71l.2-.3.5-.2c.3 0 .4.2.4.2h.2v.2H72h-.2v.2z"/><path d="M71.5 71.5H71v.5s0-.2.3-.2h.3v-.3" fill="#fd4344"/><path d="M71 72.3V72c-.2 0-.2-.3 0-.5H71.6v.4h-.3-.2v.3z"/><path d="M72 72.3v.3c0 .2.3.2.3.2v-.2-.2H72z" fill="#fd4344"/><path d="M72.5 73h-.3s-.2 0-.3-.3c-.2-.2-.2-.3 0-.4V72v.2h.7l-.2.3s-.2 0-.2.2l.2.4z"/><path d="M75.3 72.7H75l-.2.4h.7v-.2" fill="#fd4344"/><path d="M74.5 73.4l.2-.4s0-.3.2-.4h.4V73.2s-.2 0-.3-.2l-.5.4z"/><path d="M75.4 73.5v.6l.2-.2h.2v-.2h-.4" fill="#fd4344"/><path d="M75.6 74.5l-.2-.4-.2-.2c0-.2 0-.4.2-.4h.3l.2.2v.2h-.4v.8z"/><path d="M76.3 73.7v.4l.4.2s-.2-.2 0-.3v-.3h-.2-.2" fill="#fd4344"/><path d="M77 74.4h-.4l-.3-.2c-.2-.2-.2-.4 0-.5 0 0 0-.2.2-.2h.5l-.2.3v.7z"/><path d="M67.7 88.6c.6.2 1 .6 1 1 0 .8-.8 1.2-1.6 1.2-.7 0-1.3-.4-1.3-1s.3-1 .8-1v-.3l-.2-.2h.3l.2.2.2-.2.2-.2v.3c.2 0 .2.2.2.2l.2-.2h.2v.3" fill="#ffd790"/><path d="M66.6 88.5v.3c-.5 0-.8.5-.8 1s.6 1 1.3 1c1 0 1.4-.5 1.4-1 0-.6-.2-1-.7-1v-.2-.2s-.2 0-.2.2h-.2v-.2H67v.3h-.3v-.2M67 91c-.7 0-1.4-.6-1.4-1.3 0-.5.2-1 .7-1l-.3-.4H67V88h.2l.2.2H68v.3c.4.2.7.7.7 1.2 0 .7-.7 1.3-1.6 1.3"/><path d="M67 91.5s-1-.7-1.5-.8H64l.4.4 1 .6c.8.2 1.6 0 1.6 0" fill="#008f6e"/><path d="M64.3 90.8s.2 0 .2.2l1 .5H66.7l-1.2-.7h-1.2m1.8 1h-.7l-1-.6c0-.2-.3-.3-.4-.4l-.4-.3h1.9l1.6 1h.3-.2c0 .2-.4.3-1 .3"/><path d="M67.3 91.6s.7-.7 1.4-.8h1.8l-.5.4s-.5.4-1 .4h-1.4-.3" fill="#008f6e"/><path d="M67.7 91.4h1.1c.6 0 1-.2 1-.3h-1c-.4 0-.8.2-1 .4m-.8.4l.2-.3s.8-.7 1.5-.8H70.6v.2c-.2 0-.4.2-.5.3 0 0-.5.4-1 .4h-1.4H67z"/><path d="M67 90.7c0-.2-.3-.6-.3-1s.2-.7.4-1c.4.3.6.6.6 1s-.2.8-.5 1" fill="#c9191f"/><path d="M67 89l-.2.7c0 .3 0 .6.3.8.3-.2.4-.5.4-.8 0-.3 0-.6-.3-.8m0 2v-.2c-.3-.3-.4-.7-.4-1 0-.5 0-1 .4-1.2h.2c.3.3.5.7.5 1 0 .5-.2 1-.5 1.2z"/><path d="M67 92.2v-.8-.6h.2V92c-.2 0-.3.2-.3.2" fill="#008f6e"/><path d="M67.2 91V91.2m-.6 1.4V92s.3-.3.3-.6V91l-.2-.3h.5V92.4H67l-.4.2z"/><path d="M80.4 53.5c0-.2 0-.3.3-.3 0 0 .3 0 .3.3l-.3.2c-.2 0-.3 0-.3-.2" fill="#fff"/><path d="M80.7 53.3s-.2 0-.2.2h.2v-.2m0 .6c-.3 0-.4-.3-.4-.5 0-.3 0-.4.4-.4.2 0 .4.2.4.5 0 .2 0 .4-.3.4"/><path d="M80.8 52.7s0-.2.3-.2c.2 0 .4 0 .4.2s-.2.3-.3.3c0 0-.2 0-.2-.3" fill="#fff"/><path d="M81 52.6v.3c.2 0 .2-.2.2-.3m0 .5c-.4 0-.5-.2-.5-.5 0-.2 0-.4.4-.4.3 0 .5.2.5.4 0 .3-.2.5-.4.5"/><path d="M81 52c0-.2.2-.4.3-.4.2 0 .3.2.3.3 0 0 0 .2-.3.2 0 0-.2 0-.2-.3" fill="#fff"/><path d="M81.3 51.8v.3h.2c0-.2 0-.2-.2-.2m0 .5c-.2 0-.4-.2-.4-.4 0-.3 0-.5.3-.5s.5.2.5.4c0 0-.2.3-.5.3"/><path d="M81 51l.4-.2s.3 0 .3.2-.2.3-.3.3c-.2 0-.3 0-.3-.3" fill="#fff"/><path d="M81.4 51h-.2s0 .2.2.2V51m0 .4c-.3 0-.4 0-.4-.4 0-.2 0-.4.4-.4.2 0 .4.2.4.4 0 .3-.2.4-.4.4"/><path d="M81 50.2c0-.2 0-.3.2-.3 0 0 .3 0 .3.2l-.3.2c-.2 0-.3 0-.3-.2" fill="#fff"/><path d="M81.2 50s-.2 0-.2.2h.2V50m0 .6c-.3 0-.5-.2-.5-.4 0-.3.2-.4.5-.4.2 0 .4 0 .4.4 0 .2-.2.4-.4.4"/><path d="M80.4 49.4c0-.2 0-.3.3-.3.2 0 .3.2.3.4 0 0 0 .2-.3.2-.2 0-.3 0-.3-.2" fill="#fff"/><path d="M80.7 49.2s-.2 0-.2.2h.4l-.3-.2m0 .6c-.2 0-.4-.2-.4-.4 0-.3.2-.4.4-.4s.4 0 .4.4c0 .2 0 .4-.3.4"/><path d="M79.8 48.7s0-.3.3-.3.4.2.4.3c0 .2 0 .3-.3.3 0 0-.2 0-.2-.3" fill="#fff"/><path d="M80 48.6v.3c.2 0 .3-.2.3-.3H80m0 .4s-.3 0-.3-.3c0-.2.2-.4.4-.4.3 0 .5.2.5.4s-.2.4-.4.4"/><path d="M79 48.2c0-.2.2-.3.4-.3s.3 0 .3.2c0 0 0 .3-.3.3-.2 0-.3-.2-.3-.3" fill="#fff"/><path d="M79.4 48s-.2 0-.2.2h.4s0-.2-.2-.2m0 .6c-.2 0-.4-.2-.4-.4s.2-.4.4-.4.4.2.4.4-.2.4-.4.4"/><path d="M78.3 47.7s0-.2.3-.2c0 0 .3 0 .3.2s-.3.3-.4.3c-.2 0-.3 0-.3-.3" fill="#fff"/><path d="M78.6 47.6h-.2c0 .2 0 .3.2.3v-.3m0 .4c-.3 0-.5 0-.5-.3 0-.2.3-.4.6-.4.2 0 .4.2.4.4 0 .3-.2.4-.4.4"/><path d="M77.4 47.4s0-.3.3-.3c.2 0 .3.3.3.4 0 .2 0 .3-.3.3-.2 0-.3 0-.3-.3" fill="#fff"/><path d="M77.7 47.3h-.2c0 .2 0 .3.2.3 0 0 .2 0 .2-.2h-.3m0 .4c-.2 0-.4-.2-.4-.4s.2-.4.4-.4.4.2.4.4 0 .4-.3.4"/><path d="M76.4 47.2l.3-.2c.2 0 .3 0 .3.2s0 .3-.3.3c0 0-.3 0-.3-.3" fill="#fff"/><path d="M76.7 47l-.2.2s0 .2.2.2c0 0 .2 0 .2-.2h-.3m0 .4c-.2 0-.4 0-.4-.4 0-.2.2-.4.4-.4s.4.2.4.4c0 .3 0 .4-.3.4"/><path d="M75.5 47.2c0-.2 0-.3.3-.3.2 0 .3 0 .3.2 0 0 0 .3-.2.3s-.3-.2-.3-.3" fill="#fff"/><path d="M75.8 47s-.2 0-.2.2h.4s0-.2-.2-.2m0 .6c-.2 0-.4-.2-.4-.4s.2-.4.4-.4.4.2.4.4-.2.4-.4.4"/><path d="M74.6 47.2s0-.3.3-.3c0 0 .2 0 .2.2s-.2.3-.3.3c-.3 0-.4 0-.4-.3" fill="#fff"/><path d="M75 47c-.2 0-.3 0-.3.2 0 0 0 .2.2.2v-.2m0 .4c-.3 0-.5-.2-.5-.4s.2-.4.4-.4c0 0 .3.2.3.4s-.2.4-.4.4"/><path d="M73.7 47.2s0-.3.3-.3c0 0 .3 0 .3.2s-.2.3-.3.3c-.2 0-.3 0-.3-.3" fill="#fff"/><path d="M74 47s-.2 0-.2.2c0 0 0 .2.2.2v-.2m0 .4c-.3 0-.4-.2-.4-.4s0-.4.4-.4c.2 0 .4.2.4.4s-.2.4-.4.4"/><path d="M74 48c0-.2.3-.3.4-.3.2 0 .3 0 .3.3 0 .2 0 .3-.3.3 0 0-.3 0-.3-.3" fill="#fff"/><path d="M74.4 47.8v.4s.2 0 .2-.2c0 0 0-.2-.2-.2m0 .6c-.2 0-.4-.2-.4-.4s.2-.4.4-.4c.3 0 .5.2.5.4s-.3.4-.6.4"/><path d="M74.3 49c0-.3.2-.4.3-.4.2 0 .3 0 .3.3h-.4-.3" fill="#fff"/><path d="M74.6 48.7s-.2 0-.2.2h.4c0-.2 0-.3-.2-.3m0 .6c-.2 0-.4-.2-.4-.4 0-.4.2-.5.4-.5s.4 0 .4.4c0 0-.2.3-.4.3"/><path d="M74.4 49.7s0-.3.2-.3.3.2.3.3c0 .2-.2.3-.3.3-.2 0-.3 0-.3-.3" fill="#fff"/><path d="M74.7 49.6h-.2v.3c.2 0 .3-.2.3-.3m0 .4c-.4 0-.6 0-.6-.3 0-.2.2-.4.4-.4.3 0 .5.2.5.4s0 .4-.3.4"/><path d="M74 50.5c0-.2.2-.3.4-.3 0 0 .3 0 .3.3 0 .2-.2.3-.3.3-.2 0-.3 0-.3-.3" fill="#fff"/><path d="M74.4 50.3s-.2 0-.2.2c0 0 0 .2.2.2 0 0 .2 0 .2-.2 0 0 0-.2-.2-.2m0 .6c-.2 0-.4-.3-.4-.5s.2-.4.4-.4.4.3.4.5-.2.4-.4.4"/><path d="M73.6 51.2s0-.3.3-.3c0 0 .2 0 .2.2s-.2.3-.3.3c-.3 0-.4 0-.4-.3" fill="#fff"/><path d="M74 51c-.2 0-.3 0-.3.2 0 0 0 .2.2.2v-.2m0 .4c-.3 0-.5-.2-.5-.4s.2-.4.4-.4c0 0 .3.2.3.4s-.2.4-.4.4"/><path d="M73 46.7c0-.2 0-.3.3-.3.2 0 .3 0 .3.3 0 0 0 .3-.3.3-.2 0-.3-.2-.3-.3" fill="#fff"/><path d="M73.3 46.5s-.2 0-.2.2h.5s0-.2-.2-.2m0 .6c-.2 0-.4 0-.4-.3 0-.2 0-.4.3-.4.2 0 .4.2.4.4s-.2.4-.4.4"/><path d="M72.2 46.2s0-.2.3-.2c0 0 .3 0 .3.2s0 .3-.3.3c-.2 0-.3 0-.3-.3" fill="#fff"/><path d="M72.5 46l-.2.2s0 .2.2.2c0 0 .2 0 .2-.2h-.2m0 .4c-.2 0-.4 0-.4-.4 0-.2.3-.4.5-.4s.4.2.4.4c0 .3-.3.4-.5.4"/><path d="M71.3 46c0-.2 0-.3.3-.3.2 0 .3 0 .3.3 0 0-.2.3-.4.3s-.3-.2-.3-.3" fill="#fff"/><path d="M71.6 45.8s-.2 0-.2.2h.4s0-.2-.2-.2m0 .6c-.2 0-.4-.2-.4-.4s.2-.4.4-.4.4.2.4.4-.2.4-.4.4"/><path d="M70.4 45.8s0-.3.3-.3l.3.3c0 .2-.2.3-.3.3-.2 0-.3 0-.3-.2" fill="#fff"/><path d="M70.7 45.7h-.2c0 .2 0 .3.2.3v-.2m0 .4c-.3 0-.4-.2-.4-.4s0-.4.4-.4c.2 0 .4.2.4.4s0 .4-.3.4"/><path d="M69.5 45.8s0-.2.3-.2c0 0 .3 0 .3.2s0 .3-.2.3-.3 0-.3-.2" fill="#fff"/><path d="M69.8 45.7h-.2c0 .2 0 .3.2.3v-.2m0 .4c-.3 0-.4 0-.4-.4 0-.2 0-.4.4-.4.2 0 .4.2.4.4 0 .3-.2.4-.4.4"/><path d="M68.5 46c0-.2.2-.3.3-.3.2 0 .3 0 .3.3 0 0 0 .3-.2.3l-.3-.3" fill="#fff"/><path d="M68.8 45.8v.2h.2s0-.2-.2-.2m0 .6c-.2 0-.4-.2-.4-.4s.2-.4.4-.4c.3 0 .5.2.5.4s-.2.4-.5.4"/><path d="M67.7 46.3c0-.2 0-.3.3-.3 0 0 .3 0 .3.3l-.3.3c-.2 0-.3-.2-.3-.3" fill="#fff"/><path d="M68 46l-.2.3h.2V46m0 .7c-.3 0-.5-.2-.5-.4s.2-.4.5-.4c.2 0 .4 0 .4.3 0 .2-.2.4-.4.4"/><path d="M53 53.5c0-.2 0-.3.2-.3s.3 0 .3.3c0 0 0 .2-.3.2 0 0-.3 0-.3-.2" fill="#fff"/><path d="M53.2 53.3s-.2 0-.2.2h.4s0-.2-.2-.2m0 .6c-.2 0-.4-.3-.4-.5 0-.3.2-.4.4-.4s.4.2.4.5c0 .2-.2.4-.4.4"/><path d="M52.5 52.7l.3-.2c.2 0 .3 0 .3.2s0 .3-.2.3c0 0-.3 0-.3-.3" fill="#fff"/><path d="M52.8 52.6h-.2c0 .2 0 .3.2.3l.2-.3h-.2m0 .5c-.2 0-.4-.2-.4-.5 0-.2.2-.4.4-.4s.4.2.4.4c0 .3-.2.5-.4.5"/><path d="M52.3 52c0-.2 0-.4.2-.4s.3.2.3.3c0 0 0 .2-.3.2 0 0-.3 0-.3-.3" fill="#fff"/><path d="M52.5 51.8v.3h.2c0-.2 0-.2-.2-.2m0 .5c-.2 0-.4-.2-.4-.4 0-.3.3-.5.5-.5.3 0 .5.2.5.4 0 0-.2.3-.5.3"/><path d="M52.2 51s0-.2.3-.2c.2 0 .3 0 .3.2s0 .3-.3.3c-.2 0-.3 0-.3-.3" fill="#fff"/><path d="M52.5 51h-.2s0 .2.2.2c0 0 .2 0 .2-.2h-.2m0 .4c-.2 0-.4 0-.4-.4 0-.2.3-.4.5-.4s.4.2.4.4c0 .3-.3.4-.5.4"/><path d="M52.4 50.2c0-.2.2-.3.3-.3.2 0 .3 0 .3.2 0 0 0 .2-.3.2 0 0-.3 0-.3-.2" fill="#fff"/><path d="M52.7 50v.2h.2l-.3-.2m0 .6c-.2 0-.4-.2-.4-.4 0-.3.2-.4.4-.4.3 0 .4 0 .4.4 0 .2 0 .4-.3.4"/><path d="M53 49.4c0-.2 0-.3.2-.3 0 0 .3.2.3.4l-.3.2c-.2 0-.3 0-.3-.2" fill="#fff"/><path d="M53.2 49.2s-.2 0-.2.2h.4s0-.2-.2-.2m0 .6c-.3 0-.4-.2-.4-.4 0-.3.2-.4.4-.4s.4 0 .4.4c0 .2-.2.4-.4.4"/><path d="M53.5 48.7s0-.3.3-.3c.2 0 .3.2.3.3 0 .2 0 .3-.2.3s-.3 0-.3-.3" fill="#fff"/><path d="M53.8 48.6h-.2c0 .2 0 .3.2.3l.2-.3h-.2m0 .4c-.2 0-.4 0-.4-.3 0-.2.2-.4.4-.4s.4.2.4.4-.2.4-.4.4"/><path d="M54.2 48.2c0-.2 0-.3.3-.3.2 0 .3 0 .3.2 0 0 0 .3-.3.3-.2 0-.3-.2-.3-.3" fill="#fff"/><path d="M54.5 48s-.2 0-.2.2h.4s0-.2-.2-.2m0 .6c-.2 0-.4-.2-.4-.4s.3-.4.5-.4.4.2.4.4-.3.4-.5.4"/><path d="M55 47.7l.3-.2c.2 0 .3 0 .3.2s0 .3-.3.3c0 0-.3 0-.3-.3" fill="#fff"/><path d="M55.3 47.6v.3l.2-.3h-.2m0 .4c-.2 0-.4 0-.4-.3 0-.2 0-.4.3-.4s.5.2.5.4c0 .3-.2.4-.5.4"/><path d="M56 47.4s0-.3.2-.3.3.3.3.4c0 .2 0 .3-.3.3-.2 0-.3 0-.3-.3" fill="#fff"/><path d="M56.2 47.3H56c0 .2 0 .3.2.3 0 0 .2 0 .2-.2h-.2m0 .4c-.2 0-.4-.2-.4-.4s.2-.4.4-.4.4.2.4.4-.2.4-.4.4"/><path d="M57 47.2s0-.2.2-.2c0 0 .3 0 .3.2s-.2.3-.3.3c-.2 0-.3 0-.3-.3" fill="#fff"/><path d="M57.2 47l-.2.2s0 .2.2.2v-.2m0 .4c-.3 0-.4 0-.4-.4 0-.2 0-.4.4-.4.2 0 .4.2.4.4 0 .3-.2.4-.4.4"/><path d="M57.8 47.2c0-.2 0-.3.3-.3s.4 0 .4.2c0 0 0 .3-.3.3l-.2-.3" fill="#fff"/><path d="M58 47v.2h.3s0-.2-.2-.2m0 .6s-.3-.2-.3-.4.2-.4.4-.4c.3 0 .5.2.5.4s-.2.4-.4.4"/><path d="M58.7 47.2s0-.3.3-.3c.2 0 .3 0 .3.2s0 .3-.3.3c-.2 0-.3 0-.3-.3" fill="#fff"/><path d="M59 47s-.2 0-.2.2c0 0 0 .2.2.2 0 0 .2 0 .2-.2H59m0 .4c-.2 0-.4-.2-.4-.4s.2-.4.4-.4.4.2.4.4-.2.4-.4.4"/><path d="M59.6 47.2s0-.3.3-.3c0 0 .2 0 .2.2s0 .3-.3.3-.4 0-.4-.3" fill="#fff"/><path d="M60 47c-.2 0-.3 0-.3.2 0 0 0 .2.2.2v-.2m0 .4c-.3 0-.5-.2-.5-.4s.2-.4.4-.4c0 0 .3.2.3.4s-.2.4-.4.4"/><path d="M59.2 48c0-.2 0-.3.3-.3 0 0 .3 0 .3.3 0 .2-.2.3-.3.3-.2 0-.3 0-.3-.3" fill="#fff"/><path d="M59.5 47.8s-.2 0-.2.2c0 0 0 .2.2.2V48v-.2m0 .6c-.3 0-.5-.2-.5-.4s.2-.4.5-.4c.2 0 .4.2.4.4s-.3.4-.5.4"/><path d="M59 49c0-.3 0-.4.3-.4 0 0 .3 0 .3.3H59" fill="#fff"/><path d="M59.3 48.7s-.2 0-.2.2h.3v-.3m0 .6c-.3 0-.4-.2-.4-.4 0-.4 0-.5.3-.5.2 0 .4 0 .4.4 0 0-.2.3-.4.3"/><path d="M59 49.7s0-.3.2-.3.3.2.3.3c0 .2 0 .3-.3.3 0 0-.3 0-.3-.3" fill="#fff"/><path d="M59.2 49.6v.3l.2-.3h-.2m0 .4c-.2 0-.4 0-.4-.3 0-.2.2-.4.4-.4.3 0 .5.2.5.4s-.2.4-.5.4"/><path d="M59.2 50.5c0-.2 0-.3.3-.3.2 0 .3 0 .3.3 0 .2 0 .3-.3.3-.2 0-.3 0-.3-.3" fill="#fff"/><path d="M59.5 50.3s-.2 0-.2.2c0 0 0 .2.2.2 0 0 .2 0 .2-.2 0 0 0-.2-.2-.2m0 .6c-.2 0-.4-.3-.4-.5s.3-.4.5-.4.4.3.4.5-.3.4-.5.4"/><path d="M59.7 51.2s0-.3.3-.3c.2 0 .3 0 .3.2s0 .3-.3.3c-.2 0-.3 0-.3-.3" fill="#fff"/><path d="M60 51s-.2 0-.2.2c0 0 0 .2.2.2 0 0 .2 0 .2-.2H60m0 .4c-.2 0-.4-.2-.4-.4s.2-.4.4-.4.4.2.4.4-.2.4-.4.4"/><path d="M60.3 46.7c0-.2 0-.3.3-.3.2 0 .3 0 .3.3 0 0-.2.3-.4.3s-.3-.2-.3-.3" fill="#fff"/><path d="M60.6 46.5s-.2 0-.2.2h.4s0-.2-.2-.2m0 .6c-.2 0-.4 0-.4-.3 0-.2.2-.4.4-.4s.4.2.4.4-.2.4-.4.4"/><path d="M61 46.2l.4-.2c.2 0 .3 0 .3.2s0 .3-.3.3c-.2 0-.3 0-.3-.3" fill="#fff"/><path d="M61.4 46l-.2.2s0 .2.2.2c0 0 .2 0 .2-.2h-.2m0 .4c-.2 0-.4 0-.4-.4 0-.2.2-.4.4-.4s.4.2.4.4c0 .3-.2.4-.4.4"/><path d="M62 46c0-.2 0-.3.3-.3.2 0 .3 0 .3.3 0 0 0 .3-.3.3-.2 0-.3-.2-.3-.3" fill="#fff"/><path d="M62.3 45.8s-.2 0-.2.2h.5s0-.2-.2-.2m0 .6c-.2 0-.4-.2-.4-.4s0-.4.3-.4c.2 0 .4.2.4.4s-.2.4-.4.4"/><path d="M63 45.8s0-.3.2-.3.3.2.3.3c0 .2 0 .3-.3.3 0 0-.3 0-.3-.2" fill="#fff"/><path d="M63.2 45.7H63c0 .2 0 .3.2.3 0 0 .2 0 .2-.2h-.2m0 .4c-.2 0-.4-.2-.4-.4s.2-.4.4-.4.4.2.4.4-.2.4-.4.4"/><path d="M63.8 45.8l.3-.2c.3 0 .4 0 .4.2s0 .3-.3.3c0 0-.2 0-.2-.2" fill="#fff"/><path d="M64 45.7v.3c.2 0 .3 0 .3-.2H64m0 .4s-.3 0-.3-.4c0-.2.2-.4.4-.4.3 0 .5.2.5.4 0 .3-.2.4-.4.4"/><path d="M64.8 46c0-.2 0-.3.3-.3.2 0 .4 0 .4.3l-.3.3-.2-.3" fill="#fff"/><path d="M65 45.8v.2h.2v-.2m0 .6c-.4 0-.6-.2-.6-.4s.2-.4.5-.4.5.2.5.4-.2.4-.4.4"/><path d="M65.6 46.3c0-.2.2-.3.3-.3 0 0 .2 0 .2.3 0 0 0 .3-.3.3-.2 0-.4-.2-.4-.3" fill="#fff"/><path d="M66 46c-.2 0-.2.2-.2.3h.3V46m0 .7c-.3 0-.5-.2-.5-.4s.2-.4.4-.4.3 0 .3.3c0 .2 0 .4-.4.4"/><path d="M61.7 65h1-1zm-2-1.6h1-1zM58 65h1-1zm2.3-1v-.4.5zm0 1v-.4.5zm0 1.6V66v.6zm0 1V67v.6zm0 2V69v.5zm0-1V68v.5zm0 2V70v.6zm2-5.5v.6-.5zm-1 1v.6-.5zm1.8 0v.6-.5zm-.3.6v.5-.4zm-1 0v.5-.4zm-1 0v.5-.4zm.6.5v.6-.5zm1 0v.6-.5zm.8 0v.6-.5zm-.3.6v.5-.4zm-1 0v.5-.4zm-1 0v.5-.4zm.6.5v.5-.4zm-.5.5v.5-.5zm0 1v.5-.5zm.5 1V70v.6zm-.5 0v.6-.4zm1 0v.6-.4zm1 0v.6-.4zm-1.5 1V71v.5zm.4 0v.6-.5zm2 .6v-.5.6zm-1 0v-.5.6zm-.5-1.4V70v.6zm0 1V71v.5zm0 1V72v.6zm0 1V73v.6zm.5-.5v-.4.5zm1-.4v.5-.4zm-.6 0V72v.6zm0 1V73v.6zm0-9h-1.7H63zm-.3.5h-1 1zm-4.3 0v.6-.5zm1 1v.6-.5zm-2 0v.6-.5zm.5.6v.5-.4zm1 0v.5-.4zm.8 0v.5-.4zm-.5.5v.6-.5zm-1 0v.6-.5zm-.8 0v.6-.5zm.4.6v.5-.4zm1 0v.5-.4zm.8 0v.5-.4zm-.5.5v.5-.4zm.5.5v.5-.5zm0 1v.5-.5zm-.5 1V70v.6zm.5 0v.6-.4zm-1 0v.6-.4zm-1 0v.6-.4zm1.5 1V71v.5zm-.4 0v.6-.5zm-2 .6v-.5.6zm1 0v-.5.6zm.4-1.4V70v.6zm0 1V71v.5zm0 1V72v.6zm0 1V73v.6zM58 73v-.4.5zm-1-.4v.5-.4zm.5 0V72v.6zm0 1V73v.6zm0-9h1.8-1.8zm.4.5h1-1zm1.3-2h2-2zm.5.6h1-1zm0 .5h1-1zm0 .6h1-1zm0 .5h1-1zm-2 .6h5-5zm-.8.5h6.6H57zm0 .6h6.6H57zm0 .5h6.6H57zm0 .6h6.6H57zm.5.5H63h-5.5zm0 .5H63h-5.5zm0 .5H63h-5.5zm0 .5H63h-5.5zm0 .5H63h-5.5zm0 .6H63h-5.5zm0 .5H63h-5.5zm-1 .5H64h-7.5zm0 .6H64h-7.5zm0 .6H64h-7.5zm0 .5H64h-7.5zm0 .6H64h-7.5zm1.7-9.5h-.8v1h.4v.6h-1v2h.5v4h-1v2H64v-2h-1v-4h.6v-2h-1V65h.5v-1H61.4v1h.4v.6h-1v-2.2h.6v-1h-.5v.3h-.3v-.3H60v.3H60v-.3h-.5v1h.5v2.2h-1V65h.5v-1H58z" fill="#d1b30e"/><path d="M59.5 62.8H61v-.3.3h-.6v-.3h-.2v.3h-.5v-.3h-.2v.3zm1 .5h.6V63h-1.5v.3h1zm-3 1h1.7V64H59v.3h-.5V64h-.2v.3h-.5V64h-.2v.3zm4 0H63V64h-.2v.3h-.5V64H62v.3h-.4V64h-.2v.3zm-1 0H60h.4zm-1.7.5h.4v-.2h-1.6v.2h1.2zm3.8 0h.4v-.2h-1.6v.2h1.2zm-2.6.6h.6v-.2H60v.2zm3.3.5h.2v-.3H57v.2h6.3zm-4.3.4h.2v-.2h-1.6v.2H59zm1 0h.2v-.2h-.7v.2h.5zm1 0v-.2h-.6v.2h.5zm1.8 0h.2v-.2h-1.6v.2h1.4zm-5.2.5h.2v-.3H57v.2h.6zm1 0h.2v-.3H58v.2h.5zm1 0v-.3H59v.2h.5zm.8 0h.2v-.3H60v.2h.4zm1 0h.2v-.3H61v.2h.4zm1 0h.2v-.3h-.8v.2h.5zm1 0v-.3H63v.2h.5zm-5.4.4h.3v-.2h-.7v.2h.4zm1 0h.2v-.2h-.7v.2h.5zm1 0h.2v-.2h-.7v.2h.5zm1 0v-.2h-.6v.2h.5zm.8 0h.3v-.2h-.6v.2h.4zm1 0h.2v-.2h-.7v.2h.5zM58 68h.8v-.3H58v.2zm1.5 0h.2v-.3H59v.2h.5zm1 0v-.3H60v.2h.4zm1 0v-.3H61v.2h.4zm.3 0h.8v-.3h-.8v.2zm-4.2.4h1.6v-.2h-1.6v.2zm2.4 0h.2v-.2h-.7v.2h.5zm1 0v-.2h-.6v.2h.5zm.4 0H63v-.2h-1.6v.2zm-3.8.5h2v-.3h-2v.2zm2.8 0h.2v-.3H60v.2h.4zm.5 0h2v-.3h-2v.2zm-1 .4h.2v-.2h-2.6v.2H60zm1 0h2v-.2h-2.6v.2h.5zm-1.5.5h.2v-.3h-2v.2h1.8zm1 0v-.3H60v.2h.4zm1.8 0h.7v-.3h-2v.2h1.3zm-4.3.5h.3v-.3h-.7v.3h.4zm1 0h.2v-.3h-.7v.3h.5zm1 0h.2v-.3h-.7v.3h.5zm1 0v-.3h-.6v.3h.5zm.8 0h.3v-.3h-.6v.3h.4zm1 0h.2v-.3h-.7v.3h.5zm-4.3.5h.3v-.3H58v.3h.5zm1 0h.2v-.3H59v.3h.5zm.5 0h.6v-.3H60v.3zm1.4 0h.2v-.3H61v.3h.4zm1 0h.2v-.3h-.8v.3h.5zm-4.4.4h.3v-.2h-.7v.2h.4zm1 0h.2v-.2h-.7v.2h.5zm.5 0H61v-.2h-1.5v.2zm2.3 0h.3v-.2h-.6v.2h.4zm1 0h.2v-.2h-.7v.2h.5zm-5.2.6h.2v-.3H57v.3h.6zm1 0h.2v-.3H58v.3h.5zm.4 0h2.6v-.3H59v.3zm3.3 0h.3v-.3h-.8v.3h.5zm1 0h.2v-.3h-.7v.3h.5zm-6.2.5h.4v-.3h-.8v.3h.5zm1 0h.3v-.3h-.7v.3h.4zm.5 0H62v-.3h-3.5v.3zm4.3 0h.2v-.3h-.7v.3h.5zm1 0h.2v-.3h-.7v.3h.5zm-6.2.5h.2v-.3H57v.3h.6zm4.7 0h.3v-.3H58v.3h4.3zm1 0h.2v-.3h-.7v.3h.5zm-6.7.5h.8v-.3h-.8v.3zm1 0h.7v-.3h-.7v.3zm1 0H62v-.3h-3.5v.3zm3.7 0h.7v-.3h-.7v.3zm1 0h.7v-.3h-.7v.3zm1 .2h-8v-2.3h1v-3.7H57v-2.3h.8V65h-.4v-1.2h.6v.2-.2h1.5V65H59v.4h.7v-2h-.5v-1h2.2v1H61v2h.6V65H61v-1.2h.8v.2-.2h1.5V65h-.5v.4h1v2.3h-.5v3.7h1v2.3z"/><path d="M61.6 73.6v-1.3c0-.3 0-1-1.3-1-1 0-1.3.7-1.3 1v1.3h2.6z" fill="#d1b30e"/><path d="M59.2 73.5h2.3v-1.2c0-.2 0-1-1.2-1-1 0-1 .8-1 1v1.2zm2.5.2H59v-1.4s0-1 1.3-1 1.4.8 1.4 1v1.4z"/><path d="M59.5 72.3h-.7c0-.3 0-.6.3-.8l.7.5-.2.3" fill="#d1b30e"/><path d="M59 72.2h.4V72l-.3-.3v.5m.6.3h-1v-.2s0-.7.4-1l.8.7-.2.3v.2z"/><path d="M61 72.3h.8c0-.3 0-.6-.3-.8l-.5.5v.3" fill="#d1b30e"/><path d="M61 72c.2 0 .2 0 .2.2h.4v-.5l-.5.3zm0 .5v-.2-.2h-.2l.7-.6c.4.2.4.8.4 1h-1z"/><path d="M60.5 71.7l.3-.5-.5-.2s-.4 0-.5.2l.3.5h.5z" fill="#d1b30e"/><path d="M60.2 71.6h.2l.3-.4h-.4-.3l.2.4zm.4.2H60l-.4-.7H61l-.4.8z"/><path d="M59.3 70.2v-1.4c0-.4-.2-.7-.6-.7-.5 0-.7.4-.7.8v1.4h1.3z" fill="#d1b30e"/><path d="M58 70h1.2v-1.2c0-.3-.2-.6-.5-.6-.4 0-.6.3-.6.6V70zm1.5.3H58v-1.5c0-.5.2-.8.7-.8.4 0 .8.3.8.8v1.5z"/><path d="M61.3 70.2v-1.4c0-.4.2-.7.7-.7.4 0 .6.4.6.8v1.4h-1.3z" fill="#d1b30e"/><path d="M61.4 70h1v-1.2c0-.3 0-.6-.4-.6s-.6.3-.6.6V70zm1.4.3H61v-1.5c0-.5.5-.8 1-.8.4 0 .8.3.8.8v1.5z"/><path d="M60.8 66.8v-1.2h-1v1.2h1z" fill="#d1b30e"/><path d="M60 66.7h.7v-1h-1l.2 1zm1 .2h-1.3v-1.6H61V67z"/><path d="M61.7 66.8v-1.2h1v1.2h-1z" fill="#d1b30e"/><path d="M61.8 66.7h.8v-1h-1l.2 1zm1 .2h-1.2l-.2-1.6H63l-.2 1.5z"/><path d="M59 66.8v-1.2h-1.2v1.2h1z" fill="#d1b30e"/><path d="M58 66.7h.8v-1h-1l.2 1zm1 .2h-1.2v-1.6H59V67z"/><path d="M61 73.6v-1c0-.3 0-1-.7-1s-.8.7-.8 1v1H61zM59.2 70v-1c0-.5-.2-.8-.5-.8-.4 0-.6.3-.6.7v1h1.2zM61.4 70v-1c0-.5.2-.8.6-.8.3 0 .5.3.5.7v1h-1z" fill="#2756ab"/><path d="M62.7 75.6c0-2.7 2-5 4.4-5 2.5 0 4.4 2.3 4.4 5s-2 5-4.3 5c-2.4 0-4.3-2.3-4.3-5" fill="#c9191f"/><path d="M67 70.8c-2.3 0-4.2 2-4.2 4.8 0 2.6 2 4.8 4.3 4.8 2.4 0 4.3-2.2 4.3-4.8 0-2.7-2-4.8-4.2-4.8m0 9.8c-2.4 0-4.4-2.2-4.4-5s2-5 4.5-5 4.6 2.2 4.6 5-2 5-4.5 5"/><path d="M64 75.6c0-2 1.4-3.6 3-3.6 1.8 0 3 1.6 3 3.6s-1.2 3.6-3 3.6c-1.6 0-3-1.6-3-3.6" fill="#005fb0"/><path d="M67 72c-1.6 0-3 1.7-3 3.6 0 2 1.4 3.5 3 3.5 1.7 0 3-1.5 3-3.4 0-2-1.3-3.5-3-3.5m0 7.3c-1.7 0-3-1.7-3-3.7s1.3-3.8 3-3.8c1.8 0 3.3 1.7 3.3 3.8 0 2-1.5 3.7-3.2 3.7"/><path d="M65.6 73s-.4.5-.4 1l.2.5-.4-.2c-.2 0-.4.2-.4.4v.2h.5c.2 0 .4 0 .4.3H65v.3h.3l-.2.4h.4l.2.2.2-.3h.3v-.4h.2v-.3H66V75h.4l.2-.3c0-.2-.2-.4-.4-.4s-.3 0-.4.2l.2-.6c0-.5-.4-1-.4-1" fill="#d1b30e"/><path d="M65.4 75.8l.2.2.3-.2h-.2v-.2h.3c-.2 0-.2-.2-.3-.2 0-.4.2-.5.4-.5h.4v-.2c0-.3 0-.4-.2-.4 0 0-.2 0-.2.2h-.2v-.2-.5c0-.3 0-.6-.2-.7l-.2.6v.7l-.4-.3s-.3 0-.3.3v.2h.4c.3 0 .5 0 .5.3v.2H65h.2v.2m.2.6l-.2-.2-.3.2v-.9h.2c0-.2-.2-.2-.3 0h-.2l-.2-.4v-.3c0-.3 0-.5.4-.5V74c0-.5.5-1 .5-1h.2s.4.5.4 1v.2h.2c.3 0 .5.2.5.5v.2l-.2.2h-.2-.3.2v1h-.6"/><path fill="#d1b30e" d="M65 75.3h1.2v.3H65z"/><path d="M65.2 75.5h1-1zm1 .2H65v-.5h1.3v.5z"/><path d="M68.5 73s-.4.5-.4 1l.2.5-.3-.2c-.4 0-.5.2-.5.4v.2h.4s.2 0 .2.3H68v.3h.2l-.2.4h.2l.3.2.2-.3h.3l-.2-.4h.2v-.3h-.3c0-.2 0-.3.3-.3h.3c0-.2.2-.3.2-.3 0-.2-.2-.4-.4-.4 0 0-.3 0-.3.2V74l-.2-1z" fill="#d1b30e"/><path d="M68.2 75.8l.3.2v-.2h.2v-.3h.2-.3v-.2c0-.3 0-.4.3-.4h.2v-.2-.4c-.2 0-.3 0-.4.2h-.2v-.2-.5-.7c-.2 0-.4.4-.4.6v.5h.2v.2H68v-.3c-.3 0-.4 0-.4.3v.2h.3c.2 0 .3 0 .3.3v.2H68h.2v.2m.3.6L68 76l-.2.2c-.2 0-.2-.2-.2-.2l.2-.3h-.2v-.4h.3c0-.2-.2-.2-.2 0h-.2l-.2-.4v-.3c0-.3.2-.5.5-.5V74c0-.5.3-1 .4-1h.2s.4.5.4 1v.2c.4 0 .6.2.6.5v.2l-.2.2H69 69h.2v.4H69V76.3h-.5"/><path fill="#d1b30e" d="M68 75.3h1v.3h-1z"/><path d="M68 75.5h1-1zm1.2.2h-1.4v-.5h1.4v.5z"/><path d="M67 75.6s-.3.4-.3.7v.7s0-.2-.3-.2c-.2 0-.4 0-.4.3v.3l.2.3h.6v.2h-.3v.3h.2l-.2.5h1l-.2-.4h.3V78h-.3c0-.2 0-.3.3-.3h.2l.2-.2V77s0-.2-.4-.2c0 0-.3 0-.3.2v-.7c0-.3-.3-.7-.3-.7" fill="#d1b30e"/><path d="M66.8 78.3l.2.2.2-.2V78h.3-.2v-.2c0-.3 0-.5.3-.5h.2V77h-.2-.2-.2v-.7c0-.2 0-.4-.2-.6l-.2.6v.6c.2 0 0 0 0 0h-.4-.2v.3h.3c.2 0 .4.2.4.4s-.2.2-.2.2h-.2.3l-.2.3m.2.5l-.2-.3h-.2-.2v-.7h.3c0-.2-.3-.2-.4 0H66v-.4-.3s.2-.4.4-.4h.2v-.3c0-.4.3-.8.3-.8s.5.4.5.8v.3c.4 0 .7.3.7.5v.4l-.3.3h-.2-.4.2v1H67v.2"/><path fill="#d1b30e" d="M66.5 77.8h1.2v.3h-1.2z"/><path d="M66.6 78h1-1zm1 .2h-1.3v-.5h1.4v.5z"/><path d="M75.8 62.6h-.2c0 .2 0 .2-.2 0h-.2v-.2h-.3-.2l-.2-.4v.7l.7.5.6.6h.3c0-.2.3-.2.3-.2s-.3 0-.3-.2v-.2H76s-.2-.2 0-.2h-.3v-.4z" fill="#d1b30e"/><path d="M74.7 62.6c.2 0 .4.3.7.5l.6.6h.2s0-.2-.2-.3h-.2V63h-.2s-.2 0-.3-.2c-.2 0-.2-.2-.3-.2h-.2v-.2.2m1 1.4c0-.3-.3-.5-.6-.7-.2-.3-.5-.4-.7-.5h-.2s0-.3.2-.4V62l.2-.4V62.2h.6v.2h.2v.2h.4v.2h-.2.2v.2h.4v.5H77l-.3.2h-.4c-.2 0-.3.2-.3.2zM75.2 62.8"/><path d="M75.2 63s-.2 0-.2-.2.2-.2.3 0v.2M75.4 63h.2-.2z"/><path d="M75.5 63.2l-.3-.2v-.2h.4v.5zM75 62.7z"/><path d="M75 63l-.2-.2v-.2h.3c.2 0 .2 0 .2.2zM74.7 62.5"/><path d="M74.7 62.7c-.2 0-.2-.2 0-.3h.2v.2h-.2M75.7 63.3h-.2V63h.3v.2M76 63.4h-.2z"/><path d="M76 63.6h-.2v-.2-.2h.3v.4zM76 63.6"/><path d="M76 63.7v-.2h.2v.2z"/><path d="M75.4 62h-.2v.2h.3V62z" fill="#d1b30e"/><path d="M75 62.4V62l.5-.2v.4l-.2.2H75z"/><path d="M75 62v.2h.2V62h-.3z" fill="#d1b30e"/><path d="M75.2 62.4h-.4V62h.3l.4.2-.2.2z"/><path d="M75.5 62.4h-.2V62h.2v.2z" fill="#d1b30e"/><path d="M75.3 62.6l-.2-.3.2-.2h.4v.5h-.3z"/><path d="M75 62.2h.2" fill="#d1b30e"/><path d="M75.2 62.5c-.2 0-.2-.2-.2-.3 0 0 .2-.2.3 0v.2"/><path d="M74.6 62v-.2h-.2s0-.2.2 0v.2" fill="#d1b30e"/><path d="M74.6 62h-.2v-.2H74v-.2h.5v.4z"/><path d="M74.8 62v.2l-.3-.2h.3z" fill="#d1b30e"/><path d="M74.7 62.3l-.3-.3v-.2h.5v.3l-.3.3z"/><path d="M74.5 62" fill="#d1b30e"/><path d="M74.6 62.2h-.2v-.3c0-.2 0-.2.2-.2 0 0 .2 0 .2.2l-.2.2"/><path d="M76 62.4h-.2v.2h.2v-.2z" fill="#d1b30e"/><path d="M75.8 62.7h-.2V62h.5l.2.4h-.4z"/><path d="M75.5 62.4v.2h.3v-.2h-.3z" fill="#d1b30e"/><path d="M75.8 62.8h-.4v-.5h.3l.2.3-.2.2z"/><path d="M76 62.8l-.3-.2h.3v.2z" fill="#d1b30e"/><path d="M75.8 63l-.2-.3v-.2H76.2v.4h-.4z"/><path d="M75.7 62.6c.2 0 .2 0 0 0" fill="#d1b30e"/><path d="M75.8 62.8c-.2 0-.2 0-.2-.2s.2-.2.3 0c0 .2-.2.2-.2.2"/><path d="M76.5 62.8v.2h-.2v-.2h.2z" fill="#d1b30e"/><path d="M76.3 63.2L76 63l.3-.3h.3v.4l-.3.2z"/><path d="M76.5 63.3h-.2V63h.2v.3z" fill="#d1b30e"/><path d="M76.2 63.5V63h.5v.4H76z"/><path d="M76 63h.3V63H76z" fill="#d1b30e"/><path d="M76.2 63.2H76v-.4h.3v.4z"/><path d="M76.3 63" fill="#d1b30e"/><path d="M76.3 63.3H76V63c.2-.2.3 0 .4 0v.2"/><path d="M76.7 63.6h.2c0-.2-.3 0-.3 0" fill="#d1b30e"/><path d="M77 64v-.2h-.5v-.2l.4-.3.2.4v.2z"/><path d="M76.5 63.4l.2.2v-.2h-.2z" fill="#d1b30e"/><path d="M76.7 63.8l-.4-.3.2-.3h.3v.5z"/><path d="M76.7 63.6" fill="#d1b30e"/><path d="M76.7 63.8h-.2v-.2-.2h.4c0 .2 0 .3-.2.3M87.5 57.8h-1v-.4h.3v-.6h.5v.5h.2v.5zM46.3 60.8H46v-.3h.3v.3zM47 60.8v-.3h.4v.3H47zM86.5 60.8H86v-.3h.5v.3zM87.3 60.8H87v-.3h.5v.3h-.2z"/></g></svg>