<?xml version="1.0" encoding="UTF-8" standalone="no"?><!DOCTYPE svg PUBLIC "-//W3C//DTD SVG 1.1//EN" "http://www.w3.org/Graphics/SVG/1.1/DTD/svg11.dtd"><svg width="100%" height="100%" viewBox="0 0 201 135" version="1.1" xmlns="http://www.w3.org/2000/svg" xmlns:xlink="http://www.w3.org/1999/xlink" xml:space="preserve" style="fill-rule:evenodd;clip-rule:evenodd;stroke-linejoin:round;stroke-miterlimit:1.41421;"><g id="USA"><path d="M0.396,72.618l0,10.316l200,0l0,-10.316l-99.049,0l-100.951,0Z" style="fill:#fff;fill-rule:nonzero;"/><rect x="101.347" y="51.977" width="99.049" height="10.321" style="fill:#fff;fill-rule:nonzero;"/><rect x="0.396" y="93.255" width="200" height="10.318" style="fill:#fff;fill-rule:nonzero;"/><path d="M0.396,117.456c0,2.401 0.504,4.682 1.4,6.753l197.198,0c0.898,-2.071 1.402,-4.352 1.402,-6.753l0,-3.563l-200,0l0,3.563Z" style="fill:#fff;fill-rule:nonzero;"/><path d="M198.993,10.704l-97.646,0l0,10.317l99.048,0l0,-3.565c0,-2.4 -0.504,-4.682 -1.402,-6.752" style="fill:#fff;fill-rule:nonzero;"/><rect x="101.347" y="31.342" width="99.049" height="10.318" style="fill:#fff;fill-rule:nonzero;"/><path d="M183.396,0.456l-82.049,0l0,10.248l97.647,0c-2.614,-6.028 -8.61,-10.248 -15.598,-10.248" style="fill:#df1a30;fill-rule:nonzero;"/><rect x="101.347" y="21.022" width="99.049" height="10.32" style="fill:#df1a30;fill-rule:nonzero;"/><rect x="101.347" y="41.66" width="99.049" height="10.316" style="fill:#df1a30;fill-rule:nonzero;"/><rect x="101.347" y="62.298" width="99.049" height="10.32" style="fill:#df1a30;fill-rule:nonzero;"/><rect x="0.396" y="82.935" width="200" height="10.32" style="fill:#df1a30;fill-rule:nonzero;"/><rect x="0.396" y="103.574" width="200" height="10.319" style="fill:#df1a30;fill-rule:nonzero;"/><path d="M17.396,134.456l166,0c6.988,0 12.984,-4.22 15.598,-10.247l-197.198,0c2.614,6.027 8.612,10.247 15.6,10.247" style="fill:#df1a30;fill-rule:nonzero;"/><path d="M95.509,68.47l-2.43,-1.762l-2.427,1.762l0.925,-2.853l-2.427,-1.763l3.002,0l0.927,-2.855l0.926,2.855l3.004,0l-2.43,1.763l0.93,2.853ZM78.605,68.47l-2.428,-1.763l-2.428,1.763l0.928,-2.852l-2.428,-1.764l3,0l0.928,-2.855l0.928,2.855l3,0l-2.428,1.763l0.928,2.853ZM61.704,68.47l-2.429,-1.763l-2.428,1.763l0.928,-2.853l-2.43,-1.763l3.002,0l0.93,-2.855l0.925,2.855l3.002,0l-2.427,1.764l0.927,2.852ZM44.802,68.47l-2.43,-1.763l-2.427,1.763l0.927,-2.853l-2.429,-1.763l3.002,0l0.927,-2.855l0.928,2.855l3.002,0l-2.43,1.764l0.93,2.852ZM27.9,68.47l-2.43,-1.763l-2.426,1.763l0.926,-2.853l-2.428,-1.763l3.002,0l0.926,-2.855l0.928,2.855l3.002,0l-2.43,1.764l0.93,2.852ZM10.997,68.47l-2.429,-1.762l-2.426,1.762l0.926,-2.853l-2.428,-1.763l3,0l0.928,-2.855l0.927,2.855l3.002,0l-2.427,1.763l0.927,2.853ZM4.304,49.78l3.002,0l0.928,-2.855l0.927,2.855l3,0l-2.429,1.765l0.929,2.853l-2.429,-1.765l-2.426,1.765l0.926,-2.852l-2.428,-1.766ZM16.685,39.682l0.926,2.854l3.002,0l-2.428,1.765l0.926,2.857l-2.428,-1.767l-2.428,1.767l0.928,-2.856l-2.428,-1.766l3.002,0l0.928,-2.854ZM10.749,40.401l-2.429,-1.765l-2.428,1.765l0.928,-2.853l-2.428,-1.763l3,0l0.929,-2.858l0.928,2.858l3.002,0l-2.43,1.763l0.928,2.853ZM12.841,28.538l3.002,0l0.928,-2.856l0.927,2.856l3.002,0l-2.427,1.765l0.927,2.854l-2.429,-1.764l-2.428,1.764l0.928,-2.855l-2.43,-1.764ZM4.187,20.738l3,0l0.931,-2.858l0.928,2.858l3,0l-2.43,1.762l0.93,2.857l-2.43,-1.767l-2.429,1.767l0.929,-2.856l-2.429,-1.763ZM16.568,10.638l0.925,2.854l3.002,0l-2.427,1.764l0.927,2.854l-2.427,-1.764l-2.428,1.764l0.928,-2.854l-2.432,-1.764l3.004,0l0.928,-2.854ZM25.019,3.394l0.927,2.853l3.002,0l-2.429,1.766l0.929,2.854l-2.429,-1.764l-2.43,1.764l0.928,-2.854l-2.426,-1.766l3,0l0.928,-2.853ZM34.398,13.492l3.002,0l-2.43,1.764l0.93,2.854l-2.43,-1.765l-2.428,1.765l0.928,-2.853l-2.43,-1.765l3.002,0l0.928,-2.854l0.928,2.854ZM41.921,3.394l0.926,2.853l3.006,0l-2.43,1.766l0.928,2.854l-2.43,-1.764l-2.428,1.764l0.926,-2.853l-2.428,-1.767l3.002,0l0.928,-2.853ZM51.298,13.492l3.004,0l-2.43,1.763l0.93,2.855l-2.43,-1.764l-2.426,1.764l0.926,-2.854l-2.429,-1.764l3.002,0l0.927,-2.854l0.926,2.854ZM58.821,3.394l0.928,2.853l3.004,0l-2.43,1.766l0.928,2.854l-2.428,-1.764l-2.427,1.764l0.925,-2.853l-2.427,-1.767l3,0l0.927,-2.853ZM68.2,13.492l3.004,0l-2.429,1.764l0.927,2.854l-2.429,-1.763l-2.426,1.763l0.926,-2.853l-2.428,-1.765l3.002,0l0.928,-2.854l0.925,2.854ZM75.724,3.394l0.928,2.853l3.002,0l-2.428,1.767l0.928,2.853l-2.43,-1.765l-2.428,1.765l0.928,-2.853l-2.43,-1.767l3.002,0l0.928,-2.853ZM85.103,13.492l3.002,0l-2.428,1.763l0.928,2.855l-2.428,-1.764l-2.43,1.764l0.928,-2.854l-2.43,-1.764l3.004,0l0.928,-2.854l0.926,2.854ZM92.628,3.394l0.926,2.853l3.002,0l-2.428,1.767l0.928,2.853l-2.43,-1.764l-2.426,1.764l0.926,-2.854l-2.426,-1.766l2.998,0l0.93,-2.853ZM95.056,25.357l-2.43,-1.766l-2.426,1.766l0.926,-2.857l-2.426,-1.762l2.998,0l0.93,-2.858l0.928,2.858l3,0l-2.428,1.763l0.928,2.856ZM86.808,33.157l-2.428,-1.764l-2.43,1.764l0.928,-2.854l-2.43,-1.765l3.002,0l0.93,-2.856l0.926,2.856l3.004,0l-2.428,1.763l0.926,2.856ZM95.261,40.401l-2.43,-1.764l-2.425,1.764l0.925,-2.853l-2.429,-1.763l3,0l0.929,-2.858l0.928,2.858l3.002,0l-2.43,1.762l0.93,2.854ZM88.222,42.536l-2.428,1.766l0.928,2.856l-2.43,-1.767l-2.428,1.767l0.926,-2.857l-2.427,-1.765l3.001,0l0.93,-2.854l0.926,2.854l3.002,0ZM87.058,61.229l-2.43,-1.765l-2.428,1.765l0.926,-2.855l-2.428,-1.765l3.002,0l0.928,-2.857l0.928,2.857l3,0l-2.428,1.764l0.93,2.856ZM74.341,51.545l-2.43,-1.765l3,0l0.93,-2.855l0.926,2.855l3.004,0l-2.43,1.766l0.928,2.852l-2.428,-1.765l-2.428,1.765l0.928,-2.853ZM57.437,51.544l-2.428,-1.764l3,0l0.93,-2.855l0.927,2.855l3.002,0l-2.427,1.765l0.925,2.853l-2.427,-1.764l-2.43,1.764l0.928,-2.854ZM40.536,51.546l-2.429,-1.766l3.002,0l0.927,-2.855l0.926,2.855l3.004,0l-2.428,1.763l0.93,2.855l-2.43,-1.764l-2.427,1.764l0.925,-2.852ZM36.349,61.229l-2.428,-1.765l-2.428,1.765l0.928,-2.855l-2.43,-1.765l3.004,0l0.928,-2.857l0.928,2.857l3.002,0l-2.432,1.765l0.928,2.855ZM33.583,39.682l0.93,2.854l3.002,0l-2.428,1.765l0.928,2.857l-2.428,-1.768l-2.43,1.768l0.93,-2.856l-2.43,-1.766l3,0l0.926,-2.854ZM25.224,32.927l0.928,2.858l3.002,0l-2.43,1.762l0.928,2.854l-2.43,-1.763l-2.428,1.763l0.926,-2.855l-2.426,-1.761l3,0l0.93,-2.858ZM29.745,28.538l3,0l0.93,-2.856l0.926,2.856l3.002,0l-2.428,1.764l0.928,2.855l-2.428,-1.764l-2.428,1.764l0.926,-2.854l-2.428,-1.765ZM69.907,33.157l-2.429,-1.765l-2.43,1.765l0.928,-2.855l-2.428,-1.764l3.004,0l0.926,-2.856l0.926,2.856l3.003,0l-2.429,1.764l0.929,2.855ZM78.359,40.401l-2.43,-1.764l-2.428,1.764l0.926,-2.854l-2.43,-1.762l3.002,0l0.93,-2.858l0.928,2.858l3,0l-2.428,1.762l0.93,2.854ZM42.122,32.927l0.93,2.858l3.002,0l-2.43,1.763l0.928,2.853l-2.428,-1.764l-2.428,1.764l0.926,-2.854l-2.427,-1.762l3,0l0.927,-2.858ZM61.454,40.401l-2.427,-1.763l-2.428,1.763l0.926,-2.855l-2.428,-1.761l3.002,0l0.93,-2.858l0.925,2.858l3,0l-2.425,1.762l0.925,2.854ZM46.646,28.538l3.002,0l0.927,-2.856l0.928,2.856l3.002,0l-2.432,1.765l0.93,2.854l-2.43,-1.765l-2.425,1.765l0.925,-2.854l-2.427,-1.765ZM53.253,61.229l-2.43,-1.765l-2.427,1.765l0.927,-2.856l-2.427,-1.764l3,0l0.929,-2.857l0.928,2.857l3.002,0l-2.432,1.765l0.93,2.855ZM54.417,42.536l-2.428,1.766l0.928,2.856l-2.429,-1.767l-2.428,1.767l0.926,-2.856l-2.426,-1.766l3,0l0.928,-2.854l0.927,2.854l3.002,0ZM70.156,61.229l-2.43,-1.765l-2.428,1.765l0.928,-2.856l-2.43,-1.764l3.002,0l0.93,-2.857l0.928,2.857l3,0l-2.43,1.765l0.93,2.855ZM71.32,42.536l-2.428,1.766l0.928,2.856l-2.43,-1.766l-2.428,1.766l0.926,-2.859l-2.426,-1.763l3,0l0.93,-2.854l0.926,2.854l3.002,0ZM71.794,20.738l3.002,0l0.928,-2.858l0.928,2.858l3.002,0l-2.428,1.763l0.928,2.856l-2.43,-1.766l-2.428,1.766l0.928,-2.856l-2.43,-1.763ZM54.894,20.738l3,0l0.927,-2.858l0.928,2.858l3.004,0l-2.43,1.762l0.928,2.857l-2.428,-1.766l-2.427,1.766l0.925,-2.856l-2.427,-1.763ZM37.991,20.738l3.002,0l0.928,-2.858l0.928,2.858l3.004,0l-2.43,1.761l0.928,2.858l-2.43,-1.766l-2.428,1.766l0.926,-2.856l-2.428,-1.763ZM21.091,20.738l3,0l0.928,-2.858l0.927,2.858l3.002,0l-2.429,1.762l0.929,2.857l-2.429,-1.766l-2.43,1.766l0.928,-2.857l-2.426,-1.762ZM23.634,51.545l-2.428,-1.765l3.002,0l0.926,-2.855l0.928,2.855l3.004,0l-2.43,1.765l0.93,2.853l-2.432,-1.764l-2.426,1.764l0.926,-2.853ZM17.019,53.752l0.927,2.857l3.004,0l-2.429,1.764l0.927,2.856l-2.427,-1.764l-2.428,1.764l0.926,-2.855l-2.428,-1.765l3,0l0.928,-2.857ZM95.171,54.398l-2.428,-1.764l-2.427,1.764l0.925,-2.853l-2.425,-1.765l3,0l0.929,-2.855l0.926,2.855l3,0l-2.428,1.764l0.928,2.854ZM101.347,62.297l0,-10.321l0,-10.317l0,-10.318l0,-10.32l0,-10.318l0,-10.248l-83.951,0c-5.09,0 -9.645,2.248 -12.76,5.792l2.553,0l0.929,-2.853l0.926,2.853l3.002,0l-2.43,1.766l0.93,2.854l-2.43,-1.765l-2.429,1.765l0.929,-2.853l-2.16,-1.569c-2.527,2.966 -4.06,6.806 -4.06,11.01l0,55.162l100.951,0l0,-10.32Z" style="fill:#102c67;fill-rule:nonzero;"/><path d="M5.687,10.868l2.43,-1.766l2.429,1.766l-0.929,-2.854l2.429,-1.766l-3.002,0l-0.925,-2.854l-0.93,2.854l-2.553,0c-0.058,0.066 -0.121,0.129 -0.179,0.197l2.16,1.569l-0.93,2.854Z" style="fill:#fff;fill-rule:nonzero;"/><path d="M22.589,10.868l2.43,-1.765l2.429,1.765l-0.929,-2.854l2.429,-1.766l-3.002,0l-0.927,-2.854l-0.928,2.854l-3,0l2.426,1.766l-0.928,2.854Z" style="fill:#fff;fill-rule:nonzero;"/><path d="M39.493,10.868l2.428,-1.765l2.429,1.765l-0.927,-2.854l2.429,-1.766l-3.005,0l-0.926,-2.854l-0.928,2.854l-3.002,0l2.428,1.766l-0.926,2.854Z" style="fill:#fff;fill-rule:nonzero;"/><path d="M56.396,10.868l2.428,-1.765l2.428,1.765l-0.928,-2.854l2.429,-1.766l-3.003,0l-0.928,-2.854l-0.928,2.854l-3,0l2.428,1.766l-0.926,2.854Z" style="fill:#fff;fill-rule:nonzero;"/><path d="M73.296,10.868l2.428,-1.766l2.429,1.766l-0.927,-2.854l2.427,-1.766l-3.001,0l-0.928,-2.854l-0.928,2.854l-3.002,0l2.43,1.766l-0.928,2.854Z" style="fill:#fff;fill-rule:nonzero;"/><path d="M90.2,10.868l2.426,-1.765l2.43,1.765l-0.928,-2.854l2.428,-1.766l-3.002,0l-0.926,-2.854l-0.93,2.854l-2.998,0l2.426,1.766l-0.926,2.854Z" style="fill:#fff;fill-rule:nonzero;"/><path d="M14.14,18.11l2.428,-1.764l2.427,1.764l-0.927,-2.853l2.427,-1.764l-3.001,0l-0.926,-2.855l-0.928,2.855l-3.004,0l2.432,1.764l-0.928,2.853Z" style="fill:#fff;fill-rule:nonzero;"/><path d="M31.042,18.11l2.428,-1.765l2.429,1.765l-0.929,-2.853l2.429,-1.764l-3.002,0l-0.927,-2.855l-0.928,2.855l-3.002,0l2.43,1.765l-0.928,2.852Z" style="fill:#fff;fill-rule:nonzero;"/><path d="M47.946,18.11l2.426,-1.764l2.429,1.764l-0.929,-2.854l2.429,-1.763l-3.003,0l-0.926,-2.855l-0.928,2.855l-3.002,0l2.43,1.764l-0.926,2.853Z" style="fill:#fff;fill-rule:nonzero;"/><path d="M64.847,18.11l2.426,-1.763l2.429,1.763l-0.927,-2.853l2.429,-1.764l-3.004,0l-0.925,-2.855l-0.928,2.855l-3.002,0l2.428,1.765l-0.926,2.852Z" style="fill:#fff;fill-rule:nonzero;"/><path d="M81.747,18.11l2.43,-1.764l2.427,1.764l-0.927,-2.854l2.427,-1.763l-3.002,0l-0.925,-2.855l-0.928,2.855l-3.004,0l2.43,1.764l-0.928,2.853Z" style="fill:#fff;fill-rule:nonzero;"/><path d="M5.687,25.357l2.43,-1.767l2.429,1.767l-0.929,-2.857l2.429,-1.762l-3,0l-0.927,-2.858l-0.932,2.858l-3,0l2.43,1.763l-0.93,2.856Z" style="fill:#fff;fill-rule:nonzero;"/><path d="M22.589,25.357l2.43,-1.766l2.429,1.766l-0.929,-2.857l2.429,-1.762l-3.002,0l-0.927,-2.858l-0.928,2.858l-3,0l2.426,1.762l-0.928,2.857Z" style="fill:#fff;fill-rule:nonzero;"/><path d="M39.493,25.357l2.428,-1.766l2.429,1.766l-0.927,-2.857l2.429,-1.762l-3.004,0l-0.927,-2.858l-0.928,2.858l-3.002,0l2.428,1.763l-0.926,2.856Z" style="fill:#fff;fill-rule:nonzero;"/><path d="M56.396,25.357l2.428,-1.766l2.428,1.766l-0.928,-2.857l2.429,-1.762l-3.003,0l-0.928,-2.858l-0.928,2.858l-3,0l2.428,1.763l-0.926,2.856Z" style="fill:#fff;fill-rule:nonzero;"/><path d="M73.296,25.357l2.428,-1.766l2.429,1.766l-0.927,-2.856l2.427,-1.763l-3.001,0l-0.928,-2.858l-0.928,2.858l-3.002,0l2.43,1.763l-0.928,2.856Z" style="fill:#fff;fill-rule:nonzero;"/><path d="M90.2,25.357l2.426,-1.766l2.43,1.766l-0.928,-2.856l2.428,-1.763l-3,0l-0.928,-2.858l-0.93,2.858l-2.998,0l2.426,1.762l-0.926,2.857Z" style="fill:#fff;fill-rule:nonzero;"/><path d="M17.698,28.539l-0.928,-2.856l-0.927,2.856l-3.002,0l2.429,1.764l-0.927,2.854l2.427,-1.764l2.43,1.764l-0.928,-2.853l2.428,-1.765l-3.002,0Z" style="fill:#fff;fill-rule:nonzero;"/><path d="M34.601,28.539l-0.926,-2.856l-0.93,2.856l-3,0l2.428,1.765l-0.926,2.853l2.428,-1.764l2.428,1.764l-0.928,-2.854l2.428,-1.764l-3.002,0Z" style="fill:#fff;fill-rule:nonzero;"/><path d="M51.503,28.539l-0.928,-2.856l-0.927,2.856l-3.002,0l2.427,1.765l-0.925,2.853l2.425,-1.764l2.43,1.764l-0.93,-2.853l2.432,-1.765l-3.002,0Z" style="fill:#fff;fill-rule:nonzero;"/><path d="M68.403,28.539l-0.926,-2.856l-0.926,2.856l-3.003,0l2.427,1.764l-0.927,2.854l2.429,-1.764l2.43,1.764l-0.93,-2.854l2.43,-1.764l-3.004,0Z" style="fill:#fff;fill-rule:nonzero;"/><path d="M85.306,28.539l-0.926,-2.856l-0.93,2.856l-3.002,0l2.43,1.765l-0.928,2.853l2.43,-1.764l2.428,1.764l-0.926,-2.855l2.428,-1.763l-3.004,0Z" style="fill:#fff;fill-rule:nonzero;"/><path d="M9.249,35.786l-0.928,-2.858l-0.929,2.858l-3,0l2.427,1.763l-0.927,2.852l2.427,-1.764l2.43,1.764l-0.928,-2.852l2.43,-1.763l-3.002,0Z" style="fill:#fff;fill-rule:nonzero;"/><path d="M26.151,35.786l-0.928,-2.858l-0.93,2.858l-3,0l2.426,1.761l-0.926,2.854l2.428,-1.763l2.43,1.763l-0.928,-2.853l2.43,-1.762l-3.002,0Z" style="fill:#fff;fill-rule:nonzero;"/><path d="M43.052,35.786l-0.93,-2.858l-0.927,2.858l-3,0l2.427,1.762l-0.925,2.853l2.427,-1.763l2.428,1.763l-0.928,-2.852l2.43,-1.763l-3.002,0Z" style="fill:#fff;fill-rule:nonzero;"/><path d="M59.954,35.786l-0.926,-2.858l-0.929,2.858l-3.002,0l2.427,1.761l-0.925,2.854l2.427,-1.763l2.428,1.763l-0.926,-2.853l2.426,-1.762l-3,0Z" style="fill:#fff;fill-rule:nonzero;"/><path d="M76.856,35.786l-0.928,-2.858l-0.929,2.858l-3.002,0l2.429,1.762l-0.925,2.853l2.427,-1.763l2.43,1.763l-0.93,-2.853l2.428,-1.762l-3,0Z" style="fill:#fff;fill-rule:nonzero;"/><path d="M93.759,35.786l-0.928,-2.858l-0.929,2.858l-3,0l2.429,1.763l-0.925,2.852l2.425,-1.763l2.43,1.763l-0.93,-2.853l2.43,-1.762l-3.002,0Z" style="fill:#fff;fill-rule:nonzero;"/><path d="M14.255,47.159l2.428,-1.768l2.427,1.768l-0.925,-2.857l2.427,-1.765l-3.002,0l-0.925,-2.855l-0.928,2.855l-3.002,0l2.428,1.766l-0.928,2.856Z" style="fill:#fff;fill-rule:nonzero;"/><path d="M31.157,47.159l2.43,-1.768l2.427,1.768l-0.927,-2.857l2.427,-1.765l-3.002,0l-0.929,-2.855l-0.926,2.855l-3,0l2.43,1.766l-0.93,2.856Z" style="fill:#fff;fill-rule:nonzero;"/><path d="M48.06,47.159l2.428,-1.768l2.429,1.768l-0.927,-2.856l2.427,-1.766l-3.002,0l-0.927,-2.855l-0.928,2.855l-3,0l2.426,1.766l-0.926,2.856Z" style="fill:#fff;fill-rule:nonzero;"/><path d="M64.962,47.159l2.428,-1.767l2.429,1.767l-0.927,-2.856l2.427,-1.766l-3.001,0l-0.926,-2.855l-0.93,2.855l-3,0l2.426,1.763l-0.926,2.859Z" style="fill:#fff;fill-rule:nonzero;"/><path d="M81.864,47.159l2.428,-1.768l2.43,1.768l-0.928,-2.856l2.428,-1.766l-3.003,0l-0.925,-2.855l-0.93,2.855l-3.002,0l2.428,1.765l-0.926,2.857Z" style="fill:#fff;fill-rule:nonzero;"/><path d="M5.806,54.398l2.426,-1.765l2.429,1.765l-0.929,-2.853l2.429,-1.764l-3,0l-0.927,-2.856l-0.928,2.856l-3.002,0l2.428,1.765l-0.926,2.852Z" style="fill:#fff;fill-rule:nonzero;"/><path d="M22.708,54.398l2.426,-1.764l2.431,1.764l-0.929,-2.853l2.429,-1.764l-3.003,0l-0.928,-2.856l-0.926,2.856l-3.002,0l2.428,1.764l-0.926,2.853Z" style="fill:#fff;fill-rule:nonzero;"/><path d="M39.61,54.398l2.428,-1.764l2.43,1.764l-0.93,-2.855l2.427,-1.762l-3.003,0l-0.926,-2.856l-0.928,2.856l-3.002,0l2.43,1.765l-0.926,2.852Z" style="fill:#fff;fill-rule:nonzero;"/><path d="M56.509,54.398l2.43,-1.764l2.427,1.764l-0.925,-2.853l2.427,-1.764l-3.002,0l-0.927,-2.856l-0.93,2.856l-3,0l2.428,1.763l-0.928,2.854Z" style="fill:#fff;fill-rule:nonzero;"/><path d="M73.413,54.398l2.428,-1.765l2.427,1.765l-0.927,-2.852l2.429,-1.765l-3.004,0l-0.925,-2.856l-0.93,2.856l-3,0l2.43,1.764l-0.928,2.853Z" style="fill:#fff;fill-rule:nonzero;"/><path d="M90.315,54.398l2.428,-1.764l2.427,1.764l-0.927,-2.854l2.427,-1.763l-3,0l-0.925,-2.856l-0.93,2.856l-3,0l2.426,1.764l-0.926,2.853Z" style="fill:#fff;fill-rule:nonzero;"/><path d="M17.946,56.609l-0.928,-2.856l-0.927,2.856l-3,0l2.427,1.766l-0.925,2.854l2.427,-1.763l2.428,1.763l-0.928,-2.855l2.43,-1.765l-3.004,0Z" style="fill:#fff;fill-rule:nonzero;"/><path d="M34.851,56.609l-0.928,-2.856l-0.928,2.856l-3.003,0l2.429,1.766l-0.927,2.854l2.427,-1.765l2.428,1.765l-0.928,-2.854l2.432,-1.766l-3.002,0Z" style="fill:#fff;fill-rule:nonzero;"/><path d="M51.753,56.609l-0.928,-2.856l-0.929,2.856l-3,0l2.427,1.765l-0.927,2.855l2.427,-1.765l2.43,1.765l-0.93,-2.854l2.432,-1.766l-3.002,0Z" style="fill:#fff;fill-rule:nonzero;"/><path d="M68.655,56.609l-0.928,-2.856l-0.93,2.856l-3.001,0l2.429,1.765l-0.928,2.855l2.428,-1.765l2.43,1.765l-0.93,-2.854l2.43,-1.766l-3,0Z" style="fill:#fff;fill-rule:nonzero;"/><path d="M85.556,56.609l-0.928,-2.856l-0.928,2.856l-3.002,0l2.428,1.766l-0.926,2.854l2.428,-1.765l2.43,1.765l-0.93,-2.855l2.428,-1.765l-3,0Z" style="fill:#fff;fill-rule:nonzero;"/><path d="M9.495,63.854l-0.928,-2.854l-0.927,2.854l-3,0l2.427,1.764l-0.926,2.852l2.426,-1.762l2.43,1.762l-0.928,-2.852l2.428,-1.764l-3.002,0Z" style="fill:#fff;fill-rule:nonzero;"/><path d="M26.397,63.854l-0.928,-2.854l-0.926,2.854l-3.001,0l2.427,1.764l-0.926,2.852l2.426,-1.762l2.43,1.762l-0.93,-2.851l2.43,-1.765l-3.002,0Z" style="fill:#fff;fill-rule:nonzero;"/><path d="M43.3,63.854l-0.928,-2.854l-0.927,2.854l-3.002,0l2.429,1.764l-0.927,2.852l2.427,-1.762l2.43,1.762l-0.93,-2.851l2.43,-1.765l-3.002,0Z" style="fill:#fff;fill-rule:nonzero;"/><path d="M60.202,63.854l-0.926,-2.854l-0.929,2.854l-3.002,0l2.429,1.764l-0.927,2.852l2.427,-1.762l2.43,1.762l-0.928,-2.851l2.428,-1.765l-3.002,0Z" style="fill:#fff;fill-rule:nonzero;"/><path d="M77.104,63.854l-0.928,-2.854l-0.927,2.854l-3,0l2.427,1.765l-0.927,2.851l2.427,-1.762l2.428,1.762l-0.928,-2.852l2.428,-1.764l-3,0Z" style="fill:#fff;fill-rule:nonzero;"/><path d="M97.009,63.854l-3.004,0l-0.926,-2.854l-0.927,2.854l-3.002,0l2.427,1.764l-0.925,2.852l2.427,-1.762l2.43,1.762l-0.93,-2.852l2.43,-1.764Z" style="fill:#fff;fill-rule:nonzero;"/></g></svg>